<svg xmlns="http://www.w3.org/2000/svg" width="179.042" height="209.494" viewBox="0 0 179.042 209.494">
  <g id="image_logo03" transform="translate(-1167.239 -1545.506)">
    <g id="グループ_1436" data-name="グループ 1436" transform="translate(1002.586 1356.467)">
      <text id="HARUNA" transform="translate(203.653 388.533)" fill="#2c5684" font-size="21" font-family="Apple-Chancery, Apple Chancery"><tspan x="0" y="0">HARUNA</tspan></text>
      <g id="グループ_1435" data-name="グループ 1435" transform="translate(164.653 189.039)">
        <path id="パス_1141" data-name="パス 1141" d="M447.824,181.781c-.072.047-.168.076-.212.139a12.258,12.258,0,0,1-3.326,3.106c-.709.5-1.435.976-2.18,1.419a3.631,3.631,0,0,1-1.078.4c-.346.074-.571-.171-.563-.522a.947.947,0,0,1,.494-.894c.264-.141.529-.279.788-.43a2.493,2.493,0,0,0,1.01-.857,2.862,2.862,0,0,1,.648-.611,12.605,12.605,0,0,0,2.219-2.459,1.154,1.154,0,0,0,.207-.62,4.375,4.375,0,0,0-.438.341,27.36,27.36,0,0,1-4.969,3.822,13.476,13.476,0,0,1-3.286,1.419c-.316.092-.63.188-.937.306a1.638,1.638,0,0,1-.963.1,3.652,3.652,0,0,0-.7,0c-.371-.007-.578-.188-.544-.549a1.71,1.71,0,0,0-.076-.877.456.456,0,0,1,.188-.553c.163-.128.365-.2.534-.324a1.7,1.7,0,0,0,.539-.455,3.716,3.716,0,0,1,1.068-1.067,20.927,20.927,0,0,0,2.888-2.851c-.2.086-.393.181-.6.254-.225.079-.457.136-.687.2a1.81,1.81,0,0,1-.346.089.52.52,0,0,1-.516-.287.473.473,0,0,1,.094-.58,2.749,2.749,0,0,1,.554-.449c.428-.272.875-.517,1.307-.784a4.519,4.519,0,0,0,.887-.606c.83-.857,1.628-1.747,2.432-2.629a.715.715,0,0,0,.094-.235c-.217-.139-.329.054-.477.123a3.3,3.3,0,0,1-.643.3.468.468,0,0,1-.56-.593,4.81,4.81,0,0,1,.237-.62,5.04,5.04,0,0,0-.561-.066,2.673,2.673,0,0,1-1.458-.366,1.319,1.319,0,0,0-1.451.022,40.3,40.3,0,0,1-4.094,1.826,11.8,11.8,0,0,1-1.955.647,3.646,3.646,0,0,1-2.123-.049c-.139-.045-.284-.072-.462-.116-1,1.114-2.226,1.984-3.19,3.141a3.292,3.292,0,0,0-.7,3.172c.262.981.588,1.947.828,2.933a14.312,14.312,0,0,1,.467,3.64,12.876,12.876,0,0,1-.222,2.044,13.719,13.719,0,0,0-.15,3.222,3.139,3.139,0,0,0,1.724,2.753,5.172,5.172,0,0,1,.732.507c.635.5,1.252,1.025,1.9,1.505a5.19,5.19,0,0,0,.942.509c3.559,1.645,7.2,3.077,10.889,4.413a35.587,35.587,0,0,0,5.555,1.75,24.265,24.265,0,0,0,7.319.376,9.856,9.856,0,0,0,2.723-.869,15.118,15.118,0,0,1,2.019-.721,4.455,4.455,0,0,1,4.594,1.529,5.208,5.208,0,0,1,.492.64c.526.764,1.055,1.525,1.562,2.3.423.65.838,1.309,1.225,1.982a3.41,3.41,0,0,0,1.875,1.829.614.614,0,0,1,.3.191,1.257,1.257,0,0,0,1.461.363,5.041,5.041,0,0,0,2.493-1.347c.317-.318.632-.638.929-.974a1.859,1.859,0,0,1,1.759-.677c.117.017.238.022.356.037a1.906,1.906,0,0,0,1.828-.69,11.683,11.683,0,0,0,1.634-2.239,12.124,12.124,0,0,1,3.044-3.733c.6-.5,1.186-1.008,1.76-1.532a6.368,6.368,0,0,1,2.481-1.394c1.031-.309,2.059-.627,3.088-.946a7.628,7.628,0,0,1,2.84-.289,11.163,11.163,0,0,0,3.037-.155,6.374,6.374,0,0,1,1.339-.108,8.841,8.841,0,0,0,4.208-1.1,2.171,2.171,0,0,0,.793-.7,11.554,11.554,0,0,0,1.868-4.134,13.926,13.926,0,0,0,.131-4.813,9.507,9.507,0,0,0-.58-2.436c-.055-.133-.134-.257-.225-.43a7.243,7.243,0,0,1-2.59.724,9.48,9.48,0,0,0-1.472.385,14.388,14.388,0,0,1-2.968.672c-.8.1-1.592.262-2.389.391a25.145,25.145,0,0,1-9.276-.175,4.13,4.13,0,0,0-1.514.008,6.91,6.91,0,0,1-.887.109.538.538,0,0,1-.6-.423c-.049-.26.072-.627.326-.672.621-.108,1.1-.608,1.752-.6a4.821,4.821,0,0,0,2.059-.559,20.34,20.34,0,0,0,3.729-2.315,5.5,5.5,0,0,0,.756-.763c.442-.487.862-.994,1.31-1.475a2.817,2.817,0,0,0,.848-1.645,1.876,1.876,0,0,1,.8-1.342c.192-.144.381-.291.569-.437a1.368,1.368,0,0,1,1.512-.19c.183.084.366.233.574.035,0-.055.022-.126,0-.166-.378-.574-.768-1.139-1.141-1.715a6.16,6.16,0,0,0-1.96-1.94A11.974,11.974,0,0,0,490.632,172c-.57-.175-1.114-.433-1.676-.638-1.374-.5-2.757-.989-4.131-1.5a31.263,31.263,0,0,1-5.673-2.669c-.252-.156-.492-.329-.788-.529l.884-1.1c.265.15.5.272.719.407a3.842,3.842,0,0,0,2.74.563,25.057,25.057,0,0,1,2.592-.16,13.3,13.3,0,0,0,1.777-.144,6.93,6.93,0,0,1,3.6.489c1.046.351,2.071.774,3.1,1.181a4.345,4.345,0,0,0,1.665.3c.9-.007,1.794.024,2.691.012a7.355,7.355,0,0,0,1.245-.123,2.034,2.034,0,0,1,1.31.134c.323.151.68.23,1,.383a11.939,11.939,0,0,1,1.507.779,15.371,15.371,0,0,0,3.867,2.054c.482.148.922.425,1.394.613.8.324,1.616.627,2.426.932a1.414,1.414,0,0,0,1.052-.018c.527-.21,1.072-.381,1.589-.613a16.9,16.9,0,0,1,7.966-1.393,15.4,15.4,0,0,0,3.467-.317c.176-.029.349-.079.526-.109a4.257,4.257,0,0,0,2.7-1.587c1.43-1.767,2.99-3.427,4.488-5.137.395-.45.773-.914,1.141-1.386a5.044,5.044,0,0,0,.873-1.453,4.483,4.483,0,0,1,.432-.784c.677-1.129,1.352-2.259,2.038-3.383a4.963,4.963,0,0,0,.679-1.745,38.176,38.176,0,0,0,.887-5.847,31.358,31.358,0,0,0-.952-8.893q-.388-1.429-.786-2.854a3.835,3.835,0,0,0-1.688-2.345,10.7,10.7,0,0,1-1.019-.828c-.076.417-.129.786-.212,1.151a11.321,11.321,0,0,1-.822,2.36,10.869,10.869,0,0,1-1.785,2.563,9.642,9.642,0,0,0-1.134,1.712,1.449,1.449,0,0,0-.133.423c-.178.694-.355,1.388-.524,2.083-.091.376-.371.506-.705.6-.687.2-1.381.388-2.05.637-.811.3-1.6.657-2.4,1-.521.223-1.045.447-1.552.7a12.593,12.593,0,0,0-1.236.716,2.633,2.633,0,0,0-1.041,1.29,6.616,6.616,0,0,1-1.527,2.2,2.351,2.351,0,0,1-.739.487c-.8.334-1.6.677-2.424.937a44.739,44.739,0,0,0-5.706,2.382c-.486.232-.983.438-1.485.63a5.053,5.053,0,0,1-2.021.343c-.39-.015-.78-.017-1.168,0a13.6,13.6,0,0,1-3.39-.275c-.116-.024-.234-.049-.349-.079a1.953,1.953,0,0,0-1.912.437,10.7,10.7,0,0,1-1.386.991,2.226,2.226,0,0,1-.885.4,21.847,21.847,0,0,1-4.742.155c-1.782-.2-3.559-.442-5.342-.657a8.184,8.184,0,0,0-1.073-.057c-1.376.02-2.752.066-4.127.079a5.846,5.846,0,0,1-3.15-.934c.333-.087.576-.148.818-.217,1.7-.487,3.4-.939,5.077-1.478,1.08-.346,2.1-.875,3.178-1.225A24.456,24.456,0,0,0,493,151.213a7.786,7.786,0,0,1,1.056-.46c.193-.077.415-.091.6-.185a5.553,5.553,0,0,1,3.939-.282,6.913,6.913,0,0,0,5.118-.692,10.452,10.452,0,0,0,4.647-5.063,4.774,4.774,0,0,0,.114-3.657,8.077,8.077,0,0,0-2.933-3.859,2.617,2.617,0,0,0-.613-.365,8.755,8.755,0,0,0-5.955-.452,3.667,3.667,0,0,0-.748.294,17.083,17.083,0,0,0-2.839,2.026,6.877,6.877,0,0,0-1.86,3.413,21.126,21.126,0,0,0-.741,3.413,1.6,1.6,0,0,1-.26.658,9.858,9.858,0,0,1-.919,1.325,3.414,3.414,0,0,1-.986.746c-1.488.764-2.975,1.542-4.5,2.224-1.715.764-3.474,1.433-5.266,2.029-.116-.228.06-.344.126-.487a9.874,9.874,0,0,0,.744-2.852c.057-.445.108-.89.145-1.337a1.216,1.216,0,0,0-.042-.524,1.006,1.006,0,0,1,.3-1.136c.966-1.023,1.942-2.034,2.913-3.052a9.6,9.6,0,0,1,1.747-1.393,18.371,18.371,0,0,1,3.455-1.675,32,32,0,0,0,2.99-1.421,3.542,3.542,0,0,0,1.52-1.72,14.616,14.616,0,0,0,.9-2.342,4.163,4.163,0,0,0-.22-3.225,7.645,7.645,0,0,1-.318-.742,3.951,3.951,0,0,0-3.22-2.538c-.791-.118-1.591-.18-2.456-.275a2.722,2.722,0,0,1,.237-.242,22.681,22.681,0,0,0,4.487-4.49,4.027,4.027,0,0,1,1.5-1.105c1-.538,2.044-.988,3.077-1.461a1.752,1.752,0,0,1,.761-.232,7.416,7.416,0,0,0,2.794-.568c.593-.2,1.179-.435,1.749-.7a4.213,4.213,0,0,0,1.947-1.663,9.758,9.758,0,0,1,.874-1.136,2.462,2.462,0,0,0,.556-1.3c.1-.86.235-1.718.28-2.582a4.188,4.188,0,0,0-.17-1.5,24.52,24.52,0,0,0-.983-2.3,3.414,3.414,0,0,0-1.122-1.379c-.848-.61-1.683-1.245-2.57-1.792a3.958,3.958,0,0,0-2.029-.477c.156-.087.309-.186.472-.259a14.762,14.762,0,0,1,4.436-1.045,47.7,47.7,0,0,1,4.927-.223c1.433,0,2.867-.161,4.3-.185a21.057,21.057,0,0,1,9.812,2.138,23.422,23.422,0,0,1,2.132,1.324,1.554,1.554,0,0,0,.8.366,1.163,1.163,0,0,1,.568.235,52.272,52.272,0,0,1,6.022,4.672c.63.595,1.3,1.161,1.875,1.8a19.53,19.53,0,0,1,4.388,7.939c.121.432.247.863.407,1.282a12.026,12.026,0,0,1,.685,4.5,2.157,2.157,0,0,1-1.159,1.986,10.312,10.312,0,0,0-1.965,1.342c.032.1.032.188.067.21a2.383,2.383,0,0,1,1.114,1.851c.218,1.722.454,3.44.677,5.16.077.593.151,1.188.2,1.784a53.511,53.511,0,0,1-.128,11.11,36.524,36.524,0,0,1-.6,4.352c-.311,1.278-.67,2.543-1.01,3.815a.742.742,0,0,1-.054.171,35.12,35.12,0,0,1-1.829,3.59c-.472.653-.878,1.354-1.314,2.034a1.131,1.131,0,0,1-1.27.633c-.168.208-.326.385-.462.576a62.528,62.528,0,0,1-4.877,5.859,35.63,35.63,0,0,1-9.456,7.191c-.684.371-1.369.736-2.054,1.1a24.67,24.67,0,0,1-6.417,2.244,7.777,7.777,0,0,1-3.111.237.881.881,0,0,0-.672.168,3.611,3.611,0,0,0-1.562,2.207c.15.166.311.375.5.553a7.423,7.423,0,0,1,2.144,3.964c.082.38.143.766.242,1.142a6.917,6.917,0,0,1,.136,2.76,15.106,15.106,0,0,0-.129,1.606,4.582,4.582,0,0,1-.363,1.656c-.3.716-.576,1.448-.924,2.14-.457.907-.969,1.786-1.468,2.671a2.27,2.27,0,0,1-1.246.954,64.331,64.331,0,0,1-6.481,1.784,12.14,12.14,0,0,0-3.921,1.7,4.307,4.307,0,0,1-.685.425,2.959,2.959,0,0,0-1.418,1.446,2.238,2.238,0,0,1-1,.984,9.663,9.663,0,0,1-3.235,1.015,13.117,13.117,0,0,0-2.6.669,5.151,5.151,0,0,0-2.777,2.3,24.036,24.036,0,0,0-1.455,2.668,2.089,2.089,0,0,1-1.527,1.146,5.961,5.961,0,0,1-.973.163,9.435,9.435,0,0,0-3.961,1.32,5.283,5.283,0,0,1-4.053.669c-.291-.069-.583-.141-.877-.183a16.449,16.449,0,0,1-5.772-2.128c-.934-.529-1.912-.988-2.889-1.436-2.118-.974-4.25-1.92-6.375-2.883-1.142-.519-2.266-1.082-3.425-1.561-1.463-.6-2.938-1.191-4.436-1.7a41.084,41.084,0,0,1-6.558-3.108c-1.413-.784-2.807-1.6-4.194-2.427a9.452,9.452,0,0,1-1.377-1,4.581,4.581,0,0,0-1.275-.811c-1.052-.432-2.09-.892-3.133-1.346a8.969,8.969,0,0,1-2.437-1.655c-.573-.521-1.171-1.016-1.781-1.493a1.267,1.267,0,0,0-1.287-.131,9.312,9.312,0,0,0-3.638,2.241,5.78,5.78,0,0,1-3.484,1.851,10.607,10.607,0,0,1-3.657.057,55.187,55.187,0,0,1-6.319-1.309,29.216,29.216,0,0,1-5.644-2.281c-.265-.139-.519-.3-.791-.423-2.274-1.01-4.376-2.345-6.568-3.507-1.109-.588-2.174-1.258-3.244-1.918-2.978-1.838-5.958-3.674-8.916-5.543-1.188-.749-2.327-1.577-3.476-2.385a56.73,56.73,0,0,0-4.877-3.193A14.04,14.04,0,0,1,370.956,178a11.916,11.916,0,0,1-2.678-4.1c-.218-.558-.437-1.115-.632-1.68-.771-2.239-1.781-4.376-2.721-6.543-.561-1.29-1.078-2.6-1.606-3.9a11.707,11.707,0,0,1-.543-2.72,13.041,13.041,0,0,1,.657-6.711,15.473,15.473,0,0,1,.907-1.952,17.059,17.059,0,0,1,4.8-5.738,11.388,11.388,0,0,1,1.45-.764,1.976,1.976,0,0,0,.176-1.094c-.012-.717-.027-1.436-.069-2.154a7.305,7.305,0,0,1,1.015-4.3c.244-.408.442-.843.64-1.226a21.966,21.966,0,0,1-1.035-2.157c-.742-2.085-1.411-4.195-2.133-6.286-.447-1.3-.9-2.6-1.414-3.874a32.561,32.561,0,0,1-2.405-8.71c-.166-1.577-.469-3.131-.62-4.707a13.764,13.764,0,0,1,.264-3.927,60.406,60.406,0,0,1,1.322-6.047c.146-.485.3-.971.492-1.441.593-1.47,1.263-2.911,1.794-4.4a25.989,25.989,0,0,1,3.675-6.447c.175-.242.375-.469.538-.717a13.242,13.242,0,0,1,4.252-4.052c.383-.235.758-.48,1.141-.714a16.419,16.419,0,0,1,7.237-2.175c.3-.027.6-.029.892-.079a2.848,2.848,0,0,1,1.9.1,3.886,3.886,0,0,0,1.624-1.705,31.966,31.966,0,0,1,2.562-4.21c.333-.5.553-1.067.9-1.556a28.21,28.21,0,0,1,3.566-4.252,9.09,9.09,0,0,1,1.446-1.055,4.621,4.621,0,0,1,1.692-.543,12.708,12.708,0,0,1,4.183.287,41.317,41.317,0,0,1,8.838,2.306,25.943,25.943,0,0,1,2.913,1.388,31.782,31.782,0,0,1,5.337,3.462q1.761,1.461,3.534,2.908a1.315,1.315,0,0,0,.281.121c.076-.24.148-.462.212-.687a15.653,15.653,0,0,1,1.619-3.88c.559-.921,1.043-1.888,1.641-2.78a24.582,24.582,0,0,1,1.865-2.409,39.556,39.556,0,0,1,5.57-5.058,20.955,20.955,0,0,1,4.346-2.676,20.631,20.631,0,0,0,5.992-4.043,4.6,4.6,0,0,1,1.6-.968,55.619,55.619,0,0,1,6.207-1.771,48.109,48.109,0,0,1,5.011-.989c.826-.121,1.655-.232,2.486-.328a6.775,6.775,0,0,1,.8.007c.506,0,1.013.02,1.517-.008a1.508,1.508,0,0,1,1.089.323c.438.361.868.731,1.314,1.082a2.451,2.451,0,0,1,.927,1.487c.092.467.245.922.363,1.354a8.433,8.433,0,0,0,4.388,1.164c2.113.191,4.23.353,6.346.526.774.062,1.549.149,2.327.176a11.145,11.145,0,0,1,5.034,1.482,28.865,28.865,0,0,1,6,4.381,19.576,19.576,0,0,1,4.616,6.887,65.509,65.509,0,0,1,2.993,8.925,38.58,38.58,0,0,1,.931,6.207,52.056,52.056,0,0,1,.079,8.789c-.092,1.011-.208,2.024-.393,3.022a26.488,26.488,0,0,1-2.216,6.8,4.5,4.5,0,0,1-1.1,1.5,8.887,8.887,0,0,0-2.928,6.252,10.839,10.839,0,0,1-.62,2.881q-.794,2.147-1.692,4.25c-.232.546-.608,1.028-.884,1.557a10.937,10.937,0,0,1-2.663,3.229c-1.272,1.09-2.434,2.31-3.739,3.356a14.473,14.473,0,0,1-5.57,2.79,1.213,1.213,0,0,1-.615.013,10.963,10.963,0,0,0-3.015-.383c-.052,0-.1-.049-.227-.113a3.153,3.153,0,0,1,.249-.415c.309-.365.643-.709.949-1.078a3.606,3.606,0,0,1,3.014-1.3,9.3,9.3,0,0,0,1.955-.17,8.935,8.935,0,0,0,4.534-2.75,3.946,3.946,0,0,0,1.167-1.777,19.87,19.87,0,0,0,.383-2.112,7.149,7.149,0,0,0-.465-3.255,5.323,5.323,0,0,0-2.18-2.657,5.917,5.917,0,0,0-1.109-.585,4.947,4.947,0,0,0-3.591-.134c-.277.094-.556.183-.959.316.432-.838.808-1.569,1.184-2.3,1.045-2.017,2.174-3.993,3.03-6.1.057-.138.131-.27.178-.412a7.965,7.965,0,0,1,3.361-4.067,24.173,24.173,0,0,0,3.832-3.1,7.416,7.416,0,0,0,2.474-5.752,7.306,7.306,0,0,0-2.851-5.669,6.348,6.348,0,0,0-4.371-1.312,9.825,9.825,0,0,0-1.683.173,7.118,7.118,0,0,0-4.44,3.4,6.39,6.39,0,0,0-1.006,3.838c.064.774.151,1.549.248,2.32.121.947.222,1.9.41,2.837.124.613.275,1.211.346,1.841a10.449,10.449,0,0,1-.269,3.02c-.151.855-.3,1.71-.511,2.55a8.816,8.816,0,0,1-.564,1.6c-.324.706-.714,1.381-1.073,2.07-.581,1.112-1.147,2.232-1.74,3.338-.608,1.132-1.186,2.286-1.885,3.361a13.813,13.813,0,0,1-1.616,1.8,26.794,26.794,0,0,1-4.216,3.474,2.542,2.542,0,0,1-1.225.494,8.459,8.459,0,0,0-3.548,1.157,1.267,1.267,0,0,1-.215.062.9.9,0,0,1,.012-1.139c.318-.433.67-.843,1-1.27.58-.761,1.159-1.522,1.727-2.291.534-.721,1.052-1.455,1.582-2.179a2.17,2.17,0,0,0,.447-.862c.171-.848.383-1.692.568-2.538a3.259,3.259,0,0,0,0-.546l-1.875,1.347c0-.2-.007-.333,0-.469.039-.655.1-1.31.116-1.967a1.972,1.972,0,0,1,.312-1.1,10.079,10.079,0,0,0,1.349-3.017c.141-.549.329-1.087.507-1.628a8.575,8.575,0,0,0,.532-2.715,3.557,3.557,0,0,1,1.085-2.58c.635-.635,1.257-1.283,1.918-1.888a10.943,10.943,0,0,0,2.575-3.2,12.472,12.472,0,0,0,1.04-3.237,22.576,22.576,0,0,1,1.56-4.574,2.807,2.807,0,0,1,.845-1.144,1.14,1.14,0,0,1,1.555-.087c.148.094.284.2.5.365.149-.615.27-1.159.416-1.7a16.7,16.7,0,0,1,.507-1.718c.679-1.757,1.4-3.5,2.083-5.254.217-.554.4-1.124.569-1.7a5.463,5.463,0,0,0,.091-.932,3.322,3.322,0,0,0-.487.4c-.791,1.052-1.571,2.112-2.352,3.171a2.829,2.829,0,0,0-.244.376c-1.776,3.489-3.946,6.773-5.306,10.477a31.86,31.86,0,0,1-2.706,5.562c-.467.764-1.006,1.485-1.535,2.209a2.05,2.05,0,0,1-.581.548.6.6,0,0,1-.968-.569,1.8,1.8,0,0,1,.027-.267c.38-2.3.779-4.6.949-6.933a7.919,7.919,0,0,1,1.54-3.961c.271-.395.543-.791.781-1.2a12.322,12.322,0,0,0,1.6-4.164c.168-1.03.45-2.041.529-3.091a5,5,0,0,1,1.053-2.632,20.9,20.9,0,0,1,3.2-3.257,2.006,2.006,0,0,0,.542-.6,3.8,3.8,0,0,0-.454.178q-1.139.625-2.271,1.267a12.32,12.32,0,0,0-2.767,2.122,29.567,29.567,0,0,0-3.6,4.574,23.817,23.817,0,0,1-1.92,2.363,2.132,2.132,0,0,1-.638.485.6.6,0,0,1-.951-.6,2.447,2.447,0,0,1,.128-.7c.215-.62.435-1.241.694-1.844.591-1.374,1.209-2.736,1.809-4.105a2.763,2.763,0,0,0,.215-.684,36.6,36.6,0,0,0,.607-4.443,19.306,19.306,0,0,1,.561-3.991c.18-.756.311-1.524.457-2.288a4.539,4.539,0,0,0-.642-3.1,3.413,3.413,0,0,0-1.268-1.114.557.557,0,0,0-.422-.081,7.925,7.925,0,0,1-2.046.208,1.093,1.093,0,0,0-.894.491,4.232,4.232,0,0,0-.7,1.539,21.572,21.572,0,0,0-.69,3.877c-.01.559-.244.855-.571.912s-.6-.193-.8-.712a1.69,1.69,0,0,1-.111-.341,11.753,11.753,0,0,0-1.112-3.019,19.944,19.944,0,0,1-.825-2.274,3.99,3.99,0,0,1-.121-.974c-.02-.326-.005-.653-.005-.932a1.3,1.3,0,0,0-.994-.474,28.634,28.634,0,0,0-7.06-.269,15.679,15.679,0,0,0-6.424,2.113c-.1.059-.237.111-.291.2a3.81,3.81,0,0,1-1.534,1.2c-1.71,1.045-3.429,2.075-5.147,3.108a1.825,1.825,0,0,1-.638.314,3.1,3.1,0,0,0-1.492.769c-.574.43-1.126.892-1.707,1.314-.556.4-1.141.763-1.705,1.154a7.166,7.166,0,0,0-.586.516c.276.168.465.292.663.4a1.547,1.547,0,0,1,.778,2.249,9.943,9.943,0,0,1-.744,1.223c-.144.223-.318.428-.492.662.071.207.131.4.2.595a40.168,40.168,0,0,1,1.8,6.477c.449,2.29.827,4.593,1.248,6.887.2,1.087.432,2.17.638,3.257.176.939.353,1.88.5,2.824.208,1.329.408,2.661.578,3.995.128,1.008.2,2.023.311,3.114-.358.144-.746.281-1.112.457s-.731.4-1.161.645a13.908,13.908,0,0,1-1.352-2.829c-.361-1.109-.7-2.224-1.036-3.341a1.306,1.306,0,0,1-.044-.522c.114-.9.245-1.8.38-2.77,1.089,1.992,1.939,4.053,3.02,6.042a2.747,2.747,0,0,0,.039-.467c-.05-.536-.089-1.075-.185-1.6-.408-2.266-.674-4.552-1.209-6.8-.4-1.683-.6-3.415-.912-5.122-.28-1.53-.544-3.066-.9-4.578-.378-1.6-.852-3.177-1.293-4.761a7.7,7.7,0,0,0-.321-.79c-.291.1-.538.183-.781.279a1.8,1.8,0,0,1-1.906.007,1.449,1.449,0,0,0-.376,1.05,5.554,5.554,0,0,0,.336,2.908c.254.575.469,1.167.747,1.729a8.479,8.479,0,0,1,.815,3.556c.032.926.047,1.855.042,2.782a1.882,1.882,0,0,0,.4,1.377c-.519-.118-.884-.232-1.255-.274a9.982,9.982,0,0,0-1.129-.01c-.215-.27-.457-.534-.652-.828a6.794,6.794,0,0,0-1.467-1.557c-1.235-.994-2.424-2.043-3.649-3.051-.578-.474-1.2-.894-1.789-1.354a11.09,11.09,0,0,1-1.512-1.262,3.375,3.375,0,0,0-1.443-.852.549.549,0,0,0-.747.3,4.77,4.77,0,0,0-.2.5c-.286.756-.586,1.505-.847,2.268a2.256,2.256,0,0,0-.114.877,20.594,20.594,0,0,0,.272,2.5c.25,1.263.459,2.528.606,3.808a23.491,23.491,0,0,0,1.184,5.056c.176.507.341,1.023.467,1.544a.814.814,0,0,0,.628.677,4.479,4.479,0,0,0,2.562.076,3.965,3.965,0,0,1,3.2.41,1.627,1.627,0,0,1,.257,2.758,3.053,3.053,0,0,1-1.45.665,2.167,2.167,0,0,0-.759.222,3.415,3.415,0,0,1-1.771.563c-.05,0-.1.057-.215.133a13.156,13.156,0,0,0,1.89,3.308,6.643,6.643,0,0,0,2.883,2.024c0-.484.02-.9,0-1.307a33.4,33.4,0,0,1,.035-4.4,16.882,16.882,0,0,1,.927-4.468,2.9,2.9,0,0,0-.062-2.4,9.408,9.408,0,0,1-.581-1.695,3.107,3.107,0,0,1-.089-1.063,1.97,1.97,0,0,1,1.878-1.844,4.034,4.034,0,0,1,2.723.7,2.2,2.2,0,0,1,.946,2.738,3.428,3.428,0,0,1-1.151,1.786,8.337,8.337,0,0,1-2.589,1.433,18.522,18.522,0,0,0-.781,3.012,18.721,18.721,0,0,0-.365,3.746,82.477,82.477,0,0,0,.65,10.926c.272,2.135.522,4.282.974,6.383a83.423,83.423,0,0,0,2.353,8.562,3.384,3.384,0,0,0,.188.4c.255-.1.186-.309.19-.459a31.919,31.919,0,0,0-.134-4.84,15.983,15.983,0,0,1-.045-2.6,6.6,6.6,0,0,0-.38-2.647,2.283,2.283,0,0,1,.151-1.986c.277-.529.573-1.05.842-1.584a1.9,1.9,0,0,1,2.165-1.073,3.851,3.851,0,0,0,1.4-.05c.207-.039.408-.1.613-.133a.753.753,0,0,1,.988.533,6.143,6.143,0,0,1,0,4.806,3.354,3.354,0,0,1-1.8,1.663,1.047,1.047,0,0,1-1.025-.141c-.223-.126-.44-.265-.779-.472.037.485.064.835.089,1.184.074,1.015.173,2.028.215,3.044a2.923,2.923,0,0,0,1.228,2.38,4.432,4.432,0,0,1,1.725,2.217c.126.365.341.7.489,1.058.109.264.176.546.311.974-.716-.4-1.3-.7-1.834-1.055-.175-.116-.244-.393-.354-.6-.252-.472-.472-.964-.761-1.413a1.706,1.706,0,0,0-1.09-.737,9.5,9.5,0,0,0-.274,2.647l-1.641.249c-.517-.574-1.037-1.112-1.5-1.69a2.434,2.434,0,0,1-.353-.815,35.991,35.991,0,0,1-1.389-5.473,4.288,4.288,0,0,1-.771-.433,2.572,2.572,0,0,1-.472-.65,6.315,6.315,0,0,0-2.108-1.915,30.359,30.359,0,0,1-2.921-2.646,1.076,1.076,0,0,1-.282-.91q.018-1.391.044-2.782a4.615,4.615,0,0,0-1.646-3.808,8.585,8.585,0,0,0-2.238-1.466,4.9,4.9,0,0,0-2.264-.449c-.208.015-.417,0-.627,0a2.848,2.848,0,0,1-.712-1.149,10.19,10.19,0,0,0-1.135-2.133c-.848-1.3-1.661-2.632-2.55-3.907-1.524-2.184-3.094-4.336-4.641-6.5a11.556,11.556,0,0,1-.645-.971,2.759,2.759,0,0,0-1.554-1.292c-.707-.23-1.44-.386-2.164-.564-.26-.066-.532-.086-.791-.156a2.4,2.4,0,0,1-1.86-1.969c-.087-.44-.185-.88-.235-1.325a2.443,2.443,0,0,1,1.641-2.592,8.011,8.011,0,0,1,4.168-.181,1.777,1.777,0,0,1,1.2.868,2.978,2.978,0,0,1,.472,1.97,3.98,3.98,0,0,0,.543,2.495,23.181,23.181,0,0,0,2.256,3.449,60.641,60.641,0,0,1,3.78,5.125,11.433,11.433,0,0,1,1.243,2.481c.069.21.1.48.475.526a1.665,1.665,0,0,0,.082-.4c-.027-.566-.044-1.136-.116-1.7a53.035,53.035,0,0,0-1.07-5.362,31.073,31.073,0,0,1-.7-6.145c-.072-2.093-.161-4.188-.238-6.281a1.791,1.791,0,0,0-.479-1.393,1.319,1.319,0,0,1-.262-.657A6.489,6.489,0,0,0,411,73.608a4.652,4.652,0,0,1-1.352-2.068,1.032,1.032,0,0,0-.3-.531,4.471,4.471,0,0,1-.993-1.26A1.351,1.351,0,0,0,407.038,69a.592.592,0,0,1-.267-.007c-.628-.291-1.342-.254-1.972-.5a12.23,12.23,0,0,0-4.322-.606,1.012,1.012,0,0,0-.912.464,1.046,1.046,0,0,1-.462.4,5.675,5.675,0,0,0-1.576,1.139.7.7,0,0,0-.274.348,6.5,6.5,0,0,0-.479,2.154,7.469,7.469,0,0,0,.235,1.322,2.031,2.031,0,0,0,.413.677c.472.578.951,1.156,1.453,1.71a4.625,4.625,0,0,1,.952,4.045,1.4,1.4,0,0,1-1.419,1.246c-.475.023-.956-.015-1.435-.035a18.056,18.056,0,0,1-3.82-.48,1.723,1.723,0,0,0-1.22.114,6.111,6.111,0,0,1-3.138.59,2.789,2.789,0,0,0-1.042.193q-3.19,1.063-6.367,2.164a7.629,7.629,0,0,0-1.305.581,4.33,4.33,0,0,1-1.483.608,1.768,1.768,0,0,0-1.021.517,31.719,31.719,0,0,0-4.942,5.79,6.76,6.76,0,0,0-1.047,3.292c-.008.3-.062.595-.076.894a2.084,2.084,0,0,0,.025.623c.783,2.978,1.456,5.989,2.464,8.9.292.845.707,1.648,1.078,2.464a1.629,1.629,0,0,0,.343.524,9.776,9.776,0,0,1,1.361,1.88,14.543,14.543,0,0,0,2.725,3.086c1.713,1.45,3.393,2.936,5.065,4.433a34.868,34.868,0,0,0,6.4,4.6c1.122.62,2.174,1.371,3.262,2.056.506.317,1.006.647,1.534.927,2.59,1.381,5.071,2.941,7.541,4.522.2.129.393.274.6.395a96.976,96.976,0,0,1,8.166,5.54c1.377,1,2.765,1.992,4.153,2.982a12.4,12.4,0,0,1,3.1,3.2,1.314,1.314,0,0,1,.227.48c.126.7.24,1.406.329,2.113a7.816,7.816,0,0,0,.779,2.562,24.232,24.232,0,0,0,2.894,4.317,7.239,7.239,0,0,0,2.2,1.682.513.513,0,0,0,.081.039,1.979,1.979,0,0,0,.252.094c.776.18,1.552.356,2.464.564-.2-.237-.312-.39-.445-.524-.67-.682-1.371-1.337-2.012-2.046a11.712,11.712,0,0,1-1.882-2.725,7.578,7.578,0,0,0-.568-.914,20.956,20.956,0,0,1-2.108-3.85,3.564,3.564,0,0,1-.286-1.03c-.057-.706.376-1.025,1.078-.845.113.029.222.069.413.131a1.554,1.554,0,0,0-.005-.44c-.333-.961-.684-1.915-1.016-2.878a1.9,1.9,0,0,0-.912-1.05c-2.014-1.178-4.015-2.377-6.017-3.575a9.527,9.527,0,0,1-.823-.543c-1.03-.771-2.043-1.564-3.082-2.318a6.009,6.009,0,0,0-1.315-.764,17.189,17.189,0,0,1-5.281-3.5c-1.156-1.053-2.406-1.974-3.652-2.9-1.1-.821-2.275-1.545-3.4-2.335q-2.462-1.723-4.9-3.487a10.315,10.315,0,0,1-1.144-1.008,14.1,14.1,0,0,0-2.626-2.019,14.783,14.783,0,0,1-2.53-1.855,3.176,3.176,0,0,0-.563-.443,18.312,18.312,0,0,1-2.615-2.034c-1-.848-2.076-1.616-3.138-2.392a1.967,1.967,0,0,0-.746-.257,3.219,3.219,0,0,1-1.96-1.171,1.77,1.77,0,0,1-.361-1.33,16.8,16.8,0,0,0-.049-2.5,10.015,10.015,0,0,0-.195-1.058,3.985,3.985,0,0,1,.183-2.122,1.2,1.2,0,0,1,2.086-.455,2.133,2.133,0,0,1,.663,1.527c.024.595-.037,1.193-.049,1.789-.008.354.007.709.01,1.063a1.382,1.382,0,0,0,.6,1.036c1.183,1.058,2.312,2.174,3.484,3.24,1.018.927,2.031,1.865,3.116,2.706a22.95,22.95,0,0,0,2.439,1.5,14.336,14.336,0,0,0,2.58,1.248,1.025,1.025,0,0,0,.857.015,3.134,3.134,0,0,1,2.2-.065,2.2,2.2,0,0,1,.84.487,30.933,30.933,0,0,1,4.213,4.151,26.187,26.187,0,0,0,4.871,4.747,12.618,12.618,0,0,0,2.093,1.2,27.334,27.334,0,0,1,4.6,2.607,11.332,11.332,0,0,1,2.076,2.1,2.88,2.88,0,0,0,.8.7,18.384,18.384,0,0,0,3.079,1.45.763.763,0,0,0,.838-.055.5.5,0,0,1,.722.1q1.25,1.351,2.466,2.726a2.66,2.66,0,0,1,.413.692c.43.984.877,1.965,1.25,2.973a9.363,9.363,0,0,0,.9,1.851,13.847,13.847,0,0,1,1.794,3.7c.1.344.225.684.3,1.033a4.675,4.675,0,0,0,1.04,2.059c.731.872,1.455,1.75,2.138,2.659.428.57.768,1.206,1.161,1.8a3.828,3.828,0,0,0,.591.769c.489.437,1.016.826,1.552,1.255a7.488,7.488,0,0,1-.6,2.137c-.227.721-.971,1.142-1.094,2.011a2.1,2.1,0,0,0,.455-.079,5.232,5.232,0,0,0,1.71-1.285,1.767,1.767,0,0,0,.3-.638c.153-.448.287-.9.45-1.424,1.381.3,2.654.926,4.151.642a2.732,2.732,0,0,1-.178.576,5.5,5.5,0,0,1-.669.949,13.565,13.565,0,0,1-5.164,3.476,8.264,8.264,0,0,1-.959.217c-.245.059-.341.22-.264.534.281.126.593.284.917.41.528.2,1.062.386,1.593.583a1.229,1.229,0,0,0,1.12-.089,9.179,9.179,0,0,0,1.048-.689,13.739,13.739,0,0,0,2.486-2.451,1.293,1.293,0,0,1,.233-.27,4.287,4.287,0,0,0,1.613-2.894c.012-.079.087-.148.144-.239a7.07,7.07,0,0,0,5.144-1.382c.788.324,1.592.632,2.379.983a5.843,5.843,0,0,0,2.17.48c.774.034,1.544.155,2.315.247a2.05,2.05,0,0,1,.395.131.985.985,0,0,1-.282.937,4.66,4.66,0,0,1-2.214,1.621c-.962.321-1.89.413-2.587-.739a3.675,3.675,0,0,0-.1.544,7.959,7.959,0,0,0,.059,1.253,4.169,4.169,0,0,1-.558,2.668,1.382,1.382,0,0,1-1.448.847c-.741-.071-1.477-.166-2.222-.2a4.146,4.146,0,0,1-.964-.3,5.258,5.258,0,0,0-.175.521,3.426,3.426,0,0,1-1.109,1.707,1.182,1.182,0,0,1-1.411.222,2.135,2.135,0,0,1-1.278-1.178,1.166,1.166,0,0,1,.126-1.184c.25-.336.529-.65.79-.978a1.623,1.623,0,0,0,.415-1.334l-2.528,2.634a1.624,1.624,0,0,0,.195.432,2.664,2.664,0,0,1,.623,1.556c.04.326.106.65.138.978a7,7,0,0,0,1.4,3.029,1.883,1.883,0,0,0,.358-.316,2,2,0,0,1,.828-.66c.724-.413,1.458-.818,2.137-1.3a2.743,2.743,0,0,0,.932-1.5,6.627,6.627,0,0,1,.412-1.087.859.859,0,0,1,1.041-.509,1.794,1.794,0,0,0,1.6-.363,33.363,33.363,0,0,0,3.959-3.089,16.94,16.94,0,0,0,1.265-1.51c.272-.316.559-.62.862-.907a2,2,0,0,1,1.2-.533,3.654,3.654,0,0,0,1.107-.338c.922-.427,1.826-.9,2.742-1.337a1.231,1.231,0,0,0,.657-.7,4.015,4.015,0,0,1,.326-.638,2.385,2.385,0,0,1,1.426-1.154.351.351,0,0,0,.084-.029,3.287,3.287,0,0,1,3.4.264,2.211,2.211,0,0,1,1.11,1.54,7.821,7.821,0,0,1-1.987,1.952,2.246,2.246,0,0,1-1.094.336,2.716,2.716,0,0,0-.947.22,2.855,2.855,0,0,1-2.511.044.873.873,0,0,0-.6-.018c-.855.27-1.7.578-2.55.86a.745.745,0,0,0-.553.532c-.339,1.438-1.51,1.984-2.689,2.526a15.766,15.766,0,0,0-1.766.865,3.055,3.055,0,0,0-1.564,2.659,8.875,8.875,0,0,0,.215,2.313,12.681,12.681,0,0,1,.2,1.776c.04.385.089.771.114,1.157a3.535,3.535,0,0,0,1.569,2.61,3.257,3.257,0,0,0,2.725.578c.781-.168,1.549-.408,2.392-.635.129.118.312.265.474.435a31.269,31.269,0,0,0,6.8,5.1,10.494,10.494,0,0,0,3.168,1.186c.727.161,1.438.395,2.162.568a5.933,5.933,0,0,0,.978.114c.956.067,1.912.116,2.866.186a4.085,4.085,0,0,1,.789.148.458.458,0,0,1,.353.464.519.519,0,0,1-.46.475.927.927,0,0,1-.178.023,32.429,32.429,0,0,1-4.83-.1,21.2,21.2,0,0,1-6.017-1.713c-.264-.121-.531-.239-.959-.432a4,4,0,0,0,.277.492q1.28,1.5,2.572,3a5.849,5.849,0,0,0,1.51,1.258q1.514.874,3.039,1.732a9.066,9.066,0,0,0,2.982.927,30.279,30.279,0,0,0,6.44.311c.894-.04,1.787-.1,2.681-.146.318-.013.658-.113.927.158a.4.4,0,0,1-.3.485,10.46,10.46,0,0,1-1.29.368c-.731.151-1.468.275-2.207.4a11.092,11.092,0,0,1-1.243.158,24.952,24.952,0,0,1-6.7-.442c-.113-.025-.228-.032-.477-.064a3.629,3.629,0,0,0,.344.442,18.059,18.059,0,0,0,5.965,3.4,8.529,8.529,0,0,0,2.189.448,1.441,1.441,0,0,1,1.094.45.941.941,0,0,1-.874.443,11.006,11.006,0,0,1-2.854-.16c-.863-.239-1.747-.4-2.622-.6a3.984,3.984,0,0,1-1.46-.664,49.874,49.874,0,0,1-6.33-5,13.3,13.3,0,0,1-1.075-1.08c-1.451-1.794-3.124-3.383-4.66-5.1-1.156-1.293-2.253-2.641-3.376-3.961-.077-.089-.17-.163-.383-.366a3.018,3.018,0,0,0,.155.543c.5.884.952,1.8,1.534,2.632,2.234,3.183,4.557,6.3,7.017,9.32a12.524,12.524,0,0,1,1.347,2.113,20.784,20.784,0,0,1,2.019,5.923,18.834,18.834,0,0,1,.257,2.5,35.116,35.116,0,0,1-.317,5.819,2.882,2.882,0,0,1-.193.779.457.457,0,0,1-.847.047,3.666,3.666,0,0,1-.4-1.082c-.264-1.532-.5-3.069-.722-4.606a20.154,20.154,0,0,0-1.359-4.732c-.385-.942-.758-1.888-1.139-2.831a20.034,20.034,0,0,0-1.705-3.257q-1.378-2.154-2.768-4.3a2.188,2.188,0,0,0-.7-.711c.025.163.035.331.076.492.664,2.639,1.349,5.273,1.992,7.919a22.1,22.1,0,0,1,.61,4.529c.042,1.315.128,2.632.118,3.948-.007.894-.141,1.787-.228,2.679a1.751,1.751,0,0,1-.781,1.263.856.856,0,0,1-.512-.784c-.049-.477-.086-.954-.143-1.43-.1-.89-.225-1.779-.326-2.671-.148-1.307-.282-2.617-.427-3.926-.067-.595-.165-1.186-.218-1.781a15.609,15.609,0,0,0-1.149-3.949c-.027-.076-.114-.128-.222-.244-.1.361-.193.67-.275.983a39.624,39.624,0,0,1-2.044,5.933,4.722,4.722,0,0,1-1.873,1.974,1.943,1.943,0,0,1-.076-.575,8.278,8.278,0,0,1,.284-.942,1.589,1.589,0,0,0,.094-1.215,1.3,1.3,0,0,1,.05-.7c.272-1.257.561-2.511.833-3.768a1.336,1.336,0,0,0-.035-.717c-.091.272-.187.544-.274.818a30.874,30.874,0,0,1-2.189,5.589,5.377,5.377,0,0,1-1.283,1.6,2.055,2.055,0,0,1-1.248.43c-.329.017-.479-.26-.313-.548a.569.569,0,0,1,.045-.076c1.115-1.238,1.273-2.849,1.653-4.41a2.155,2.155,0,0,0-.3.329c-.386.64-.734,1.3-1.144,1.927a2.86,2.86,0,0,1-1.576,1.393c-.267.076-.467.363-.719.524a1.989,1.989,0,0,1-.717.338.71.71,0,0,1-.512-.269c-.153-.181-.059-.4.114-.554a1.536,1.536,0,0,1,.289-.212,1.146,1.146,0,0,0,.556-.768c.113-.368.326-.706.469-1.065.474-1.194.952-2.389,1.4-3.593a2.942,2.942,0,0,0,.259-1.619,4.071,4.071,0,0,0-.42.24,27.717,27.717,0,0,1-3.571,2.229c-.158.086-.321.163-.484.233a.485.485,0,0,1-.573-.131.491.491,0,0,1,.024-.659,3.424,3.424,0,0,1,.721-.667,7.91,7.91,0,0,0,2.706-2.94c.465-.8.9-1.619,1.346-2.434a5.791,5.791,0,0,1,.445-.877,4.259,4.259,0,0,0,.692-2.458C447.91,181.9,447.861,181.85,447.824,181.781Zm-45.436-20.3c-.445-.059-.734-.1-1.023-.136a31.906,31.906,0,0,1-6.561-1.416c-1.552-.543-3.131-1.006-4.7-1.488-.541-.166-1.117-.235-1.641-.438a16.053,16.053,0,0,1-2.533-1.137,33.448,33.448,0,0,1-3.623-2.14c-.916-.721-1.917-1.329-2.867-2a4.9,4.9,0,0,1-.729-.655c-.282-.3-.524-.643-.8-.947-.526-.573-1.1-1.1-1.589-1.707a1.559,1.559,0,0,0-1.119-.643,2.188,2.188,0,0,1-1.846-2.535,5.232,5.232,0,0,1,1.115-2.417,1.17,1.17,0,0,1,1.119-.425,2.958,2.958,0,0,1,2.182,2.542,2.682,2.682,0,0,1-.613,1.458,1.056,1.056,0,0,0,.144,1.643,14.144,14.144,0,0,0,2.93,2.214c1.6.867,3.232,1.692,4.868,2.5a13.38,13.38,0,0,0,1.925.737c1.571.489,3.148.951,4.729,1.408a12.034,12.034,0,0,0,1.656.393,50.831,50.831,0,0,0,7.1,1,4.892,4.892,0,0,1,.533.074c.677.071,1.354.136,2.063.208-.087-.391-.395-.43-.606-.569-1.522-1.008-3.055-2-4.567-3.017a1.84,1.84,0,0,1-.731-.754,2.579,2.579,0,0,0-.816-1.033,19.922,19.922,0,0,1-3.828-4.49,88.156,88.156,0,0,0-5.685-9.032c-.037-.047-.066-.1-.1-.148a9.561,9.561,0,0,0-3.439-3.213,1.489,1.489,0,0,1-.381-.234,2.918,2.918,0,0,0-2.584-.692c-.469.057-.929.168-1.421.26-.327-.319-.385-.6-.07-.826a2.072,2.072,0,0,1,.81-.339,5.3,5.3,0,0,1,4.856,1.2,6.236,6.236,0,0,0,.553.459c.87.633,1.7,1.325,2.629,1.87a7.414,7.414,0,0,1,2.611,2.53c1.04,1.678,2.095,3.348,3.146,5.019.239.38.47.768.741,1.124a59.982,59.982,0,0,0,4.6,5.737c.665.684,1.372,1.332,2.091,1.962a35.515,35.515,0,0,0,3.78,2.385,1.337,1.337,0,0,0,.5.176q2.117.386,4.237.754a2.657,2.657,0,0,0,.447.03c.957-.008,1.915-.012,2.871-.035a3.25,3.25,0,0,0,1.994-.779c-.548-.237-1.053-.475-1.572-.679a31.391,31.391,0,0,1-4.986-2.451c-.712-.438-1.4-.922-2.137-1.315a20.959,20.959,0,0,1-6.17-5.132q-1.935-2.3-3.86-4.609-.751-.894-1.5-1.792a1.672,1.672,0,0,1-.311-.435.44.44,0,0,1,.06-.391.425.425,0,0,1,.395-.055,2.7,2.7,0,0,1,.638.48c.517.539,1.011,1.1,1.524,1.648a1.544,1.544,0,0,0,.536.457,2.041,2.041,0,0,1,.884.727c.254.294.519.58.8.852a50.86,50.86,0,0,0,6.986,5.76,37.526,37.526,0,0,0,4.485,2.622,51.143,51.143,0,0,0,6.792,2.57,3.515,3.515,0,0,0,.788.163c.954.084,1.908.153,2.864.213a6.371,6.371,0,0,0,.746-.044c-.309-.593-.588-1.055-1.246-1.136a2.881,2.881,0,0,1-.675-.235,66.863,66.863,0,0,1-10.8-5.456,56.351,56.351,0,0,1-7.131-5.285,10.971,10.971,0,0,1-1.725-1.693c-.506-.677-1.1-1.253-1.653-1.881a5.539,5.539,0,0,0-3.563-1.693,1.893,1.893,0,0,0-1.206.269,3.577,3.577,0,0,0-.6.393c-.679.568-1.411.324-2.137.155a.577.577,0,0,1-.276-.22,3.08,3.08,0,0,1-.815-2.394,8.021,8.021,0,0,1,1.1-2.923,6,6,0,0,1,.7-.793c-.536-.1-1.035-.165-1.519-.291a22.973,22.973,0,0,0-5.881-.457.848.848,0,0,0-.089.01c-.892.092-1.789.151-2.676.284a9.722,9.722,0,0,0-6.21,3.057,7.612,7.612,0,0,1-1,1.028,3.594,3.594,0,0,0-1.181,2.154c-.148.61-.306,1.22-.422,1.836-.133.7-.24,1.411-.326,2.12-.123,1.01-.22,2.023-.317,3.035a1.089,1.089,0,0,1-.39.771c-.548.464-1.079.947-1.6,1.443-.647.62-1.314,1.228-1.9,1.9-.685.79-1.29,1.65-1.94,2.469a1.509,1.509,0,0,0-.349.991c.015,1.317-.02,2.636.054,3.949a2.033,2.033,0,0,0,1.125,1.9,4.078,4.078,0,0,1,1.858,2,15.132,15.132,0,0,1,1.46,4.967c.082.712.141,1.43.225,2.142.042.348.119.692.19,1.088,1.3.207,2.53.407,3.766.6a1.417,1.417,0,0,0,.531.015,6.157,6.157,0,0,1,3.269.126c.573.17,1.166.264,1.749.4,1.339.311,2.678.627,4.016.939a9.228,9.228,0,0,0,1.226.264c1.517.134,3.037.24,4.559.343a4.164,4.164,0,0,0,.8-.047c.532-.066,1.063-.163,1.6-.217a8.32,8.32,0,0,0,2.5-.682c.247-.108.484-.239.738-.328a35.092,35.092,0,0,0,4.409-1.989,2.345,2.345,0,0,0,1-.875c.351-.591.7-1.188,1.008-1.8a1.706,1.706,0,0,0,.039-.615c-.257,0-.432-.01-.6,0-1.194.074-2.387.176-3.583.22a2.851,2.851,0,0,0-1.739.633,20.782,20.782,0,0,0-2.3,2.127,15.818,15.818,0,0,1-2.065,1.853,2.451,2.451,0,0,1-.89.4,13.664,13.664,0,0,1-1.5.257.74.74,0,0,1-.435-.067,2.185,2.185,0,0,1-1.191-1.381.775.775,0,0,1,.114-.571c.168-.223.427-.151.653-.032a1.74,1.74,0,0,1,.151.094,2.366,2.366,0,0,0,2.985-.121,35.873,35.873,0,0,0,3.225-2.851c.045-.042.029-.153.042-.247a1.571,1.571,0,0,0-.287-.027c-.831.087-1.663.191-2.5.267a1.3,1.3,0,0,0-.726.309,3.407,3.407,0,0,1-2.579.43.624.624,0,0,1-.245-.1,2.271,2.271,0,0,1-.914-1.939,1.025,1.025,0,0,1,1.09-.969,2.913,2.913,0,0,1,1.786.5,1.813,1.813,0,0,0,1.448.286q1.323-.247,2.647-.485a25.148,25.148,0,0,1,4.242-.689c.748-.005,1.493-.032,2.239-.022A1.418,1.418,0,0,0,402.388,161.479ZM371.444,172.53a3.881,3.881,0,0,0,1.016,1.875c.519.534,1.1,1.013,1.653,1.51.645.576,1.317,1.126,1.94,1.727a5.466,5.466,0,0,0,1.288.954c.9.47,1.823.917,2.673,1.468a3.293,3.293,0,0,0,2.473.465,15.637,15.637,0,0,0,3.938-1.45c.049-.024.076-.091.138-.168.066-.559.133-1.152.208-1.744.06-.474.116-.949.2-1.419.113-.616.269-1.225.381-1.843a1.934,1.934,0,0,1,1.288-1.685c.035-.012.045-.1.092-.207-.2.01-.366.013-.534.027a27.3,27.3,0,0,1-4.384.185q-2.683-.2-5.374-.311a30.186,30.186,0,0,1-3.931-.307,2.839,2.839,0,0,0-1.671.193C372.382,172.006,371.947,172.265,371.444,172.53Zm-4.252-62.914a15.188,15.188,0,0,0,.24,4.514,61.966,61.966,0,0,0,4.5,12.068,1.892,1.892,0,0,0,.282.339c.136-.188.227-.3.306-.425a1.962,1.962,0,0,1,2.439-.776,2.61,2.61,0,0,1,1.2.761c.227.239.445.484.677.719a1.254,1.254,0,0,0,.951.43,11.741,11.741,0,0,0,1.873-.111,16.115,16.115,0,0,1,3.38-.333,5.026,5.026,0,0,0,.7-.1,4.19,4.19,0,0,0-1.209-.773,9.948,9.948,0,0,1-2.412-1.693q-1.731-1.688-3.457-3.386c-1.529-1.512-3.1-2.988-4.561-4.562a25.533,25.533,0,0,1-4.71-6.509C367.361,109.73,367.3,109.705,367.193,109.616Zm.855-7.578-.146.062c.188,1.241.312,2.495.58,3.717a13.28,13.28,0,0,0,1.87,4.823,19.511,19.511,0,0,0,4.922,4.918c.612.43,1.221.863,1.823,1.305.724.529,1.436,1.075,2.159,1.608,1.661,1.223,3.323,2.447,4.994,3.657.556.4,1.141.768,1.72,1.134a2.661,2.661,0,0,0,.517.188c-.035-.134-.034-.2-.066-.232-2.295-2.56-4.678-5.043-6.761-7.788-.018-.024-.04-.044-.061-.067-1.055-1.221-2.081-2.469-3.173-3.659a27.249,27.249,0,0,1-4.263-6.5,8.33,8.33,0,0,1-1.132-3.832,2.685,2.685,0,0,0-.1-.527c-.17-.85-.338-1.7-.511-2.55a1.623,1.623,0,0,0-.282-.835,2.135,2.135,0,0,0-.475.905c-.3.779-.574,1.574-.9,2.343C368.562,101.173,368.286,101.6,368.048,102.038Zm26.633,75.892a3.483,3.483,0,0,0,.4-.24,19.594,19.594,0,0,1,3.119-1.93,3.581,3.581,0,0,1,2.263-.363,3.985,3.985,0,0,1,.437.1,1.9,1.9,0,0,0,2.034-.583c.24-.267.507-.509.744-.778a6.094,6.094,0,0,0,1.742-4.294,7.279,7.279,0,0,1,.339-2.562c.014-.04-.039-.1-.081-.207a3.108,3.108,0,0,0-1.394.714,6.727,6.727,0,0,1-2.716,1.325c-1.1.286-2.17.657-3.254.981a75.937,75.937,0,0,1-8.189,1.947,4.536,4.536,0,0,0-.519.207,3.055,3.055,0,0,1,2.1,1.293,10.327,10.327,0,0,1,1.446,2.154c.245.479.484.961.742,1.433A1.456,1.456,0,0,0,394.681,177.931Zm21.213-32.211a1.064,1.064,0,0,1-.969-.136c-.616-.42-1.28-.771-1.912-1.169a23.662,23.662,0,0,0-3.5-1.824c-1.018-.43-2.026-.894-3.067-1.263a12.872,12.872,0,0,1-3.788-2.169,16.564,16.564,0,0,1-3.67-4.364,2.005,2.005,0,0,0-.477-.512c-.783-.6-1.574-1.191-2.368-1.777a3.459,3.459,0,0,0-.533-.328,1.95,1.95,0,0,0-1.628-.111c.356.411.722.8,1.04,1.218a2.989,2.989,0,0,0,.747.749,6.654,6.654,0,0,1,1.075.942c.536.559,1.041,1.149,1.554,1.732a11.85,11.85,0,0,1,1.149,1.374,5.66,5.66,0,0,0,2.254,1.994,23.092,23.092,0,0,1,3.511,2.321,30.53,30.53,0,0,0,2.8,1.942c1.735,1.063,3.432,2.182,5.06,3.4a46.641,46.641,0,0,0,5.4,3.368c.222.124.467.207.874.381-.186-.311-.262-.462-.361-.6-.353-.482-.731-.947-1.07-1.44A16.766,16.766,0,0,1,415.894,145.72Zm79.8,28.05c0,.114-.022.186,0,.223.532.791,1.073,1.576,1.608,2.365a4,4,0,0,1,.465.759,6.691,6.691,0,0,1,.647,3.472,1.433,1.433,0,0,0,1.283,1.72c.146.029.3.039.442.072a22.58,22.58,0,0,1,2.715.531,2.581,2.581,0,0,1,1.534,1.142,2.9,2.9,0,0,0,.422.438,6.827,6.827,0,0,1,2.713-3.373c-.348-.087-.574-.153-.8-.2-.758-.165-1.513-.341-2.276-.484a3.9,3.9,0,0,1-2.755-1.952c-.393-.667-.811-1.322-1.221-1.98a7.649,7.649,0,0,0-1.665-1.861,2.611,2.611,0,0,0-1.552-.615,9.412,9.412,0,0,1-1.134-.2C495.976,173.805,495.837,173.79,495.69,173.77Zm-94.74-37.895c.262.365.427.6.6.838a13.422,13.422,0,0,0,2.306,2.112,8.069,8.069,0,0,0,2.152,1.26c1.742.707,3.467,1.456,5.2,2.182a4.082,4.082,0,0,0,.47.123,18.2,18.2,0,0,0-3.773-3.294A20.1,20.1,0,0,0,400.95,135.875ZM415.9,163.631c-1.282-.761-2.4-1.436-3.573-2.007a13.271,13.271,0,0,0-3.7-1.406,3.521,3.521,0,0,0,1.288,1.856,11.4,11.4,0,0,0,3.518,1.478c.309.1.64.143.954.237A2.343,2.343,0,0,0,415.9,163.631Zm-44.687,7.8a3.745,3.745,0,0,0,.6-.228,4.487,4.487,0,0,1,3.094-.546c.909.131,1.834.156,2.755.213.146.01.346.077.479-.215a26.649,26.649,0,0,0-3.867-1.09c-.88-.139-1.75-.331-2.627-.494-.22-.042-.445-.062-.716-.1A5.5,5.5,0,0,0,371.213,171.433Zm58.647-4.23a5.587,5.587,0,0,1,1.016.165,2.222,2.222,0,0,1,.751.46,3.938,3.938,0,0,1,.479.711,8.22,8.22,0,0,0,.662-4.255c-1.048.726-1.648,1.856-2.654,2.545C430.03,166.886,429.989,167.009,429.86,167.2Zm-11.183,32.2c.788-.128,1.263-.5,2.367-1.969-1.087.4-2.276.018-3.42.474Zm8.874-91.177a8.614,8.614,0,0,0-.282-3.249,3.888,3.888,0,0,0-.832.793.959.959,0,0,0-.212.917A1.992,1.992,0,0,0,427.552,108.229Z" transform="translate(-362.607 -51.039)" fill="#2c5684"/>
        <path id="パス_1142" data-name="パス 1142" d="M421.974,118.083c.091-.363.166-.743.282-1.107a7.381,7.381,0,0,0,.089-3.291,1.659,1.659,0,0,0-1.03-1.265,6.455,6.455,0,0,0-4.032-.407,10.5,10.5,0,0,0-1.577.538l-1.717-3.015a3.934,3.934,0,0,0,.506-2.935.781.781,0,0,1,0-.089,5.073,5.073,0,0,0-2.162-4.3,2.439,2.439,0,0,1-1.031-1.688,18.952,18.952,0,0,1-.139-5.186,3.033,3.033,0,0,1,.161-.7.875.875,0,0,1,1.381-.46,2.794,2.794,0,0,1,1.23,1.381c.108.267.237.526.444.978a3.024,3.024,0,0,0,.024-.554,20.543,20.543,0,0,1-.186-4.564,9.084,9.084,0,0,1,.477-2.459,15.5,15.5,0,0,0,.573-3.262,2.821,2.821,0,0,0-.341-1.554c-.7.706-2.51,4.52-3.308,6.948l-.719-2.491c.114-.312.233-.682.385-1.038.623-1.488,1.174-3.015,1.907-4.448a19.644,19.644,0,0,1,3.42-4.91,3.373,3.373,0,0,0,.889-1.418c.069-.23.151-.455.207-.687a3.007,3.007,0,0,1,.6-1.473.785.785,0,0,0,.148-.324,9.314,9.314,0,0,1,1.435-2.575,2.194,2.194,0,0,1,2.29-1.1,2.657,2.657,0,0,1,2.222,1.735,7.009,7.009,0,0,1,.454,2.9,1.751,1.751,0,0,1-.326,1.01,6.358,6.358,0,0,1-2.147,1.866c-.6.277-1.188.568-1.777.862a1.853,1.853,0,0,1-1.018.287,1.64,1.64,0,0,0-.435.087c-.433.086-.867.17-1.438.279-.3.407-.687.929-1.065,1.461s-.751,1.077-1.152,1.653a7.35,7.35,0,0,1,1.3,3.025c.1.306.22.606.333.917.516-.045.7-.412.929-.707a11.6,11.6,0,0,0,2.434-4.685l1.606-.655a1.927,1.927,0,0,1,.067.43,16.568,16.568,0,0,1-1.282,5.382,8.529,8.529,0,0,1-1.624,2.454,3.15,3.15,0,0,0-.9,1.72,8.322,8.322,0,0,0-.168,1.332c-.067,2.154-.114,4.307-.166,6.461a5.973,5.973,0,0,0,.48,2.526,24.714,24.714,0,0,0,2.021,4.193c.082.123.161.247.284.435a3.1,3.1,0,0,0,.338-.427,51.693,51.693,0,0,1,3.138-5.436,1.555,1.555,0,0,0,.266-1.167,5.4,5.4,0,0,1,.422-3.412,6.974,6.974,0,0,0,.425-1.179,2.043,2.043,0,0,1,1.424-1.377,10.809,10.809,0,0,1,1.66-.37,1.97,1.97,0,0,1,2.071,1.1,3.166,3.166,0,0,1,.393,1.458,10.19,10.19,0,0,1-.492,3.178,6.36,6.36,0,0,1-1.191,1.883,1.61,1.61,0,0,1-1.547.527,4.109,4.109,0,0,1-1.9-.665c-.307.449-.618.847-.872,1.282a60.484,60.484,0,0,0-3.061,6.187,1.226,1.226,0,0,0-.052.952,25.863,25.863,0,0,1,1.117,4.613c.186,1.181.467,2.347.685,3.523a3.343,3.343,0,0,1,.054.976,1.133,1.133,0,0,1-.653.912A.911.911,0,0,1,421.974,118.083Z" transform="translate(-329.781 -37.744)" fill="#2c5684"/>
        <path id="パス_1143" data-name="パス 1143" d="M424.4,106.358l.551.963a6.744,6.744,0,0,0,.6-.371c1.045-.8,2.08-1.614,3.125-2.416a8.356,8.356,0,0,1,.82-.546,1.082,1.082,0,0,1,.366-.055,1.165,1.165,0,0,1-.41.9c-.756.889-1.54,1.752-2.261,2.669-.758.963-1.461,1.967-2.172,2.965a5.432,5.432,0,0,0-.779,1.893c-.055.228-.047.417.267.484a21.342,21.342,0,0,0,2.468-2.676c.964-1.144,1.893-2.315,2.869-3.447.742-.86,1.53-1.68,2.308-2.508a.674.674,0,0,1,.378-.213c.919-.087,1.839-.153,2.873-.233a11.906,11.906,0,0,1-1.593,1.671c-1.359,1.26-2.772,2.463-4.144,3.707-1.042.944-2.061,1.912-3.081,2.876-.566.534-1.119,1.082-1.666,1.633a1.608,1.608,0,0,0-.207.385c.141.044.24.113.3.087a5.533,5.533,0,0,0,1.544-.879q3.341-2.857,6.713-5.678c.457-.385.941-.737,1.408-1.112.183-.15.354-.316.529-.477.237-.217.472-.438.771-.714a1.266,1.266,0,0,1-.338,1.156c-.58.6-1.112,1.25-1.688,1.856-.286.3-.632.544-.932.831-1.062,1.011-2.133,2.011-3.165,3.051q-1.2,1.212-2.51,2.3c-.731.615-1.408,1.292-2.111,1.937a2.447,2.447,0,0,1-.267.195c-.087-.02-.16-.015-.2-.049a5.067,5.067,0,0,0-3.041-1.179,1.915,1.915,0,0,1-1.309-.642,5.578,5.578,0,0,0-2.785-1.715,3.343,3.343,0,0,0-3.3.909,22.1,22.1,0,0,0-1.467,1.762c-.18-.155-.4-.344-.618-.533s-.445-.381-.7-.6a5.22,5.22,0,0,1,.324-.455,28.077,28.077,0,0,0,2.869-4.331c.644-1.075,1.394-2.085,2.125-3.1a1.855,1.855,0,0,1,.638-.474,12.439,12.439,0,0,0,2.956-2.011.923.923,0,0,1,.647-.247,4.386,4.386,0,0,1,1.97.413c.232-.149.492-.294.726-.472a42.991,42.991,0,0,0,5.08-4.541,1.123,1.123,0,0,0,.343-.7,5.958,5.958,0,0,1,1.045-2.743,3.848,3.848,0,0,1,3.208-1.846,4.464,4.464,0,0,1,2.794.779,2.3,2.3,0,0,1,.884,1.08,6.542,6.542,0,0,1,.511,2.073,2.182,2.182,0,0,1-1.233,2.276c-1.949,1.043-2,1.09-4.174.731-.118-.02-.235-.042-.351-.071a1.872,1.872,0,0,0-1.935.548c-.983,1-2.059,1.91-3.118,2.832-.539.47-1.134.877-1.688,1.332C424.9,105.837,424.664,106.1,424.4,106.358Z" transform="translate(-329.335 -21.812)" fill="#2c5684"/>
        <path id="パス_1144" data-name="パス 1144" d="M386,76.643a2.3,2.3,0,0,0-.244-1.115q-.915-2.384-1.841-4.766a1.253,1.253,0,0,1-.059-.168.488.488,0,0,1,.168-.559.464.464,0,0,1,.586.024,6.732,6.732,0,0,1,1.023.993,4.481,4.481,0,0,0,.833.907,1.971,1.971,0,0,1,.541.9c.58,1.695,1.162,3.392,1.675,5.108a10.17,10.17,0,0,0,.907,2.234c.768,1.317,1.532,2.637,2.34,3.929a7.333,7.333,0,0,0,.991,1.146c.289.3.63.551.921.852q2.767,2.875,5.518,5.767a25.24,25.24,0,0,1,2.474,3.035,5.039,5.039,0,0,0-.591,3.455.894.894,0,0,1-.7-.494,31.662,31.662,0,0,0-2.639-3.051c-.443-.485-.882-.978-1.282-1.5-1.824-2.374-3.786-4.626-5.794-6.844-.341-.376-.665-.769-.988-1.161a13.668,13.668,0,0,0-2.634-2.548,12.2,12.2,0,0,1-1.158-.989,4.111,4.111,0,0,1-.983-1.376,19.988,19.988,0,0,0-2.251-3.865A15.472,15.472,0,0,0,379.2,73a8.145,8.145,0,0,1-.855-.652,1.4,1.4,0,0,1-.359-.5.537.537,0,0,1,.418-.746,1.4,1.4,0,0,1,.62,0,13.61,13.61,0,0,1,2.12.7,4.567,4.567,0,0,1,1.236,1.01c.973,1.015,1.907,2.064,2.861,3.1C385.438,76.114,385.659,76.31,386,76.643Z" transform="translate(-352.184 -38.188)" fill="#2c5684"/>
        <path id="パス_1145" data-name="パス 1145" d="M405.385,117.866a64.8,64.8,0,0,1-3.052-5.78,6.348,6.348,0,0,1-.61-2.5,1.616,1.616,0,0,0-.464-1.124,8.3,8.3,0,0,1-1.7-2.951c.581.265,1.068.459,1.527.706a4.708,4.708,0,0,0,1.685.566,1.455,1.455,0,0,1,1.3.942,5.134,5.134,0,0,0,.433.712,9.01,9.01,0,0,0-.2-3.04,3.483,3.483,0,0,0-.736-.444,3.019,3.019,0,0,1-1.325-1.03c-.391-.449-.8-.885-1.183-1.34a3.963,3.963,0,0,1-.569-.8,31.906,31.906,0,0,1-1.33-2.933,7.267,7.267,0,0,1-.319-1.932c-.051-.655.4-1.094,1.008-.9,1.221.381,2.5.227,3.722.5a3.271,3.271,0,0,1,1.616.689,1.326,1.326,0,0,1,.328,1.893,10.55,10.55,0,0,0-1.008,2.192,4.373,4.373,0,0,0,1.015,4.485,3.885,3.885,0,0,0,.958.647c.2.124.413.228.633.348.025.163.059.306.069.452.1,1.46.188,2.921.3,4.381a1.613,1.613,0,0,1-.324,1.241,7.019,7.019,0,0,0-1.268,2.745C405.723,116.276,405.582,116.971,405.385,117.866Z" transform="translate(-337.981 -20.495)" fill="#2c5684"/>
        <path id="パス_1146" data-name="パス 1146" d="M420.74,78.7a13.387,13.387,0,0,0-4.45.334,4.682,4.682,0,0,1,.064-.662q.441-1.691.907-3.375a1.738,1.738,0,0,1,.228-.583,3.062,3.062,0,0,0,.454-1.873c.094-2.278-.185-4.541-.245-6.812-.017-.657-.062-1.314-.087-1.97a1.3,1.3,0,0,1,.037-.443c.067-.208.222-.391.455-.356a.629.629,0,0,1,.425.262,3.513,3.513,0,0,1,.249.853c.087.44.134.887.22,1.327.049.259.138.509.262.952.129-.306.247-.449.232-.575-.081-.652-.193-1.3-.3-1.95a41.735,41.735,0,0,1-.538-5.528,5.3,5.3,0,0,0-.877-2.7,3.257,3.257,0,0,1-.361-.8.411.411,0,0,1,.267-.509.49.49,0,0,1,.573.126,2.55,2.55,0,0,1,.262.363c.178.275.351.556.554.88.744-.072.974.48,1.177,1.072a36.179,36.179,0,0,1,1.238,4.954c.118.616.212,1.238.291,1.861a8.649,8.649,0,0,1-.007,2.32,9.457,9.457,0,0,0-.029,2.234,9.693,9.693,0,0,1-.126,2.5c-.27,1.712-.549,3.422-.779,5.14a17.916,17.916,0,0,0-.061,1.88C420.772,77.951,420.757,78.274,420.74,78.7Z" transform="translate(-326.113 -48.85)" fill="#2c5684"/>
        <path id="パス_1147" data-name="パス 1147" d="M419.4,85.818c.056-.239.087-.445.151-.642.111-.341.237-.677.368-1.011a46.08,46.08,0,0,0,2.389-9.083,14.727,14.727,0,0,1,1.147-3.761c.667-1.433,1.24-2.909,1.87-4.361.272-.63.59-1.241.877-1.866.375-.813.737-1.633,1.115-2.446a3.178,3.178,0,0,1,.4-.694.452.452,0,0,1,.778.188.716.716,0,0,1,.027.265c-.071.652-.141,1.305-.228,1.954-.242,1.806-.492,3.61-.736,5.416a1.422,1.422,0,0,0-.022.358,23.552,23.552,0,0,1-.128,4.116,8.35,8.35,0,0,1-.368,1.74,12.611,12.611,0,0,1-.521,1.329,1.19,1.19,0,0,1-.173.309,42.837,42.837,0,0,0-2.894,4.193c-.914,1.436-1.78,2.9-2.671,4.349a2.612,2.612,0,0,1-.373.5.457.457,0,0,1-.753-.114A5.586,5.586,0,0,1,419.4,85.818Z" transform="translate(-323.996 -43.724)" fill="#2c5684"/>
        <path id="パス_1148" data-name="パス 1148" d="M420.69,119.412c.383.27.648.455.912.643a1.007,1.007,0,0,1,.428.748,2.6,2.6,0,0,1-.351,2.137c-.2.432-.418.858-.615,1.293a3.71,3.71,0,0,1-1.315,1.555,8.119,8.119,0,0,1-2.4,1.176,1.1,1.1,0,0,1-1.49-.617,4.6,4.6,0,0,1-.454-2.95,3.871,3.871,0,0,0,.013-1.139,5.456,5.456,0,0,1-.04-.89,1.317,1.317,0,0,1,.927-1.189,7.84,7.84,0,0,0,1.717-.937,9.112,9.112,0,0,1,2.263-1.255,46.164,46.164,0,0,1,5.323-1.87,5.466,5.466,0,0,0,.734-.286v-.942a10.315,10.315,0,0,1,2.861-2.3,1.787,1.787,0,0,1,1.221-.123c.5.069.989.22,1.487.323,1,.208,1,.974.781,1.656a2.8,2.8,0,0,1-.4.7,11.867,11.867,0,0,1-2.76,2.785,2.69,2.69,0,0,1-.395.212,1.468,1.468,0,0,1-1.747-.213c-.289-.252-.539-.551-.87-.9A21.381,21.381,0,0,0,420.69,119.412Z" transform="translate(-326.77 -9.31)" fill="#2c5684"/>
        <path id="パス_1149" data-name="パス 1149" d="M415.371,117.254c-1.223-1.253-2.3-2.333-3.343-3.437a5.629,5.629,0,0,0-1.695-1.3,3.8,3.8,0,0,1-.616-.366.557.557,0,0,1-.255-.7.85.85,0,0,0-.292-1.03c-1.626-1.673-3.232-3.365-4.863-5.033a106.014,106.014,0,0,0-9.646-8.71c-.7-.559-1.344-1.189-2.033-1.764-.941-.784-1.907-1.542-2.847-2.327-.781-.648-1.547-1.317-2.313-1.986-.63-.549-1.243-1.119-1.875-1.67-2.029-1.767-4.074-3.518-6.093-5.3-1.974-1.74-3.924-3.511-5.884-5.265a5.014,5.014,0,0,1-1.288-1.478,1.079,1.079,0,0,0-.361-.383,1.253,1.253,0,0,1-.536-.986,4.76,4.76,0,0,1,.208-2.038,2.671,2.671,0,0,1,.138-.331c.18-.359.408-.7.862-.669.477.037.588.44.685.83a9.891,9.891,0,0,1,.25,2.94c-.01.207-.02.415-.032.645.163.171.318.354.492.512,2.51,2.266,5,4.546,7.537,6.783,1.658,1.465,3.38,2.859,5.058,4.3.68.585,1.3,1.235,1.986,1.816,1.025.872,2.081,1.705,3.118,2.562.6.494,1.188,1,1.779,1.507.568.485,1.125.984,1.7,1.465,1.351,1.136,2.713,2.256,4.057,3.4.5.425.954.905,1.441,1.347,1.218,1.105,2.447,2.2,3.662,3.3.24.218.443.479.662.721.2.22.391.452.6.662,1.134,1.109,2.273,2.211,3.407,3.319.192.188.359.4.558.581a5.794,5.794,0,0,0,.815.68,7.228,7.228,0,0,1,1.515,1.251c.257.286.593.5.852.788.664.729,1.312,1.473,1.95,2.224a1.206,1.206,0,0,1,.27.556C415.135,115.474,415.234,116.27,415.371,117.254Z" transform="translate(-356.628 -36.458)" fill="#2c5684"/>
        <path id="パス_1150" data-name="パス 1150" d="M420.922,121.822a9.79,9.79,0,0,0,.087-3.669,2.447,2.447,0,0,1,.5.074,2.887,2.887,0,0,1,.64.319,7.426,7.426,0,0,0,2.5.924,3.446,3.446,0,0,0,2.1-.223c.155-.059.309-.123.6-.239a3.458,3.458,0,0,0-.2,2.293,11.627,11.627,0,0,0,5.374-1.478c-.109-.181-.183-.307-.259-.433a1.233,1.233,0,0,1-.092-1.2,9.353,9.353,0,0,1,.949-1.715,6.851,6.851,0,0,1,2.311-1.811,1.768,1.768,0,0,1,2.095.161,3.154,3.154,0,0,0,.618.353,1.407,1.407,0,0,1,.848,1.275,1.826,1.826,0,0,0,.385,1.243.647.647,0,0,1,.017.764,3.156,3.156,0,0,1-.472.648c-1.036,1.03-2.08,2.058-3.143,3.061a2.265,2.265,0,0,1-.783.417,1.149,1.149,0,0,1-1.367-.378c-.111-.136-.217-.277-.346-.443-.393.091-.768.18-1.146.259a26.159,26.159,0,0,1-5.947.662,15.3,15.3,0,0,1-2.036-.274,1.3,1.3,0,0,1-.959-.887Z" transform="translate(-322.964 -7.97)" fill="#2c5684"/>
        <path id="パス_1151" data-name="パス 1151" d="M434.24,113.7a3.955,3.955,0,0,1-.684,1.891,1.841,1.841,0,0,1-2.051.722,5.142,5.142,0,0,1-1.243-.492,1.512,1.512,0,0,1-.549-.67c-.232-.516-.4-1.062-.608-1.651a5.522,5.522,0,0,0-.579-.054c-.267,0-.536.049-.8.057a1.318,1.318,0,0,1-1.346-.7,1.674,1.674,0,0,0-.207-.247l-1.608.235-.521-.687c.664-.464,1.492-.358,2.182-.645.38-.63.737-1.248,1.126-1.849a1.4,1.4,0,0,1,.5-.492c.477-.242.979-.432,1.477-.635a5.323,5.323,0,0,1,2.632-.407,2.085,2.085,0,0,0,1.356-.333c1.223-.722,1.221-.682,2.57-.284a1.6,1.6,0,0,1,1.146,1.344,7.224,7.224,0,0,1,.113,1.428,2.788,2.788,0,0,1-.534,1.682A4.63,4.63,0,0,1,434.24,113.7Z" transform="translate(-320.844 -12.875)" fill="#2c5684"/>
        <path id="パス_1152" data-name="パス 1152" d="M408.825,106.128l-.407.837c-.186-.141-.353-.244-.494-.375-2.859-2.636-5.691-5.3-8.308-8.177a15.27,15.27,0,0,0-1.241-1.018c-1.406-1.255-2.79-2.533-4.2-3.781a92.181,92.181,0,0,0-7.208-6.056,1.871,1.871,0,0,0-1.213-.469,3.484,3.484,0,0,1-2.088-.712,6.186,6.186,0,0,1-1.964-2.3,3.724,3.724,0,0,1-.212-2.805,4.316,4.316,0,0,1,1.3-1.9,1.076,1.076,0,0,1,1.258-.163A3.248,3.248,0,0,1,386,81.175c.313,1.092.642,2.18.936,3.277a3.5,3.5,0,0,0,.894,1.628c.465.465.921.941,1.4,1.387.744.692,1.574,1.305,2.251,2.056,2.172,2.405,4.739,4.378,7.085,6.59.131.123.269.239.393.366,1.44,1.478,2.849,2.988,4.324,4.43,1.6,1.566,3.269,3.069,4.907,4.6C408.387,105.693,408.575,105.883,408.825,106.128Z" transform="translate(-349.891 -31.979)" fill="#2c5684"/>
        <path id="パス_1153" data-name="パス 1153" d="M423.736,116.232l-3.252.124a3.078,3.078,0,0,1-.3-1.656c.417-.286.89-.59,1.34-.926a16.18,16.18,0,0,0,1.678-1.332,13.966,13.966,0,0,1,1.8-1.463c1.2-.838,2.355-1.744,3.491-2.668a23.966,23.966,0,0,0,3.743-3.731,2.172,2.172,0,0,0,.615-1.885.82.82,0,0,1,.074-.521,8.628,8.628,0,0,1,1.559-2.39,2.767,2.767,0,0,1,2.916-.47,3.3,3.3,0,0,0,.407.19,4.244,4.244,0,0,1,2.333,2.12,2.076,2.076,0,0,1,.126,1.819,3.747,3.747,0,0,1-4.075,2.38,2.718,2.718,0,0,1-1.268-.638c-.223-.2-.455-.381-.714-.595a3.3,3.3,0,0,0-.443.316,60.374,60.374,0,0,1-7.389,6.257,2.374,2.374,0,0,0-.964,1.339c-.178.632-.4,1.253-.63,1.868A7.57,7.57,0,0,1,423.736,116.232Z" transform="translate(-323.464 -18.373)" fill="#2c5684"/>
        <path id="パス_1154" data-name="パス 1154" d="M404.828,101.469l-2.165-.168a48.177,48.177,0,0,1-5.471-6.97,2.284,2.284,0,0,1-2.014-.894,18.592,18.592,0,0,1-1.349-1.556,1.447,1.447,0,0,1-.306-.724c-.089-1.01-.158-2.022-.173-3.034a2.663,2.663,0,0,1,.291-.927c.183-.472.4-.931.579-1.4a2.078,2.078,0,0,1,3.264-1.1,4.146,4.146,0,0,1,1.868,2.837,9.361,9.361,0,0,1-.022,4.09c-.136.578-.366,1.134-.593,1.818.113.186.27.467.449.734a54.5,54.5,0,0,0,5.11,6.578c.18.2.348.408.517.616C404.83,101.388,404.823,101.425,404.828,101.469Z" transform="translate(-341.708 -28.443)" fill="#2c5684"/>
        <path id="パス_1155" data-name="パス 1155" d="M433.312,79.094c.131-1.063.218-2.135.4-3.188a4.547,4.547,0,0,1,1.569-2.644,2.8,2.8,0,0,1,2.6-.61,4.847,4.847,0,0,1,2.61,1.638,2.993,2.993,0,0,1,.613,1.927,5.356,5.356,0,0,1-.773,2.977,11.633,11.633,0,0,1-3.539,3.854c-1.169.778-1.613.647-2.431-.487A6.035,6.035,0,0,1,433.312,79.094Z" transform="translate(-314.541 -36.408)" fill="#2c5684"/>
        <path id="パス_1156" data-name="パス 1156" d="M443.7,91.249c-.255-.081-.484-.136-.7-.223a1.073,1.073,0,0,1-.717-.941A5.423,5.423,0,0,1,445.4,84.7a3.61,3.61,0,0,1,3.024.191,3.119,3.119,0,0,1,1.671,1.668,5.077,5.077,0,0,1,.351,2.891,6.707,6.707,0,0,1-2.646,4.025,4.344,4.344,0,0,1-2.017.9,5.458,5.458,0,0,0-.761.252,1.176,1.176,0,0,1-1.589-1.072,6.356,6.356,0,0,1,.092-1.245C443.563,91.966,443.638,91.621,443.7,91.249Z" transform="translate(-308.462 -28.321)" fill="#2c5684"/>
        <path id="パス_1157" data-name="パス 1157" d="M408.92,113.268a1.8,1.8,0,0,1-1.735.208c-.341-.1-.669-.249-1.01-.356a1.567,1.567,0,0,1-1.168-1.534,7.933,7.933,0,0,1,.386-3.795,4.46,4.46,0,0,0,.185-.595,1.382,1.382,0,0,1,1.628-1.043,2.122,2.122,0,0,1,1.5.884,1.672,1.672,0,0,0,1.063.712,2.287,2.287,0,0,0,1.959-.267,1.858,1.858,0,0,1,2.322.15c.165.128.351.228.506.366a2.248,2.248,0,0,1,.433,3.119,16.271,16.271,0,0,0-.848,1.475,1.969,1.969,0,0,1-1.713,1.245c-.563.035-1.127.116-1.69.107A2.523,2.523,0,0,1,408.92,113.268Z" transform="translate(-333.816 -13.587)" fill="#2c5684"/>
        <path id="パス_1158" data-name="パス 1158" d="M445.7,111.958c-.5-.079-1-.148-1.5-.24a1.055,1.055,0,0,1-.712-.5c-.4-.628-.813-1.253-1.221-1.88a1.23,1.23,0,0,1-.089-1.124,6.316,6.316,0,0,1,4.043-4.262,4.086,4.086,0,0,1,3.978.756,2.906,2.906,0,0,1,1.018,2.654,6.586,6.586,0,0,1-.958,2.683,3.193,3.193,0,0,1-1.666,1.307A8.711,8.711,0,0,1,445.7,111.958Z" transform="translate(-308.578 -15.216)" fill="#2c5684"/>
        <path id="パス_1159" data-name="パス 1159" d="M410.573,115.769a2.969,2.969,0,0,1-.378.207c-.279.1-.564.183-.87.279l-.709-.492c.034-.8.069-1.6.1-2.4.055-1.4.123-2.807.16-4.211a3.4,3.4,0,0,1,.6-1.932,3.9,3.9,0,0,0,.422-4.075,2.115,2.115,0,0,1-.153-.781c-.05-1.584-.1-3.168-.111-4.752a1.149,1.149,0,0,0-.47-1.085,1.6,1.6,0,0,1-.682-1.564,3.25,3.25,0,0,0-.378-1.814,8.829,8.829,0,0,1-.331-1.109c-.215-.566.055-.9.482-1.2a2.063,2.063,0,0,1,1.252-.432,7.36,7.36,0,0,1,3.38.68,1.148,1.148,0,0,1,.675,1.067,2.6,2.6,0,0,1-.06.8,13.139,13.139,0,0,1-.69,2.031,3.96,3.96,0,0,1-1.472,1.54c-.272.18-.553.348-.84.526a4.994,4.994,0,0,0-.055.544c.01,1.525.017,3.052.05,4.578a2.562,2.562,0,0,0,.2.951,2.934,2.934,0,0,1,.262,1.307c-.059,1.4-.133,2.807-.2,4.211-.032.685-.082,1.372-.087,2.059-.007,1.137.032,2.274.02,3.41C410.691,114.672,410.616,115.233,410.573,115.769Z" transform="translate(-331.952 -24.279)" fill="#2c5684"/>
        <path id="パス_1160" data-name="パス 1160" d="M433.2,97.766c-.58-.092-1.107-.175-1.633-.264a1.4,1.4,0,0,1-1.2-1.272,3.67,3.67,0,0,1,.037-1.776,15.02,15.02,0,0,1,1.01-2.673,4.63,4.63,0,0,1,1.811-1.818,10.126,10.126,0,0,1,1.655-.664,1.488,1.488,0,0,1,1.206.144,3.706,3.706,0,0,1,2.236,3.573,4.267,4.267,0,0,1-1.243,2.9,11.925,11.925,0,0,1-1.235,1.03A4.913,4.913,0,0,1,433.2,97.766Z" transform="translate(-316.6 -25.075)" fill="#2c5684"/>
        <path id="パス_1161" data-name="パス 1161" d="M419.832,88.925a1.192,1.192,0,0,1,.455-.81c1.046-1.189,2.135-2.343,3.148-3.563a18.553,18.553,0,0,0,4.2-7.831,16.786,16.786,0,0,1,1.126-3.212,2.679,2.679,0,0,1,.43-.667.481.481,0,0,1,.579-.106.512.512,0,0,1,.3.507.311.311,0,0,1,0,.089,5.123,5.123,0,0,0,.094,2.392,1.373,1.373,0,0,1,.01.447c-.274,1.863-.539,3.728-.84,5.587a7.008,7.008,0,0,1-3.548,5.036q-.69.416-1.4.8a1.587,1.587,0,0,1-.583.217,5.051,5.051,0,0,0-1.55.417.716.716,0,0,1-.343.1A3.278,3.278,0,0,0,419.832,88.925Z" transform="translate(-323.705 -36.324)" fill="#2c5684"/>
        <path id="パス_1162" data-name="パス 1162" d="M408.452,109.081l-1.945.432c.064-1.068.23-2.063.309-3.064.076-.974.072-1.954.061-2.987a4.312,4.312,0,0,1-1.944-.1c-1-.344-1.3-.7-1.329-1.744-.012-.388.018-.778-.007-1.164a2.238,2.238,0,0,1,.707-1.774c.269-.277.563-.529.823-.771,1.236,0,2.429-.015,3.62.005a2.279,2.279,0,0,1,1.712.865,1.347,1.347,0,0,1,.146,1.441,1.63,1.63,0,0,1-.734.877,1.408,1.408,0,0,0-.712,1.262c-.077.862-.114,1.727-.208,2.589C408.8,106.311,408.623,107.672,408.452,109.081Z" transform="translate(-334.745 -19.178)" fill="#2c5684"/>
        <path id="パス_1163" data-name="パス 1163" d="M410.5,112.552c-.38-.123-.526-.359-.484-.642a4.945,4.945,0,0,0-.062-1.426,2.838,2.838,0,0,1,.062-.622c.146-1.609.323-3.215.422-4.826a19.513,19.513,0,0,0-.064-2.6c-.084-1.173.028-1.4,1.1-1.829.106-.044.208-.1.358-.165l-.857-4.245,1.44-1.712c.42,1.167.815,2.221,1.171,3.287a1.162,1.162,0,0,1-.175.936,5.7,5.7,0,0,0,.183,5.958,2.05,2.05,0,0,1,.47,2.071,7.651,7.651,0,0,1-.6,1.87A13.413,13.413,0,0,1,410.5,112.552Z" transform="translate(-330.427 -21.503)" fill="#2c5684"/>
        <path id="パス_1164" data-name="パス 1164" d="M436.311,105.456a5.779,5.779,0,0,1,.141-3.694,7.542,7.542,0,0,1,1.342-2.315,3.2,3.2,0,0,1,2.93-1.216,2.069,2.069,0,0,1,2.017,2,5.4,5.4,0,0,1-2.921,5.139A4.362,4.362,0,0,1,436.311,105.456Z" transform="translate(-312.665 -18.969)" fill="#2c5684"/>
        <path id="パス_1165" data-name="パス 1165" d="M407.676,87.665l-.333,1.54h-1.12a4.9,4.9,0,0,1,0-1.349c.015-.776.045-1.552.06-2.328a5.993,5.993,0,0,1,.936-3.492,3.109,3.109,0,0,1,2.508-1.34,2.312,2.312,0,0,1,1.811.637,2.986,2.986,0,0,1,1.072,3.126,3.6,3.6,0,0,0-.118.707,1.769,1.769,0,0,1-.852,1.3,4.875,4.875,0,0,1-2.434.81A3.806,3.806,0,0,0,407.676,87.665Z" transform="translate(-332.992 -30.882)" fill="#2c5684"/>
        <path id="パス_1166" data-name="パス 1166" d="M421.72,119.528a5.518,5.518,0,0,1,.966.008,18.045,18.045,0,0,0,3.575.148c.269,0,.537,0,.806-.007a2.1,2.1,0,0,1,1.6.393c.123.111.339.113.492.2a3.273,3.273,0,0,1,.734.5.8.8,0,0,1-.319,1.369,3.078,3.078,0,0,1-.88.123c-1.759.071-3.523.087-5.28.208-1.309.089-2.607.311-3.909.472a1.917,1.917,0,0,1-.548.005A9.212,9.212,0,0,0,421.72,119.528Z" transform="translate(-324.296 -4.492)" fill="#2c5684"/>
        <path id="パス_1167" data-name="パス 1167" d="M417.874,108.454c-.106.353-.207.69-.307,1.03-.168.568-.319,1.144-.511,1.705a14.176,14.176,0,0,1-.62,1.562,1.2,1.2,0,0,1-.506.485,7.126,7.126,0,0,1-1.312.566,1.756,1.756,0,0,1-2.15-1.564.949.949,0,0,1,.146-.5c.449-.737.894-1.48,1.384-2.189a2.079,2.079,0,0,0,.479-1.22,1.271,1.271,0,0,1,.477-1.109,2.7,2.7,0,0,1,1.557-.61,1.234,1.234,0,0,1,1.1.8A5.8,5.8,0,0,1,417.874,108.454Z" transform="translate(-328.711 -13.261)" fill="#2c5684"/>
        <path id="パス_1168" data-name="パス 1168" d="M435.725,100.185a13.848,13.848,0,0,1,2.852-1.707c-.113.359-.153.549-.23.722a16.734,16.734,0,0,0-1.109,3.4,5.588,5.588,0,0,0-.1,1.6c.081,1.011.188,2.019.257,3.03a.938.938,0,0,1-.161.578,12.175,12.175,0,0,1-3.118,3.417,1.058,1.058,0,0,1-1.075.15,9.119,9.119,0,0,0-2.049-.613.769.769,0,0,1-.68-.66,1.783,1.783,0,0,1,.5-.16,4.1,4.1,0,0,0,2.456-.981,9.359,9.359,0,0,0,3.01-3.607,3.369,3.369,0,0,0,.306-1.824c-.045-.415-.059-.835-.119-1.246a5.5,5.5,0,0,0-.228-1.045A10.138,10.138,0,0,0,435.725,100.185Z" transform="translate(-316.578 -18.789)" fill="#2c5684"/>
        <path id="パス_1169" data-name="パス 1169" d="M413.334,98.977a1.757,1.757,0,0,1,1.33-1.744c.632-.17,1.252-.38,1.881-.561a2.948,2.948,0,0,1,.7-.144.948.948,0,0,1,1.041.79,2.43,2.43,0,0,1-.03,1.329c-.161.544-.309,1.094-.5,1.628a4.027,4.027,0,0,1-2.337,2.345,1.35,1.35,0,0,1-1.944-1.272c0-.418.008-.838-.015-1.257C413.433,99.7,413.373,99.318,413.334,98.977Z" transform="translate(-328.122 -20.116)" fill="#2c5684"/>
        <path id="パス_1170" data-name="パス 1170" d="M416.461,108.17a3.293,3.293,0,0,1,.973.1,11.485,11.485,0,0,0,2.424.627c.793.158,1.043.541.909,1.332-.165.968-1.732,2.923-3.093,3.1a2.61,2.61,0,0,1-.885-.025,1.039,1.039,0,0,1-.858-1.09c-.025-.507-.044-1.016-.094-1.522A4.038,4.038,0,0,1,416.461,108.17Z" transform="translate(-326.435 -12.2)" fill="#2c5684"/>
        <path id="パス_1171" data-name="パス 1171" d="M430.46,91.131c-.151.879-.3,1.547-.376,2.224-.092.858-.129,1.725-.173,2.587a1.836,1.836,0,0,1-.311,1.094.59.59,0,0,1-.756-.314,8.166,8.166,0,0,0-1.675-1.875Z" transform="translate(-318.717 -23.783)" fill="#2c5684"/>
        <path id="パス_1172" data-name="パス 1172" d="M409.183,87c.968-.3,1.376-1.184,2.063-2.014l-1.05,6.479a.762.762,0,0,1-.759-.133c.012-.731.064-1.443.023-2.148S409.285,87.768,409.183,87Z" transform="translate(-330.944 -27.963)" fill="#2c5684"/>
        <path id="パス_1173" data-name="パス 1173" d="M427.744,113.446l2.438.418c-.113.1-.222.215-.341.312a11.854,11.854,0,0,0-1.29,1.087,3.342,3.342,0,0,1-2.145.921c.294-.533.551-.958.768-1.4C427.379,114.358,427.546,113.915,427.744,113.446Z" transform="translate(-319.236 -8.613)" fill="#2c5684"/>
        <path id="パス_1174" data-name="パス 1174" d="M416.262,112.956c.539-.148,1.048-.272,1.547-.43.477-.151.942-.336,1.466-.526a2.687,2.687,0,0,1-1.683,1.362A1.338,1.338,0,0,1,416.262,112.956Z" transform="translate(-326.132 -9.596)" fill="#2c5684"/>
      </g>
    </g>
  </g>
</svg>
