<svg xmlns="http://www.w3.org/2000/svg" width="40.567" height="40.567" viewBox="0 0 40.567 40.567">
  <g id="image_person" transform="translate(-348.299 -379.962)">
    <path id="楕円形_5" data-name="楕円形 5" d="M18.854-1.429A20.278,20.278,0,0,1,33.2,33.2,20.284,20.284,0,1,1,10.958.165,20.158,20.158,0,0,1,18.854-1.429Zm0,37.708A17.425,17.425,0,0,0,31.175,6.533,17.425,17.425,0,1,0,6.533,31.175,17.311,17.311,0,0,0,18.854,36.279Z" transform="translate(349.728 381.391)" fill="#8e8e8f"/>
    <path id="パス_935" data-name="パス 935" d="M359.069,414.93c-2.368-.453-4.652-.936-5.1-2.051-1.27-3.187,1.938-4.039,2.939-10.253.631-3.913-1.11-9.6-6.827-9.932-.286-.016-.86-.016-1.146,0-5.717.327-7.458,6.019-6.828,9.932,1,6.214,4.209,7.067,2.939,10.253-.445,1.115-2.729,1.6-5.1,2.051-2.645.507-4.251,1.413-4.251,2.319,0,0,4.1,6.4,13.809,6.3s13.809-6.3,13.809-6.3C363.32,416.344,361.714,415.437,359.069,414.93Z" transform="translate(19.526 -4.45)" fill="#8e8e8f"/>
  </g>
</svg>
