<svg xmlns="http://www.w3.org/2000/svg" width="40.653" height="45.777" viewBox="0 0 40.653 45.777">
  <g id="image_like" transform="translate(-230.635 -385.376)">
    <path id="パス_933" data-name="パス 933" d="M263.863,396.906c-2.275-1.452-5.425-.709-7.593,1.6-2.169-2.307-5.319-3.05-7.594-1.6-2.651,1.692-3.409,5.5-1.676,8.972a16.619,16.619,0,0,0,3.867,4.494c1.679,1.5,5.4,4.244,5.4,4.244s3.723-2.743,5.4-4.244a16.619,16.619,0,0,0,3.867-4.494C267.272,402.4,266.514,398.6,263.863,396.906Z" transform="translate(-5.308 -3.537)" fill="#8e8e8f"/>
    <path id="パス_934" data-name="パス 934" d="M236.468,385.376h28.987a5.84,5.84,0,0,1,5.833,5.833v19.358a5.84,5.84,0,0,1-5.833,5.834H257.99l-7.028,14.752L243.934,416.4h-7.465a5.84,5.84,0,0,1-5.833-5.834V391.209A5.84,5.84,0,0,1,236.468,385.376ZM265.455,413.4a2.837,2.837,0,0,0,2.833-2.834V391.209a2.837,2.837,0,0,0-2.833-2.833H236.468a2.837,2.837,0,0,0-2.833,2.833v19.358a2.837,2.837,0,0,0,2.833,2.834h9.359l5.134,10.777L256.1,413.4Z" transform="translate(0 0)" fill="#8e8e8f"/>
  </g>
</svg>
