<svg xmlns="http://www.w3.org/2000/svg" width="181" height="181" viewBox="0 0 181 181">
  <g id="image_logo01" transform="translate(-87.355 -323.69)">
    <path id="パス_1030" data-name="パス 1030" d="M186.46,382.389h14.25c.418,0,.754-.21.754-.525a2.305,2.305,0,0,0-.336-.84c-3.348-3.677-4.354-4.833-7.869-8.3" transform="translate(21.737 10.643)"/>
    <path id="パス_1031" data-name="パス 1031" d="M196.724,358.606a2.106,2.106,0,0,0-.25-.735c-3.433-3.572-4.521-4.727-7.955-8.194-2.014,2.731-4.685,6.287-6.749,9.455h14.118C196.474,359.131,196.724,359.026,196.724,358.606Z" transform="translate(20.698 5.536)"/>
    <line id="線_10" data-name="線 10" x1="0.005" transform="translate(199.626 364.667)"/>
    <path id="パス_1032" data-name="パス 1032" d="M186.3,389.941a44.359,44.359,0,0,1-7.564-6.513l-2.2-2.416c-3.257-3.887-4.559-5.933-7.67-12.081-.495-.978-1.972-1.388-4.387,0,0,0,1.876-.452,2.182,0,.265.393,3.467,8.3,5.777,12.081l1.681,2.416a80.4,80.4,0,0,0,6.408,8.089c7.354,8.3,12.4,9.952,21.326,14.785,3.255-4.938,4.1-3.018,8.4-3.545l.105-1.995C200.164,398.451,194.386,395.824,186.3,389.941Z" transform="translate(16.865 9.604)"/>
    <path id="パス_1033" data-name="パス 1033" d="M193.22,370.426c.336,0,.754-.315.754-.525a1.975,1.975,0,0,0-.335-.735c-3.35-3.467-4.355-4.517-7.7-7.879-1.718,2.53-4.536,6.273-6.49,9.14" transform="translate(20.183 8.109)"/>
    <path id="パス_1034" data-name="パス 1034" d="M182.934,394.191a1.54,1.54,0,0,0-.525-.84c-2.626-2.311-3.467-2.94-6.2-5.146-1.154,1.366-.354,5.146-.354,5.146s1.675,10.414,0,13.281c-.3.52-3.319,1.182-3.319,1.182s3.015.663,3.319,1.184c1.914,3.276,2.168,12.064,0,15.178-.344.493-3.319,1.182-3.319,1.182s3.015.663,3.319,1.184c.491.84,0,3.893,0,3.893,0,.945.316,1.156,1.261,1.156a13.742,13.742,0,0,0,4.348-.525c.629-.21.839-.42.839-1.261-.525-7.984-.839-20.381-.839-33.828C182.724,394.822,182.934,394.612,182.934,394.191Z" transform="translate(18.652 14.073)"/>
    <path id="パス_1035" data-name="パス 1035" d="M131.965,366.188l.63,3.572a51.7,51.7,0,0,1,7.039-.42A34.366,34.366,0,0,0,131.965,366.188Z" transform="translate(9.663 9.195)"/>
    <path id="パス_1036" data-name="パス 1036" d="M123.365,377.97l.63,3.782a41.245,41.245,0,0,1,8.089-.525A44.16,44.16,0,0,0,123.365,377.97Z" transform="translate(7.757 11.805)"/>
    <path id="パス_1037" data-name="パス 1037" d="M166.1,344.774a64.991,64.991,0,0,1-1.891,13.027l-.63,2.416a81.744,81.744,0,0,1-3.677,11.451l-1.051,2.416a83.392,83.392,0,0,1-6.513,12.081l-1.576,2.416c-7.669,11.03-18.517,19.329-30.6,28.048L121,418.1c11.241-5.673,17.229-10.085,25.318-18.49.21,7.669.21,7.669.21,11.661,0,5.673-.105,12.186-.525,29.1,0,.735.315,1.051,1.261,1.051a14.565,14.565,0,0,0,3.926-.525c.629-.21.84-.63.945-1.471,0,0-.41-2.549,0-3.252.307-.524,3.34-1.195,3.34-1.195s-2.993-.7-3.34-1.195c-2.166-3.109-1.911-11.882,0-15.155.307-.524,3.34-1.195,3.34-1.195s-3.033-.669-3.34-1.195c-1.674-2.863,0-13.269,0-13.269l.84-2.416c-2.838-1.681-2.14-1.995-4.556-3.362a81.445,81.445,0,0,0,6.829-8.613l1.681-2.416a95.9,95.9,0,0,0,6.618-12.081l1.049-2.416a82.018,82.018,0,0,0,4.1-11.451l.63-2.416c.527-2.1.947-3.782,1.786-7.354,4.307-1.156,4.938-1.471,4.938-2.416C176.049,346.875,177.758,346.77,166.1,344.774Z" transform="translate(7.047 4.45)"/>
    <path id="パス_1038" data-name="パス 1038" d="M129.041,354.664l.735,3.887a79.974,79.974,0,0,1,8.3-.525A49.56,49.56,0,0,0,129.041,354.664Z" transform="translate(9.015 6.641)"/>
    <path id="パス_1039" data-name="パス 1039" d="M176.822,431.5l-.15-.1c-.261-.178-.553-.3-.822-.461a4.009,4.009,0,0,0-.88-.387,2.23,2.23,0,0,1,.756-.49,3.622,3.622,0,0,1,.848-.413l.144.12c.215.079.379-.1.6-.137a1.3,1.3,0,0,0,.084.15,1.075,1.075,0,0,0,.123.125h.346l.191-.437a.792.792,0,0,0,.569.236c.2-.023.307-.2.45-.327h.349l.066.048.312-.222c.136-.27-.136-.811-.271-.811a5.128,5.128,0,0,0-1.848-.915,12.967,12.967,0,0,0-1.786.666c-.318.127-.638.259-.964.369-.167.057-.335.118-.5.175s-.349.1-.511.156a5.007,5.007,0,0,0-.847.242.148.148,0,0,1-.094.013,1.092,1.092,0,0,0-.513.073,6.047,6.047,0,0,0-.732.192,3.133,3.133,0,0,0-.638.34c-.287.22-.589.42-.9.612a5.99,5.99,0,0,1-.734.426c-.315.141-.639.257-.955.39a1.169,1.169,0,0,0-.36.184c-.1.1-.2.084-.334.078v-2.454a.843.843,0,0,1,.065-.413c.107-.2.062-.441.136-.655a4.069,4.069,0,0,0,.1-.443,1.326,1.326,0,0,0,.236-.533,4.677,4.677,0,0,1,.366-1.032,1.189,1.189,0,0,0,.183-.6c0-.059.049-.117.054-.178.012-.15.1-.282.083-.442a.8.8,0,0,1,.062-.242,12.9,12.9,0,0,0,.338-1.28c.184-.248.1-.578.264-.839.056-.092.029-.233.044-.352a1.172,1.172,0,0,1,.269-.53,5.261,5.261,0,0,0,.3-.484,1,1,0,0,1,.144-.177c.246-.248.492-.493.734-.734,0-.033-.009-.059,0-.077a1.826,1.826,0,0,0,.136-.892c0-.031,0-.06,0-.09-.385-.141-.779-.264-1.178-.373l-.057.364a8.976,8.976,0,0,1-.938,1.011,1.062,1.062,0,0,0-.192.291c-.21.478-.366.976-.6,1.443a5.165,5.165,0,0,1-.461,1.2,3.922,3.922,0,0,1-.166.641c-.078.141-.023.313-.155.447a1.424,1.424,0,0,0-.18.395,3.2,3.2,0,0,1-.205.421c-.106.164-.237.31-.38.494a1.086,1.086,0,0,1-.088-.216c-.029-.215-.056-.431-.067-.647a4.6,4.6,0,0,0-.011-.676,6.139,6.139,0,0,1-.06-1.088.3.3,0,0,0-.021-.093,1.926,1.926,0,0,1-.11-.292,2.567,2.567,0,0,0-.034-.293c-.035-.109-.066-.219-.106-.325s-.122-.189-.123-.285c0-.154-.134-.249-.14-.382a1.559,1.559,0,0,0-.121-.355,3.323,3.323,0,0,1-.14-.513c-.013-.2-.172-.343-.158-.552.013-.188-.121-.354-.138-.551a1.794,1.794,0,0,0-.192-.425c-.087-.216-.246-.392-.338-.6s-.181-.424-.282-.627c-.111-.224-.2-.457-.329-.677-.145-.258-.313-.5-.469-.75-.63-.182-1.011.585-1.141,1.106a2.342,2.342,0,0,0-.075.286,2.846,2.846,0,0,1,.255.547,1.991,1.991,0,0,0,.148.346c.211.442.364.909.539,1.366a5.949,5.949,0,0,1,.222.718c.01.04.039.076.046.116.023.115-.026.23.06.349.06.083-.026.236.073.341.023.024,0,.088,0,.132a4.18,4.18,0,0,0,.078.815,3.737,3.737,0,0,1,.056.752,6.6,6.6,0,0,1,.067,1.087c.131.228.053.476.065.716a3,3,0,0,1-.009.74c-.035.186-.042.366-.059.55s-.064.359-.073.546a1.58,1.58,0,0,1-.144.545,2.648,2.648,0,0,0-.254,1.146c0,.144,0,.287,0,.465-.252-.125-.474-.216-.676-.342a4.276,4.276,0,0,1-.545-.325,5.394,5.394,0,0,0-.531-.341,3.179,3.179,0,0,0-.525-.366c-.164-.066-.215-.238-.387-.292a1.4,1.4,0,0,1-.359-.272c-.315-.244-.622-.5-.952-.726a3.6,3.6,0,0,1-.415-.378.279.279,0,0,1-.072-.17,5.037,5.037,0,0,0-.326-1.184c-.043-.131-.144-.247-.143-.377a1.227,1.227,0,0,0-.143-.418c-.042-.128-.084-.258-.136-.382a2.5,2.5,0,0,0-.172-.332,7.933,7.933,0,0,0-1.222-.687,1.347,1.347,0,0,1,.048.13c.078.258.2.5.3.752a8.014,8.014,0,0,1,.57,1.758c.114.147.017.333.078.474a1.293,1.293,0,0,1,.057.423,1.051,1.051,0,0,1-.243.111,1.156,1.156,0,0,1-.743-.154c-.233-.15-.485-.25-.721-.386a4.13,4.13,0,0,1-.781-.486.846.846,0,0,1-.216-.318c-.12-.3-.228-.6-.341-.906a1.352,1.352,0,0,0-.558-.778c-.3-.175-.563-.41-.884-.558a1.285,1.285,0,0,1-.333-.254,8.061,8.061,0,0,0-.661-.526.961.961,0,0,1-.3-.5l-.285-.271h-.509a2.1,2.1,0,0,0,.264.889c.1.128.254.209.318.376.021.055.121.078.18.122a5.409,5.409,0,0,0,.8.509,2.556,2.556,0,0,1,.29.2c.183.13.371.252.547.391a1.747,1.747,0,0,1,.468.683,2.278,2.278,0,0,0,.257.519,1.239,1.239,0,0,0,.086.558,1.442,1.442,0,0,0,.613.553c.224.114.452.22.671.341a3.083,3.083,0,0,1,.5.34,3.777,3.777,0,0,0,1.163.7.509.509,0,0,0,.38.022c.137-.082.264-.01.385-.066a2.171,2.171,0,0,0,.79.544,2.71,2.71,0,0,1,.5.269c.06.029.094.11.172.205a2.344,2.344,0,0,1-.407.009,1.063,1.063,0,0,0-.622,0,.178.178,0,0,1-.067,0,5.087,5.087,0,0,0-.817.07c-.27,0-.541,0-.811,0a1.134,1.134,0,0,1-.343-.068,5.209,5.209,0,0,1-.831-.2c-.235.048-.451-.071-.682-.072-.137,0-.274-.05-.412-.061a1.5,1.5,0,0,1-.435-.013,3.509,3.509,0,0,0-.465-.1,1.024,1.024,0,0,0-.612.023c-.464.161-.915.346-1.363.547-.274.123-.559.233-.832.359a9.269,9.269,0,0,0-1.07.531h-.373c-.175-.057-.293-.094-.412-.136-.177-.061-.354-.123-.534-.181a3.866,3.866,0,0,0-.618-.215,2.943,2.943,0,0,0-.654-.154,1.092,1.092,0,0,1-.417-.127l-.009,0c-.059.033-.117.068-.175.109-.177.088.87.8,1.042.979.253-.024.41.2.668.224a.669.669,0,0,1-.258.249c.348.144.682.285,1.013.443.134-.057.275-.108.406-.17a3.057,3.057,0,0,0,.905.071,2.261,2.261,0,0,1,.3-.2c.2-.092.381-.226.583-.307.312-.127.594-.323.906-.423a2.332,2.332,0,0,1,.883-.166c.448.031.9.007,1.352.007a1.456,1.456,0,0,1,.567.016c.177.082.381-.033.526.12a1.237,1.237,0,0,1,.525.12,1.515,1.515,0,0,0,.54.078c.31,0,.607.1.92.078s.654,0,.981,0,.632-.011.947,0a1.631,1.631,0,0,1,.779.315c.105.067.279.1.287.276.233.141.429.357.733.354a1.735,1.735,0,0,1,.789.294,1.392,1.392,0,0,1,.216.314c.127.241.242.486.362.731.013.028.046.056.044.082-.021.222.165.4.14.621a.464.464,0,0,0,.044.216.976.976,0,0,1,.094.439.838.838,0,0,0,.061.242c.026.1.046.206.068.31s-.031.232.042.355c.049.086.013.217.028.326s.046.206.065.31a1.315,1.315,0,0,1-.079.644,1.306,1.306,0,0,0-.053.417,1.551,1.551,0,0,1-.379.994,3.223,3.223,0,0,0-.526.864c0,.01-.023.016-.023.023a.915.915,0,0,1-.381.655,2.73,2.73,0,0,1-.6.421,4.835,4.835,0,0,1-.751.313,1.517,1.517,0,0,1-.539.079,2.351,2.351,0,0,1-.529-.106c-.225-.06-.458-.078-.682-.15-.076-.024-.18.046-.274.059a1.725,1.725,0,0,1-.547.07c-.128.162-.355-.029-.485.134,0,0-.022,0-.033,0a4.974,4.974,0,0,0-.784.071c-.259-.01-.519.015-.777-.009a1.357,1.357,0,0,1-.548-.138,2.345,2.345,0,0,0-.682-.227,1.824,1.824,0,0,0-.838-.093,4.457,4.457,0,0,0-.966.193c-.358.006-.713.086-1.092.07-.059.335,1.437.964,1.489.975a.613.613,0,0,0,.187.035,1.116,1.116,0,0,1,.536.1c.121.04.31-.031.376.151.17.006.337.151.5.075a.663.663,0,0,1,.283-.05,13.855,13.855,0,0,0,1.935-.064c.211-.04.431-.01.65-.064a1.946,1.946,0,0,1,.572-.007c.194.012.388.039.581.067a.364.364,0,0,1,.14.067c.2.13.388.263.6.4a2.782,2.782,0,0,0,1.113-.125,3.027,3.027,0,0,1,.39-.118c.131-.038.288-.018.373-.163.183.006.294-.158.459-.2a2.035,2.035,0,0,0,.3-.128h.491c.076.248.252.458.2.735.108.136.022.309.076.442a1.335,1.335,0,0,1,.057.427,5.608,5.608,0,0,1,.343.928,2.859,2.859,0,0,1,.125.589c.026.325.2,3.859.221,3.883-.033.07-.077.117-.076.164a4.8,4.8,0,0,1-.138,1.195c-.073.326-1.141,9.5-1.152,9.6a9.192,9.192,0,0,1-.8,2.275,1.278,1.278,0,0,0-.34.4,4.081,4.081,0,0,1-.683.687,5.564,5.564,0,0,1-.856.468,8.2,8.2,0,0,0-.975.581,10.806,10.806,0,0,1-1.125.467,2.474,2.474,0,0,1-.961.211c-.115.117-1.521.669-1.27.671,1.465.006,4.738-.8,6.2-.811a17.657,17.657,0,0,0,1.99-.662,3.242,3.242,0,0,1,1.737.926,16.773,16.773,0,0,0,2.91,1.232,3.979,3.979,0,0,1-.662-1.145,1.077,1.077,0,0,1,.115-.982,22.979,22.979,0,0,0,2.869,1.07,32.666,32.666,0,0,0,4.558.786,7.791,7.791,0,0,1,1.191.056c.412.07.834,0,1.258.064.546.081-4.123-1.318-4.493-1.422a6.452,6.452,0,0,1-1.439-.59c-.105-.084-.969-.61-1.125-.691a3.277,3.277,0,0,1-.93-.763c-.015-.017-.037-.029-.046-.049-.033-.065-.093-.137-.086-.2.037-.3-.7-2.968-.739-3.144-.093-.395-.343-3.821-.483-4.166-.011-.028-.413-12.145-.406-12.922a19.443,19.443,0,0,1,.061-2.341,3.681,3.681,0,0,0,0-.743,1.484,1.484,0,0,1,.142-.654c.064-.165.148-.323.2-.492.034-.109.07-.217.105-.326l.01,0,.191-.955c.155-.163.376-.367.561-.6a5.718,5.718,0,0,0,.495-.553c.128,0,.117-.133.187-.188s.167-.105.2-.181.2-.059.171-.193c.467-.247.867-.6,1.35-.825a.448.448,0,0,1,.37-.033.51.51,0,0,0,.436-.007.81.81,0,0,1,.336-.082.941.941,0,0,0,.344-.073.978.978,0,0,1,.412-.07c.214.01.429.009.643,0C174.8,431.516,176.693,431.588,176.822,431.5Z" transform="translate(13.004 20.208)"/>
    <path id="パス_1040" data-name="パス 1040" d="M162.336,410.161a1.52,1.52,0,0,0,1.49-.837l-.32-.275.274-.32a1.516,1.516,0,0,0-1.6-.6,1.665,1.665,0,0,0-.315.1,1.73,1.73,0,0,0,.149-.292,1.517,1.517,0,0,0-.336-1.676l-.359.22-.22-.36a1.519,1.519,0,0,0-1.066,1.335,1.689,1.689,0,0,0,0,.324,1.708,1.708,0,0,0-.23-.231,1.517,1.517,0,0,0-1.7-.2l.1.409-.41.1a1.518,1.518,0,0,0,.941,1.427,1.661,1.661,0,0,0,.316.106,1.679,1.679,0,0,0-.3.151,1.516,1.516,0,0,0-.713,1.553l.42.034-.034.42a1.52,1.52,0,0,0,1.648-.453,1.741,1.741,0,0,0,.208-.283,1.679,1.679,0,0,0,.054.347,1.517,1.517,0,0,0,1.256,1.158l.162-.39.39.162a1.515,1.515,0,0,0,.077-1.707,1.73,1.73,0,0,0-.2-.272A1.55,1.55,0,0,0,162.336,410.161Zm-1.694-.861v-.029h0l0,0v0h0l.009.009Z" transform="translate(15.383 18.043)" fill="#999"/>
    <g id="グループ_1418" data-name="グループ 1418" transform="translate(170.311 393.977)">
      <g id="グループ_1417" data-name="グループ 1417" transform="translate(5.001)">
        <path id="パス_1041" data-name="パス 1041" d="M161.757,381.246l.334.638.638-.334.078.073a2.909,2.909,0,0,1,.442,3.245,5.586,5.586,0,0,1-2.723,2.326l-.113.045-.068-.1a5.493,5.493,0,0,1-.909-3.466,2.885,2.885,0,0,1,2.213-2.411Zm.207,1.043-.373-.712a2.654,2.654,0,0,0-1.858,2.148,5.1,5.1,0,0,0,.8,3.14,5.2,5.2,0,0,0,2.447-2.124,2.635,2.635,0,0,0-.3-2.824Z" transform="translate(-159.539 -381.41)" fill="#999"/>
      </g>
      <path id="パス_1042" data-name="パス 1042" d="M157.113,391.291h0a2.31,2.31,0,0,1-1.062-.239l-.095-.049.106-.713-.714-.106-.02-.1a2.908,2.908,0,0,1,1.55-2.883,4.18,4.18,0,0,1,2.042-.455,6.812,6.812,0,0,1,1.527.172l.118.03,0,.121a5.5,5.5,0,0,1-1.3,3.339A3.107,3.107,0,0,1,157.113,391.291Zm-.828-.459a2.08,2.08,0,0,0,.828.159,2.8,2.8,0,0,0,1.939-.806,5.108,5.108,0,0,0,1.2-3.009,6.832,6.832,0,0,0-1.331-.136,3.888,3.888,0,0,0-1.9.418,2.634,2.634,0,0,0-1.417,2.461l.8.118Z" transform="translate(-155.445 -380.196)" fill="#999"/>
      <path id="パス_1043" data-name="パス 1043" d="M157.175,382.844a3.081,3.081,0,0,1,2.1.845A5.576,5.576,0,0,1,160.648,387l.008.121-.117.033a6.758,6.758,0,0,1-1.665.212,4.01,4.01,0,0,1-1.912-.418,2.887,2.887,0,0,1-1.61-2.849l.018-.105.711-.121-.121-.711.094-.051A2.376,2.376,0,0,1,157.175,382.844Zm3.161,4.048a5.188,5.188,0,0,0-1.265-2.984,2.782,2.782,0,0,0-1.9-.764,2.147,2.147,0,0,0-.883.178l.135.792-.793.135a2.656,2.656,0,0,0,1.47,2.431,3.717,3.717,0,0,0,1.769.383A6.716,6.716,0,0,0,160.336,386.891Z" transform="translate(-155.439 -381.059)" fill="#999"/>
      <path id="パス_1044" data-name="パス 1044" d="M161.884,393.06l-.106-.013a2.889,2.889,0,0,1-2.265-2.364,5.5,5.5,0,0,1,.835-3.483l.065-.1.114.043a5.577,5.577,0,0,1,2.771,2.267,3.109,3.109,0,0,1,.291,1.864,2.513,2.513,0,0,1-.664,1.389l-.076.075-.645-.32Zm-1.346-5.593a5.107,5.107,0,0,0-.731,3.155,2.691,2.691,0,0,0,1.9,2.11l.357-.721.72.357a2.632,2.632,0,0,0,.241-2.83A5.181,5.181,0,0,0,160.538,387.468Z" transform="translate(-154.524 -380.109)" fill="#999"/>
      <path id="パス_1045" data-name="パス 1045" d="M164.144,384.939a2.831,2.831,0,0,1,2.517,1.392l.048.1-.5.516.516.5-.046.1a2.844,2.844,0,0,1-2.568,1.444,3.375,3.375,0,0,1-.379-.022,5.5,5.5,0,0,1-3.056-1.871l-.077-.094.076-.1a5.579,5.579,0,0,1,3.013-1.934A3.252,3.252,0,0,1,164.144,384.939Zm2.2,1.433a2.562,2.562,0,0,0-2.2-1.133,2.948,2.948,0,0,0-.419.03,5.183,5.183,0,0,0-2.74,1.728,5.108,5.108,0,0,0,2.776,1.67,3.071,3.071,0,0,0,.345.02,2.577,2.577,0,0,0,2.248-1.178l-.575-.562Z" transform="translate(-154.262 -380.595)" fill="#999"/>
    </g>
    <path id="パス_1046" data-name="パス 1046" d="M190.142,403.375l-.285.708.709.286a2.749,2.749,0,0,1-2.071,2.3,5.411,5.411,0,0,1-3.427-.548,5.492,5.492,0,0,1,1.977-2.851A2.746,2.746,0,0,1,190.142,403.375Z" transform="translate(21.429 17.318)" fill="#999"/>
    <path id="パス_1047" data-name="パス 1047" d="M136.727,415.668a2.725,2.725,0,0,0,2.675-1.5l-.574-.494.492-.574a2.72,2.72,0,0,0-2.871-1.08,2.99,2.99,0,0,0-.566.182,3.114,3.114,0,0,0,.268-.524,2.723,2.723,0,0,0-.6-3.008l-.646.393-.395-.646a2.726,2.726,0,0,0-1.914,2.4,2.982,2.982,0,0,0-.006.581,3.016,3.016,0,0,0-.414-.414,2.722,2.722,0,0,0-3.047-.357l.175.737-.735.175a2.725,2.725,0,0,0,1.687,2.562,2.963,2.963,0,0,0,.569.189,3.009,3.009,0,0,0-.538.272,2.72,2.72,0,0,0-1.28,2.788l.754.061-.061.754a2.723,2.723,0,0,0,2.957-.814,2.942,2.942,0,0,0,.371-.508,3.08,3.08,0,0,0,.1.622,2.725,2.725,0,0,0,2.255,2.08l.292-.7.7.291a2.721,2.721,0,0,0,.139-3.064,3.084,3.084,0,0,0-.353-.489A3,3,0,0,0,136.727,415.668Zm-3.04-1.544v-.054h-.01l.007,0,0,0,.006,0,.016.016Z" transform="translate(8.908 18.551)" fill="#999"/>
    <path id="パス_1048" data-name="パス 1048" d="M188.539,418.308a1.515,1.515,0,0,0,1.489-.837l-.319-.275.274-.319a1.515,1.515,0,0,0-1.6-.6,1.757,1.757,0,0,0-.315.1,1.684,1.684,0,0,0,.149-.292,1.515,1.515,0,0,0-.336-1.675l-.359.219-.22-.36a1.521,1.521,0,0,0-1.066,1.336,1.686,1.686,0,0,0,0,.324,1.579,1.579,0,0,0-.23-.231,1.518,1.518,0,0,0-1.7-.2l.1.41-.41.1a1.519,1.519,0,0,0,.941,1.427,1.633,1.633,0,0,0,.316.105,1.763,1.763,0,0,0-.3.151,1.517,1.517,0,0,0-.713,1.553l.42.034-.034.42a1.518,1.518,0,0,0,1.648-.453,1.619,1.619,0,0,0,.206-.283,1.756,1.756,0,0,0,.055.347,1.516,1.516,0,0,0,1.256,1.158l.162-.388.39.162a1.517,1.517,0,0,0,.077-1.708.178.178,0,1,1,.122-.224Zm-1.694-.86v-.029h0v0l0,0,.009.01Z" transform="translate(21.189 19.848)" fill="#999"/>
    <path id="パス_1049" data-name="パス 1049" d="M182.243,378.391a1.214,1.214,0,0,0-.016-1.365l-.315.12-.12-.315a1.213,1.213,0,0,0-1.033.891,1.271,1.271,0,0,0-.049.26,1.441,1.441,0,0,0-.148-.216,1.211,1.211,0,0,0-1.3-.406l.016.336-.337.016a1.214,1.214,0,0,0,.529,1.258,1.366,1.366,0,0,0,.225.127,1.294,1.294,0,0,0-.249.073,1.21,1.21,0,0,0-.789,1.113l.325.089-.089.325a1.214,1.214,0,0,0,1.361-.114,1.38,1.38,0,0,0,.2-.182,1.226,1.226,0,0,0-.009.268,1.209,1.209,0,0,0,.815,1.094l.184-.281.282.185a1.212,1.212,0,0,0,.312-1.328,1.3,1.3,0,0,0-.118-.254,1.331,1.331,0,0,0,.264.1,1.214,1.214,0,0,0,1.292-.437l-.211-.263.263-.211a1.208,1.208,0,0,0-1.167-.707,1.383,1.383,0,0,0-.265.034A1.415,1.415,0,0,0,182.243,378.391Zm-1.251.859-.021-.012,0,0v0h0v0l.01,0Z" transform="translate(20.007 11.553)" fill="#999"/>
    <path id="パス_1050" data-name="パス 1050" d="M135.026,382.69a2.206,2.206,0,0,1-2.167-1.217l.465-.4-.4-.465a2.2,2.2,0,0,1,2.326-.875,2.475,2.475,0,0,1,.458.148,2.485,2.485,0,0,1-.216-.425,2.2,2.2,0,0,1,.487-2.437l.524.32.319-.524a2.208,2.208,0,0,1,1.551,1.942,2.42,2.42,0,0,1,0,.47,2.409,2.409,0,0,1,.335-.335,2.2,2.2,0,0,1,2.469-.289l-.142.6.6.142a2.208,2.208,0,0,1-1.367,2.075,2.427,2.427,0,0,1-.461.154,2.592,2.592,0,0,1,.435.22,2.2,2.2,0,0,1,1.037,2.259l-.611.05.05.611a2.208,2.208,0,0,1-2.4-.66,2.417,2.417,0,0,1-.3-.412,2.453,2.453,0,0,1-.079.5,2.207,2.207,0,0,1-1.826,1.685l-.237-.566-.566.236a2.2,2.2,0,0,1-.114-2.482,2.549,2.549,0,0,1,.286-.4A2.342,2.342,0,0,1,135.026,382.69Zm2.463-1.251c0-.028,0-.043,0-.043h.007l-.006,0,0,0,0,0-.012.012Z" transform="translate(9.861 11.549)" fill="#999"/>
    <path id="パス_1051" data-name="パス 1051" d="M177.6,358.512a2.636,2.636,0,0,0,2.949-.337l-.327-.655.656-.327a2.636,2.636,0,0,0-2.156-2.04,2.921,2.921,0,0,0-.573-.05,2.953,2.953,0,0,0,.435-.366,2.634,2.634,0,0,0,.591-2.909l-.724.109-.109-.724a2.637,2.637,0,0,0-2.607,1.421,2.75,2.75,0,0,0-.224.516,2.951,2.951,0,0,0-.214-.524,2.632,2.632,0,0,0-2.584-1.461l-.12.722-.723-.12a2.637,2.637,0,0,0,.546,2.917,2.9,2.9,0,0,0,.436.384,2.991,2.991,0,0,0-.581.04,2.634,2.634,0,0,0-2.188,2.006l.65.338-.338.649a2.635,2.635,0,0,0,2.944.384,2.859,2.859,0,0,0,.522-.314,2.948,2.948,0,0,0-.147.591,2.637,2.637,0,0,0,1.233,2.7l.522-.514.513.523a2.634,2.634,0,0,0,1.274-2.681,2.876,2.876,0,0,0-.132-.567A2.868,2.868,0,0,0,177.6,358.512Zm-2.132-2.519.018-.046-.007-.006h.007v0h.006l.007.02Z" transform="translate(18.109 5.861)" fill="#999"/>
    <g id="グループ_1420" data-name="グループ 1420" transform="translate(148.934 360.539)">
      <g id="グループ_1419" data-name="グループ 1419" transform="translate(3.639)">
        <path id="パス_1052" data-name="パス 1052" d="M142.538,353.917l.243.464.466-.243.057.053a2.118,2.118,0,0,1,.321,2.361,4.062,4.062,0,0,1-1.981,1.693l-.082.033-.049-.074a4,4,0,0,1-.662-2.522,2.1,2.1,0,0,1,1.611-1.755Zm.151.759-.271-.518a1.936,1.936,0,0,0-1.353,1.564,3.718,3.718,0,0,0,.58,2.285,3.78,3.78,0,0,0,1.781-1.547,1.918,1.918,0,0,0-.219-2.055Z" transform="translate(-140.925 -354.037)" fill="#999"/>
      </g>
      <path id="パス_1053" data-name="パス 1053" d="M139.159,361.227h0a1.684,1.684,0,0,1-.773-.173l-.069-.036.077-.52-.52-.076-.014-.077a2.115,2.115,0,0,1,1.128-2.1,3.044,3.044,0,0,1,1.486-.331,4.961,4.961,0,0,1,1.111.125l.086.022,0,.088a4,4,0,0,1-.947,2.429A2.26,2.26,0,0,1,139.159,361.227Zm-.6-.334a1.516,1.516,0,0,0,.6.116h0a2.035,2.035,0,0,0,1.411-.586,3.711,3.711,0,0,0,.874-2.189,4.975,4.975,0,0,0-.969-.1,2.832,2.832,0,0,0-1.38.3,1.916,1.916,0,0,0-1.031,1.791l.579.085Z" transform="translate(-137.946 -353.153)" fill="#999"/>
      <path id="パス_1054" data-name="パス 1054" d="M139.205,355.08h0a2.239,2.239,0,0,1,1.528.615,4.057,4.057,0,0,1,1,2.406l.006.088-.085.024a4.924,4.924,0,0,1-1.213.154,2.921,2.921,0,0,1-1.39-.3,2.1,2.1,0,0,1-1.171-2.074l.013-.077.517-.088-.088-.517.068-.037A1.724,1.724,0,0,1,139.205,355.08Zm2.3,2.945a3.775,3.775,0,0,0-.92-2.17,2.018,2.018,0,0,0-1.379-.556h0a1.558,1.558,0,0,0-.642.129l.1.577-.577.1a1.934,1.934,0,0,0,1.069,1.769,2.708,2.708,0,0,0,1.287.278A4.893,4.893,0,0,0,141.5,358.025Z" transform="translate(-137.941 -353.782)" fill="#999"/>
      <path id="パス_1055" data-name="パス 1055" d="M142.631,362.516l-.077-.01a2.1,2.1,0,0,1-1.647-1.721,3.991,3.991,0,0,1,.607-2.535l.048-.074.083.031a4.059,4.059,0,0,1,2.017,1.649,2.119,2.119,0,0,1-.271,2.368l-.055.055-.47-.233Zm-.979-4.07a3.709,3.709,0,0,0-.531,2.3,1.935,1.935,0,0,0,1.385,1.535l.261-.524.524.259a1.92,1.92,0,0,0,.175-2.06A3.77,3.77,0,0,0,141.652,358.446Z" transform="translate(-137.276 -353.09)" fill="#999"/>
      <path id="パス_1056" data-name="パス 1056" d="M144.276,356.6a2.061,2.061,0,0,1,1.831,1.013l.035.07-.368.376.376.366-.033.07a2.067,2.067,0,0,1-1.868,1.051,2.457,2.457,0,0,1-.277-.016,4,4,0,0,1-2.223-1.361l-.056-.068.055-.069a4.06,4.06,0,0,1,2.192-1.408A2.37,2.37,0,0,1,144.276,356.6Zm1.6,1.043a1.865,1.865,0,0,0-1.6-.825,2.152,2.152,0,0,0-.305.022,3.771,3.771,0,0,0-1.993,1.259A3.717,3.717,0,0,0,144,359.319a2.232,2.232,0,0,0,.252.014,1.872,1.872,0,0,0,1.635-.858l-.419-.408Z" transform="translate(-137.085 -353.444)" fill="#999"/>
    </g>
    <path id="パス_1057" data-name="パス 1057" d="M126.941,366.026a1.061,1.061,0,0,0,1.192.024l-.1-.279.279-.1a1.056,1.056,0,0,0-.749-.927.124.124,0,1,1-.032-.174,1.057,1.057,0,0,0,.391-1.125l-.294,0,0-.294a1.06,1.06,0,0,0-1.114.425,1.188,1.188,0,0,0-.116.193,1.143,1.143,0,0,0-.057-.22,1.058,1.058,0,0,0-.949-.721l-.087.281-.281-.087a1.06,1.06,0,0,0,.061,1.191,1.1,1.1,0,0,0,.153.175,1.237,1.237,0,0,0-.233-.015,1.058,1.058,0,0,0-.978.68l.241.17-.17.239a1.06,1.06,0,0,0,1.151.311,1.26,1.26,0,0,0,.225-.1,1.145,1.145,0,0,0-.09.227,1.058,1.058,0,0,0,.344,1.14l.236-.176.176.234a1.056,1.056,0,0,0,.651-1,1.133,1.133,0,0,0-.022-.232A1.2,1.2,0,0,0,126.941,366.026Zm-.712-1.117.01-.018,0,0h0l0,.009Z" transform="translate(7.904 8.453)" fill="#999"/>
    <path id="パス_1058" data-name="パス 1058" d="M115.936,398.639a.775.775,0,0,0,.76-.426l-.164-.14.14-.162a.771.771,0,0,0-.816-.307.817.817,0,0,0-.16.051.9.9,0,0,0,.076-.149.772.772,0,0,0-.171-.854l-.183.112-.112-.184a.776.776,0,0,0-.544.682.828.828,0,0,0,0,.165.9.9,0,0,0-.117-.119.778.778,0,0,0-.866-.1l.05.21-.209.049a.775.775,0,0,0,.479.728.862.862,0,0,0,.161.054.881.881,0,0,0-.151.077.771.771,0,0,0-.364.792l.214.017-.017.215a.772.772,0,0,0,.839-.232.813.813,0,0,0,.106-.144.876.876,0,0,0,.027.177.774.774,0,0,0,.641.59l.082-.2.2.083a.773.773,0,0,0,.039-.871.846.846,0,0,0-.1-.138A.814.814,0,0,0,115.936,398.639Zm-.864-.439v-.015h0l0,0Z" transform="translate(5.597 15.928)" fill="#999"/>
    <path id="パス_1059" data-name="パス 1059" d="M203.45,360.694v1.187h1.187a4.276,4.276,0,0,1-1.648,4.522c-1.989,1.548-5.256,1.2-5.256,1.2s-.336-3.254,1.195-5.256A4.27,4.27,0,0,1,203.45,360.694Z" transform="translate(24.228 7.942)" fill="#999"/>
    <path id="パス_1060" data-name="パス 1060" d="M167.92,390.043l.6.468.468-.6a2.752,2.752,0,0,1,1.654,2.62,5.416,5.416,0,0,1-1.461,3.147A5.494,5.494,0,0,1,166.98,393,2.749,2.749,0,0,1,167.92,390.043Z" transform="translate(17.398 14.45)" fill="#999"/>
    <path id="パス_1061" data-name="パス 1061" d="M144.811,366.6l.39.3.3-.39a1.773,1.773,0,0,1,1.066,1.688,3.491,3.491,0,0,1-.942,2.029,3.543,3.543,0,0,1-1.422-1.726A1.774,1.774,0,0,1,144.811,366.6Z" transform="translate(12.36 9.267)" fill="#999"/>
    <path id="パス_1062" data-name="パス 1062" d="M171.418,366.743l.34-.156-.156-.34a1.345,1.345,0,0,1,1.51-.121,2.643,2.643,0,0,1,1.032,1.346,2.689,2.689,0,0,1-1.66.348A1.344,1.344,0,0,1,171.418,366.743Z" transform="translate(18.404 9.143)" fill="#999"/>
    <path id="パス_1063" data-name="パス 1063" d="M200.927,409.761l.39.3.3-.39a1.776,1.776,0,0,1,1.065,1.689,3.484,3.484,0,0,1-.941,2.029,3.543,3.543,0,0,1-1.422-1.726A1.77,1.77,0,0,1,200.927,409.761Z" transform="translate(24.794 18.829)" fill="#999"/>
    <path id="パス_1064" data-name="パス 1064" d="M148.466,435.42a1.52,1.52,0,0,0,1.49-.837l-.32-.275.275-.32a1.516,1.516,0,0,0-1.6-.6,1.676,1.676,0,0,0-.316.1,1.642,1.642,0,0,0,.149-.292,1.517,1.517,0,0,0-.335-1.676l-.36.22-.219-.36a1.517,1.517,0,0,0-1.066,1.335,1.6,1.6,0,0,0,0,.324,1.709,1.709,0,0,0-.231-.23,1.514,1.514,0,0,0-1.7-.2l.1.41-.409.1a1.517,1.517,0,0,0,.939,1.427.182.182,0,1,1,.018.258,1.516,1.516,0,0,0-.713,1.553l.42.034-.034.42a1.516,1.516,0,0,0,1.647-.453,1.606,1.606,0,0,0,.208-.283,1.683,1.683,0,0,0,.054.347,1.518,1.518,0,0,0,1.257,1.158l.162-.388.388.161a1.517,1.517,0,0,0,.078-1.706,1.672,1.672,0,0,0-.2-.271A1.636,1.636,0,0,0,148.466,435.42Zm-1.693-.86c0-.02,0-.031,0-.031h0l0,0,0,0h0l.009.009Z" transform="translate(12.311 23.639)" fill="#999"/>
    <g id="グループ_1422" data-name="グループ 1422" transform="translate(135.069 442.995)">
      <g id="グループ_1421" data-name="グループ 1421" transform="translate(3.073 6.425)">
        <path id="パス_1065" data-name="パス 1065" d="M130.587,432.021l-.3-.574-.575.3-.07-.066a2.619,2.619,0,0,1-.4-2.918,5.022,5.022,0,0,1,2.448-2.093l.1-.041.061.091a4.941,4.941,0,0,1,.817,3.116,2.6,2.6,0,0,1-1.991,2.169Zm-.185-.938.334.64a2.387,2.387,0,0,0,1.671-1.933,4.583,4.583,0,0,0-.716-2.823,4.672,4.672,0,0,0-2.2,1.911,2.373,2.373,0,0,0,.271,2.54Z" transform="translate(-129.112 -426.797)" fill="#999"/>
      </g>
      <path id="パス_1066" data-name="パス 1066" d="M134.944,422.76h0a2.08,2.08,0,0,1,.955.215l.085.044-.095.642.642.095.018.095a2.618,2.618,0,0,1-1.394,2.595,3.767,3.767,0,0,1-1.837.409,6.136,6.136,0,0,1-1.375-.155l-.106-.027,0-.109a4.95,4.95,0,0,1,1.17-3A2.794,2.794,0,0,1,134.944,422.76Zm.745.413a1.871,1.871,0,0,0-.745-.143h0a2.516,2.516,0,0,0-1.744.725,4.592,4.592,0,0,0-1.079,2.706,6.155,6.155,0,0,0,1.2.122,3.5,3.5,0,0,0,1.706-.375,2.372,2.372,0,0,0,1.274-2.215l-.715-.105Z" transform="translate(-125.404 -421.236)" fill="#999"/>
      <path id="パス_1067" data-name="パス 1067" d="M134.9,430.351h0a2.772,2.772,0,0,1-1.889-.759,5.018,5.018,0,0,1-1.234-2.975l-.007-.109.105-.03a6.074,6.074,0,0,1,1.5-.191,3.608,3.608,0,0,1,1.719.376,2.6,2.6,0,0,1,1.448,2.562l-.016.095-.64.108.108.64-.084.046A2.135,2.135,0,0,1,134.9,430.351Zm-2.843-3.64a4.669,4.669,0,0,0,1.138,2.684,2.5,2.5,0,0,0,1.705.686h0a1.93,1.93,0,0,0,.794-.16l-.121-.713.713-.121a2.391,2.391,0,0,0-1.322-2.186,3.344,3.344,0,0,0-1.592-.344A6.036,6.036,0,0,0,132.055,426.711Z" transform="translate(-125.419 -420.454)" fill="#999"/>
      <path id="パス_1068" data-name="パス 1068" d="M130.476,421.391l.1.012a2.6,2.6,0,0,1,2.035,2.126,4.945,4.945,0,0,1-.75,3.134l-.059.092-.1-.038a5.021,5.021,0,0,1-2.493-2.04,2.794,2.794,0,0,1-.262-1.676,2.269,2.269,0,0,1,.6-1.251l.069-.068.582.289Zm1.21,5.031a4.594,4.594,0,0,0,.656-2.838,2.391,2.391,0,0,0-1.711-1.9l-.321.649-.649-.322a2.37,2.37,0,0,0-.216,2.546A4.665,4.665,0,0,0,131.686,426.422Z" transform="translate(-126.054 -421.537)" fill="#999"/>
      <path id="パス_1069" data-name="パス 1069" d="M128.749,428.391a2.549,2.549,0,0,1-2.264-1.253l-.043-.086.454-.463-.463-.454.041-.087a2.555,2.555,0,0,1,2.309-1.3,3.035,3.035,0,0,1,.343.02,4.944,4.944,0,0,1,2.747,1.683l.069.084-.068.086a5.012,5.012,0,0,1-2.709,1.74A2.922,2.922,0,0,1,128.749,428.391Zm-1.977-1.29a2.306,2.306,0,0,0,1.977,1.02,2.656,2.656,0,0,0,.377-.027,4.656,4.656,0,0,0,2.464-1.555,4.594,4.594,0,0,0-2.5-1.5,2.762,2.762,0,0,0-.312-.018,2.314,2.314,0,0,0-2.021,1.06l.516.506Z" transform="translate(-126.596 -420.796)" fill="#999"/>
    </g>
    <path id="パス_1070" data-name="パス 1070" d="M150.265,347.453l.6.467.468-.6a2.755,2.755,0,0,1,1.654,2.62,5.417,5.417,0,0,1-1.461,3.148,5.494,5.494,0,0,1-2.206-2.678A2.749,2.749,0,0,1,150.265,347.453Z" transform="translate(13.486 5.013)" fill="#999"/>
    <g id="グループ_1424" data-name="グループ 1424" transform="translate(198.141 452.452)">
      <g id="グループ_1423" data-name="グループ 1423" transform="translate(2.495)">
        <path id="パス_1071" data-name="パス 1071" d="M181.377,429.2l.167.319.319-.167.039.037a1.454,1.454,0,0,1,.221,1.619,2.787,2.787,0,0,1-1.359,1.162l-.056.022-.034-.05a2.745,2.745,0,0,1-.454-1.73,1.443,1.443,0,0,1,1.1-1.2Zm.1.521-.186-.356a1.327,1.327,0,0,0-.928,1.073,2.55,2.55,0,0,0,.4,1.567,2.594,2.594,0,0,0,1.222-1.061,1.317,1.317,0,0,0-.15-1.409Z" transform="translate(-180.27 -429.278)" fill="#999"/>
      </g>
      <path id="パス_1072" data-name="パス 1072" d="M179.059,434.21h0a1.156,1.156,0,0,1-.529-.118l-.048-.025.053-.356-.356-.053-.01-.052a1.451,1.451,0,0,1,.773-1.439,2.089,2.089,0,0,1,1.02-.227,3.4,3.4,0,0,1,.762.086l.059.015,0,.061a2.742,2.742,0,0,1-.65,1.666A1.55,1.55,0,0,1,179.059,434.21Zm-.413-.229a1.041,1.041,0,0,0,.412.079h0a1.4,1.4,0,0,0,.968-.4,2.543,2.543,0,0,0,.6-1.5,3.412,3.412,0,0,0-.664-.068,1.943,1.943,0,0,0-.948.209,1.314,1.314,0,0,0-.706,1.228l.4.059Z" transform="translate(-178.228 -428.672)" fill="#999"/>
      <path id="パス_1073" data-name="パス 1073" d="M179.09,429.994h0a1.54,1.54,0,0,1,1.049.421,2.786,2.786,0,0,1,.685,1.651l0,.061-.058.016a3.37,3.37,0,0,1-.832.106,2,2,0,0,1-.953-.209,1.445,1.445,0,0,1-.8-1.422l.009-.053.355-.061-.06-.355.047-.026A1.186,1.186,0,0,1,179.09,429.994Zm1.578,2.02a2.592,2.592,0,0,0-.631-1.49,1.388,1.388,0,0,0-.947-.381h0a1.071,1.071,0,0,0-.44.088l.067.4-.4.068a1.33,1.33,0,0,0,.734,1.213,1.852,1.852,0,0,0,.882.191A3.348,3.348,0,0,0,180.668,432.014Z" transform="translate(-178.224 -429.103)" fill="#999"/>
      <path id="パス_1074" data-name="パス 1074" d="M181.441,435.094l-.053-.007a1.444,1.444,0,0,1-1.13-1.18,2.743,2.743,0,0,1,.417-1.74l.033-.051.057.021a2.785,2.785,0,0,1,1.382,1.132,1.453,1.453,0,0,1-.186,1.624l-.038.037-.323-.16Zm-.672-2.792a2.549,2.549,0,0,0-.365,1.576,1.328,1.328,0,0,0,.95,1.052l.177-.36.36.179a1.317,1.317,0,0,0,.12-1.413A2.591,2.591,0,0,0,180.769,432.3Z" transform="translate(-177.768 -428.629)" fill="#999"/>
      <path id="パス_1075" data-name="パス 1075" d="M182.567,431.039a1.414,1.414,0,0,1,1.258.695l.024.048-.251.258.257.251-.023.048a1.42,1.42,0,0,1-1.282.721,1.688,1.688,0,0,1-.19-.011,2.743,2.743,0,0,1-1.525-.935l-.039-.047.038-.047a2.789,2.789,0,0,1,1.5-.966A1.624,1.624,0,0,1,182.567,431.039Zm1.1.715a1.28,1.28,0,0,0-1.1-.566,1.471,1.471,0,0,0-.207.015,2.6,2.6,0,0,0-1.368.863,2.549,2.549,0,0,0,1.385.834,1.538,1.538,0,0,0,.173.01,1.286,1.286,0,0,0,1.122-.589l-.286-.28Z" transform="translate(-177.637 -428.871)" fill="#999"/>
    </g>
    <path id="パス_1076" data-name="パス 1076" d="M198.818,423.025a2.609,2.609,0,0,0,2.8-.9l-.445-.572.573-.445a2.606,2.606,0,0,0-2.486-1.562,2.928,2.928,0,0,0-.567.061,2.851,2.851,0,0,0,.352-.44,2.6,2.6,0,0,0,.011-2.935l-.682.246-.246-.682a2.607,2.607,0,0,0-2.254,1.881,2.785,2.785,0,0,0-.117.544,2.9,2.9,0,0,0-.309-.468,2.6,2.6,0,0,0-2.789-.917l.023.723-.724.023a2.608,2.608,0,0,0,1.092,2.725,2.8,2.8,0,0,0,.5.287,2.984,2.984,0,0,0-.556.153,2.606,2.606,0,0,0-1.736,2.369l.7.2-.2.7a2.608,2.608,0,0,0,2.929-.2,2.931,2.931,0,0,0,.446-.406,2.91,2.91,0,0,0-.028.6,2.609,2.609,0,0,0,1.717,2.382l.407-.6.6.408a2.6,2.6,0,0,0,.718-2.847,2.9,2.9,0,0,0-.237-.525A2.878,2.878,0,0,0,198.818,423.025Zm-2.557-2.031.01-.05-.009,0h.007l0,0,.006,0,.011.018Z" transform="translate(22.799 20.187)" fill="#999"/>
    <path id="パス_1077" data-name="パス 1077" d="M116.852,414.487l.3.233.235-.3a1.378,1.378,0,0,1,.827,1.312,2.707,2.707,0,0,1-.73,1.575,2.752,2.752,0,0,1-1.1-1.34A1.374,1.374,0,0,1,116.852,414.487Z" transform="translate(6.198 19.881)" fill="#999"/>
    <path id="パス_1078" data-name="パス 1078" d="M157.359,401.742a2.383,2.383,0,0,0,2.339-1.314l-.5-.431.431-.5a2.381,2.381,0,0,0-2.512-.944,2.652,2.652,0,0,0-.495.159,2.607,2.607,0,0,0,.233-.458,2.382,2.382,0,0,0-.526-2.631l-.566.344-.344-.564a2.38,2.38,0,0,0-1.674,2.1,2.615,2.615,0,0,0-.006.508,2.662,2.662,0,0,0-.362-.362,2.382,2.382,0,0,0-2.665-.313l.154.644-.645.154a2.383,2.383,0,0,0,1.477,2.24,2.67,2.67,0,0,0,.5.166,2.639,2.639,0,0,0-.469.237,2.382,2.382,0,0,0-1.121,2.438l.66.054-.053.66a2.382,2.382,0,0,0,2.586-.711,2.616,2.616,0,0,0,.326-.445,2.661,2.661,0,0,0,.084.544,2.385,2.385,0,0,0,1.973,1.819l.255-.611.611.255a2.384,2.384,0,0,0,.122-2.681,2.649,2.649,0,0,0-.309-.426A2.644,2.644,0,0,0,157.359,401.742Zm-2.659-1.351c0-.031,0-.046,0-.046h-.009l.006,0,0,0,0,0,.013.013Z" transform="translate(13.706 15.667)" fill="#999"/>
    <path id="パス_1079" data-name="パス 1079" d="M124.3,389.028a3.027,3.027,0,0,0,2.971-1.669l-.638-.547.547-.638a3.02,3.02,0,0,0-3.188-1.2,3.287,3.287,0,0,0-.629.2,3.383,3.383,0,0,0,.3-.581,3.023,3.023,0,0,0-.668-3.341l-.718.437-.437-.718a3.03,3.03,0,0,0-2.127,2.663,3.252,3.252,0,0,0-.006.645,3.343,3.343,0,0,0-.461-.459,3.024,3.024,0,0,0-3.384-.4l.194.818-.817.194a3.027,3.027,0,0,0,1.874,2.845,3.348,3.348,0,0,0,.633.211,3.3,3.3,0,0,0-.6.3,3.025,3.025,0,0,0-1.423,3.1l.838.068-.068.838a3.028,3.028,0,0,0,3.286-.9,3.376,3.376,0,0,0,.413-.564,3.314,3.314,0,0,0,.108.69,3.027,3.027,0,0,0,2.505,2.31l.324-.776.776.324a3.024,3.024,0,0,0,.155-3.4,3.442,3.442,0,0,0-.392-.542A3.352,3.352,0,0,0,124.3,389.028Zm-3.378-1.716v-.059l-.011,0,.007,0,0,0,.007,0,.017.017Z" transform="translate(5.955 12.471)" fill="#999"/>
    <path id="パス_1080" data-name="パス 1080" d="M162.548,375.647a1.521,1.521,0,0,0,1.49-.837l-.32-.275.275-.32a1.516,1.516,0,0,0-1.6-.6,1.66,1.66,0,0,0-.315.1,1.635,1.635,0,0,0,.149-.291,1.517,1.517,0,0,0-.335-1.676l-.36.22-.22-.36a1.517,1.517,0,0,0-1.066,1.335,1.594,1.594,0,0,0,0,.324,1.792,1.792,0,0,0-.231-.231,1.516,1.516,0,0,0-1.7-.2l.1.41-.409.1a1.516,1.516,0,0,0,.939,1.427,1.731,1.731,0,0,0,.318.106,1.641,1.641,0,0,0-.3.151,1.514,1.514,0,0,0-.713,1.553l.42.034-.034.42a1.517,1.517,0,0,0,1.647-.454,1.73,1.73,0,0,0,.208-.282,1.668,1.668,0,0,0,.054.346A1.52,1.52,0,0,0,161.8,377.8l.161-.39.39.162a1.517,1.517,0,0,0,.078-1.707,1.737,1.737,0,0,0-.2-.272A1.736,1.736,0,0,0,162.548,375.647Zm-1.693-.861a.265.265,0,0,0,0-.029h0l0,0h0l.009.009Z" transform="translate(15.431 10.395)" fill="#999"/>
    <path id="パス_1081" data-name="パス 1081" d="M208.781,385.151a2.11,2.11,0,0,0,2.072-1.164l-.445-.382.382-.445a2.108,2.108,0,0,0-2.226-.837,2.414,2.414,0,0,0-.439.141,2.309,2.309,0,0,0,.208-.406,2.109,2.109,0,0,0-.467-2.332l-.5.305-.305-.5a2.112,2.112,0,0,0-1.483,1.858,2.223,2.223,0,0,0,0,.451,2.348,2.348,0,0,0-.321-.321,2.109,2.109,0,0,0-2.361-.276l.136.57-.57.136a2.113,2.113,0,0,0,1.308,1.985,2.28,2.28,0,0,0,.441.147,2.381,2.381,0,0,0-.417.211,2.109,2.109,0,0,0-.993,2.16l.585.048-.048.585a2.11,2.11,0,0,0,2.292-.632,2.3,2.3,0,0,0,.288-.393,2.3,2.3,0,0,0,.076.481,2.113,2.113,0,0,0,1.748,1.612l.226-.541.541.226a2.109,2.109,0,0,0,.107-2.375,2.347,2.347,0,0,0-.272-.379A2.331,2.331,0,0,0,208.781,385.151Zm-2.356-1.2c0-.027,0-.042,0-.042h0l0,0,0,0,.012.012Z" transform="translate(25.28 12.151)" fill="#999"/>
    <path id="パス_1082" data-name="パス 1082" d="M164.457,400.871l-.259.277.279.258a1.364,1.364,0,0,1-1.368.7,2.68,2.68,0,0,1-1.488-.862,2.729,2.729,0,0,1,1.421-.969A1.364,1.364,0,0,1,164.457,400.871Z" transform="translate(16.234 16.742)" fill="#999"/>
    <path id="パス_1083" data-name="パス 1083" d="M150.71,412.221l-.194-.05-.05.193a.717.717,0,0,1-.667-.461,1.415,1.415,0,0,1,.028-.906,1.436,1.436,0,0,1,.806.418A.719.719,0,0,1,150.71,412.221Z" transform="translate(13.599 19.123)" fill="#999"/>
    <path id="パス_1084" data-name="パス 1084" d="M169.4,407.662l-.193.05-.051-.194a.722.722,0,0,0-.667.461,1.419,1.419,0,0,0,.028.908,1.436,1.436,0,0,0,.806-.418A.719.719,0,0,0,169.4,407.662Z" transform="translate(17.74 18.352)" fill="#999"/>
    <path id="パス_1085" data-name="パス 1085" d="M164.967,413.292l.194.05.05-.193a.717.717,0,0,1,.667.461,1.415,1.415,0,0,1-.028.906,1.436,1.436,0,0,1-.806-.418A.719.719,0,0,1,164.967,413.292Z" transform="translate(16.955 19.6)" fill="#999"/>
    <path id="パス_1086" data-name="パス 1086" d="M208.295,402.449a1.059,1.059,0,0,0,1.191.026l-.1-.279.279-.1a1.057,1.057,0,0,0-.748-.927,1.189,1.189,0,0,0-.226-.051,1.1,1.1,0,0,0,.193-.122,1.056,1.056,0,0,0,.391-1.125l-.293,0,0-.293a1.058,1.058,0,0,0-1.113.425,1.146,1.146,0,0,0-.117.193,1.107,1.107,0,0,0-1.005-.941l-.087.281-.281-.087a1.058,1.058,0,0,0,.06,1.19,1.112,1.112,0,0,0,.153.176,1.232,1.232,0,0,0-.233-.015,1.056,1.056,0,0,0-.977.68l.239.17-.169.239a1.058,1.058,0,0,0,1.149.311,1.114,1.114,0,0,0,.225-.1,1.17,1.17,0,0,0-.089.227,1.055,1.055,0,0,0,.344,1.141l.235-.176.177.234a1.058,1.058,0,0,0,.651-1,1.223,1.223,0,0,0-.022-.232A1.134,1.134,0,0,0,208.295,402.449Zm-.713-1.115.011-.018,0,0h0v0h0v.009Z" transform="translate(25.929 16.523)" fill="#999"/>
    <path id="パス_1087" data-name="パス 1087" d="M133.923,401.98a.761.761,0,0,1-.746-.419l.16-.138-.138-.16a.761.761,0,0,1,.8-.3.891.891,0,0,1,.159.051.924.924,0,0,1-.076-.147.76.76,0,0,1,.169-.839l.181.11.11-.181a.761.761,0,0,1,.534.669.8.8,0,0,1,0,.162.948.948,0,0,1,.116-.116.758.758,0,0,1,.85-.1l-.049.205.205.049a.761.761,0,0,1-.47.715.833.833,0,0,1-.159.053.861.861,0,0,1,.149.077.756.756,0,0,1,.358.777l-.21.017.017.211a.763.763,0,0,1-.826-.227.829.829,0,0,1-.1-.142.851.851,0,0,1-.027.173.762.762,0,0,1-.629.58l-.082-.2-.2.082a.76.76,0,0,1-.038-.855.9.9,0,0,1,.1-.137A.768.768,0,0,1,133.923,401.98Zm.848-.431a.068.068,0,0,1,0-.015h0l0,0Z" transform="translate(9.931 16.677)" fill="#999"/>
    <path id="パス_1088" data-name="パス 1088" d="M163.635,355.437l-.024.377-.379-.026a1.365,1.365,0,0,0,.428,1.476,2.683,2.683,0,0,0,1.648.493,2.731,2.731,0,0,0-.268-1.7A1.363,1.363,0,0,0,163.635,355.437Z" transform="translate(16.574 6.806)" fill="#999"/>
    <path id="パス_1089" data-name="パス 1089" d="M123.29,410.211a.7.7,0,0,0,.685-.385l-.148-.126.127-.148a.7.7,0,0,0-.737-.277.776.776,0,0,0-.145.048.824.824,0,0,0,.07-.134.7.7,0,0,0-.155-.771l-.165.1-.1-.165a.7.7,0,0,0-.491.614.864.864,0,0,0,0,.149.731.731,0,0,0-.106-.106.7.7,0,0,0-.781-.092l.045.188-.189.045a.7.7,0,0,0,.432.656.713.713,0,0,0,.147.049.863.863,0,0,0-.138.07.7.7,0,0,0-.329.715l.193.016-.015.193a.7.7,0,0,0,.757-.208.761.761,0,0,0,.1-.131.769.769,0,0,0,.026.159.7.7,0,0,0,.578.534l.075-.18.18.075a.7.7,0,0,0,.035-.785.81.81,0,0,0-.09-.125A.728.728,0,0,0,123.29,410.211Zm-.779-.4a.061.061,0,0,0,0-.013h0l0,0Z" transform="translate(7.277 18.537)" fill="#999"/>
    <path id="パス_1090" data-name="パス 1090" d="M150.249,355.717l-.093.228.228.093a.887.887,0,0,1-.671.741,1.745,1.745,0,0,1-1.1-.182,1.773,1.773,0,0,1,.641-.916A.887.887,0,0,1,150.249,355.717Z" transform="translate(13.351 6.837)" fill="#999"/>
    <g id="グループ_1426" data-name="グループ 1426" transform="translate(172.794 376.314)">
      <g id="グループ_1425" data-name="グループ 1425" transform="translate(0.851)">
        <path id="パス_1091" data-name="パス 1091" d="M158.584,366.909l.026,0a.717.717,0,0,1,.551.6,1.37,1.37,0,0,1-.226.863l-.017.025-.028-.011a1.386,1.386,0,0,1-.679-.58.721.721,0,0,1,.11-.808l.019-.018.159.083Zm.305,1.4a1.273,1.273,0,0,0,.2-.782.66.66,0,0,0-.462-.535l-.094.177-.177-.092a.653.653,0,0,0-.075.7A1.287,1.287,0,0,0,158.89,368.309Z" transform="translate(-158.175 -366.95)" fill="#999"/>
      </g>
      <path id="パス_1092" data-name="パス 1092" d="M159.792,369.411a.776.776,0,0,1-.536-.222,1.37,1.37,0,0,1-.324-.832v-.03l.029-.007a1.691,1.691,0,0,1,.38-.043,1.043,1.043,0,0,1,.51.114.725.725,0,0,1,.385.719l0,.026-.177.027.027.178-.024.012A.574.574,0,0,1,159.792,369.411Zm-.783-1.025a1.274,1.274,0,0,0,.3.75.7.7,0,0,0,.484.2A.516.516,0,0,0,160,369.3l-.03-.2.2-.03a.657.657,0,0,0-.352-.614.971.971,0,0,0-.473-.1A1.7,1.7,0,0,0,159.009,368.386Z" transform="translate(-157.148 -366.648)" fill="#999"/>
      <path id="パス_1093" data-name="パス 1093" d="M159.777,367.307a.592.592,0,0,1,.279.065l.023.013-.03.178.178.03,0,.026a.722.722,0,0,1-.4.71,1,1,0,0,1-.477.1,1.681,1.681,0,0,1-.414-.053l-.029-.008,0-.03a1.394,1.394,0,0,1,.342-.825A.767.767,0,0,1,159.777,367.307Zm.22.119a.535.535,0,0,0-.22-.044.692.692,0,0,0-.472.19,1.3,1.3,0,0,0-.315.744,1.669,1.669,0,0,0,.363.042.924.924,0,0,0,.441-.1.664.664,0,0,0,.367-.605l-.2-.033Z" transform="translate(-157.152 -366.863)" fill="#999"/>
      <path id="パス_1094" data-name="パス 1094" d="M158.552,369.852l-.079-.161-.161.081-.019-.019a.726.726,0,0,1-.091-.81,1.392,1.392,0,0,1,.69-.566l.028-.011.016.026a1.369,1.369,0,0,1,.208.868.72.72,0,0,1-.564.589Zm-.046-.262.089.18a.653.653,0,0,0,.475-.526,1.272,1.272,0,0,0-.182-.786,1.3,1.3,0,0,0-.62.517.658.658,0,0,0,.059.7Z" transform="translate(-157.328 -366.626)" fill="#999"/>
      <path id="パス_1095" data-name="パス 1095" d="M158.073,367.829h0a.8.8,0,0,1,.116.009,1.392,1.392,0,0,1,.751.482l.019.024-.019.023a1.37,1.37,0,0,1-.761.467.842.842,0,0,1-.094.005.709.709,0,0,1-.641-.36l-.011-.024.128-.126-.126-.129.012-.024A.707.707,0,0,1,158.073,367.829Zm.788.513a1.3,1.3,0,0,0-.683-.431.732.732,0,0,0-.105-.008h0a.64.64,0,0,0-.547.282l.14.144-.143.14a.642.642,0,0,0,.561.294.769.769,0,0,0,.085,0A1.272,1.272,0,0,0,158.862,368.342Z" transform="translate(-157.478 -366.747)" fill="#999"/>
    </g>
    <path id="楕円形_9" data-name="楕円形 9" d="M82.522-.375A83.506,83.506,0,0,1,99.228,1.309,82.444,82.444,0,0,1,128.87,13.783,83.137,83.137,0,0,1,158.9,50.254a82.48,82.48,0,0,1,4.83,15.561,83.7,83.7,0,0,1,0,33.412,82.444,82.444,0,0,1-12.473,29.642A83.138,83.138,0,0,1,114.789,158.9a82.481,82.481,0,0,1-15.561,4.83,83.7,83.7,0,0,1-33.412,0,82.444,82.444,0,0,1-29.642-12.473A83.138,83.138,0,0,1,6.14,114.789a82.482,82.482,0,0,1-4.83-15.561,83.7,83.7,0,0,1,0-33.412A82.444,82.444,0,0,1,13.783,36.173,83.137,83.137,0,0,1,50.254,6.14a82.481,82.481,0,0,1,15.561-4.83A83.506,83.506,0,0,1,82.522-.375Zm0,165.043A82.754,82.754,0,0,0,99.077,163a81.694,81.694,0,0,0,29.373-12.36A82.388,82.388,0,0,0,158.213,114.5,81.73,81.73,0,0,0,163,99.077a82.951,82.951,0,0,0,0-33.112,81.695,81.695,0,0,0-12.36-29.373A82.388,82.388,0,0,0,114.5,6.83,81.729,81.729,0,0,0,99.077,2.044a82.951,82.951,0,0,0-33.112,0A81.695,81.695,0,0,0,36.593,14.4,82.387,82.387,0,0,0,6.83,50.547,81.729,81.729,0,0,0,2.044,65.966a82.951,82.951,0,0,0,0,33.112A81.694,81.694,0,0,0,14.4,128.45a82.387,82.387,0,0,0,36.142,29.763A81.73,81.73,0,0,0,65.966,163,82.754,82.754,0,0,0,82.522,164.668Z" transform="translate(95.333 331.668)"/>
    <path id="楕円形_10" data-name="楕円形 10" d="M89.5-1A91.163,91.163,0,0,1,107.738.839,90.01,90.01,0,0,1,140.1,14.457a90.761,90.761,0,0,1,32.788,39.816,90.052,90.052,0,0,1,5.274,16.989,91.372,91.372,0,0,1,0,36.476A90.01,90.01,0,0,1,164.543,140.1a90.761,90.761,0,0,1-39.816,32.788,90.052,90.052,0,0,1-16.989,5.274,91.372,91.372,0,0,1-36.476,0A90.01,90.01,0,0,1,38.9,164.543,90.761,90.761,0,0,1,6.112,124.727,90.052,90.052,0,0,1,.839,107.738a91.372,91.372,0,0,1,0-36.476A90.01,90.01,0,0,1,14.457,38.9,90.761,90.761,0,0,1,54.273,6.112,90.052,90.052,0,0,1,71.262.839,91.163,91.163,0,0,1,89.5-1Zm0,179a89.16,89.16,0,0,0,17.837-1.8,88.009,88.009,0,0,0,31.644-13.316,88.761,88.761,0,0,0,32.065-38.938,88.047,88.047,0,0,0,5.156-16.611,89.373,89.373,0,0,0,0-35.674,88.009,88.009,0,0,0-13.316-31.644A88.761,88.761,0,0,0,123.948,7.954,88.047,88.047,0,0,0,107.337,2.8a89.373,89.373,0,0,0-35.674,0A88.009,88.009,0,0,0,40.019,16.114,88.761,88.761,0,0,0,7.954,55.052,88.047,88.047,0,0,0,2.8,71.663a89.373,89.373,0,0,0,0,35.674A88.009,88.009,0,0,0,16.114,138.98a88.761,88.761,0,0,0,38.938,32.065A88.047,88.047,0,0,0,71.663,176.2,89.16,89.16,0,0,0,89.5,178Z" transform="translate(88.355 324.69)"/>
  </g>
</svg>
