<svg xmlns="http://www.w3.org/2000/svg" width="179" height="260.908" viewBox="0 0 179 260.908">
  <g id="image_logo02" transform="translate(-870.741 -1511.642)">
    <g id="グループ_1434" data-name="グループ 1434" transform="translate(686.141 1476.254)">
      <g id="グループ_1429" data-name="グループ 1429" transform="translate(206.199 101.67)">
        <g id="グループ_1428" data-name="グループ 1428">
          <path id="パス_1096" data-name="パス 1096" d="M261.019,168.851c-.057.036-.131.058-.163.107a9.436,9.436,0,0,1-2.564,2.39c-.547.385-1.108.751-1.68,1.093a2.827,2.827,0,0,1-.833.31c-.266.056-.44-.131-.434-.4a.726.726,0,0,1,.381-.687c.2-.109.407-.215.607-.33a1.938,1.938,0,0,0,.779-.66,2.191,2.191,0,0,1,.5-.471,9.722,9.722,0,0,0,1.711-1.891.9.9,0,0,0,.159-.477,3.352,3.352,0,0,0-.339.262,21.065,21.065,0,0,1-3.831,2.942,10.446,10.446,0,0,1-2.532,1.091c-.244.071-.486.145-.722.236a1.281,1.281,0,0,1-.742.075,2.878,2.878,0,0,0-.543,0c-.286,0-.446-.145-.42-.423a1.323,1.323,0,0,0-.058-.674.348.348,0,0,1,.145-.425c.125-.1.282-.157.412-.25a1.3,1.3,0,0,0,.416-.35,2.9,2.9,0,0,1,.823-.819,16.121,16.121,0,0,0,2.227-2.195c-.153.066-.3.141-.46.2-.174.06-.353.1-.531.155a1.23,1.23,0,0,1-.266.068.4.4,0,0,1-.4-.222.364.364,0,0,1,.073-.445,2.161,2.161,0,0,1,.428-.346c.331-.207.674-.4,1.009-.6a3.547,3.547,0,0,0,.682-.467c.64-.658,1.255-1.343,1.876-2.022a.61.61,0,0,0,.073-.181c-.168-.109-.254.042-.369.095a2.663,2.663,0,0,1-.494.228.363.363,0,0,1-.434-.457,4.017,4.017,0,0,1,.184-.477,4.027,4.027,0,0,0-.432-.05,2.062,2.062,0,0,1-1.126-.282,1.014,1.014,0,0,0-1.118.018,30.819,30.819,0,0,1-3.155,1.4,9.05,9.05,0,0,1-1.507.5,2.822,2.822,0,0,1-1.638-.038c-.107-.036-.218-.056-.357-.091-.773.858-1.715,1.526-2.457,2.418a2.529,2.529,0,0,0-.539,2.44c.2.755.454,1.5.639,2.257a10.927,10.927,0,0,1,.359,2.8,10.108,10.108,0,0,1-.169,1.575,10.51,10.51,0,0,0-.117,2.477,2.414,2.414,0,0,0,1.329,2.118,3.988,3.988,0,0,1,.565.393c.49.383.964.787,1.463,1.158a4.012,4.012,0,0,0,.728.391c2.742,1.264,5.552,2.368,8.392,3.395a27.3,27.3,0,0,0,4.283,1.347,18.67,18.67,0,0,0,5.641.29,7.584,7.584,0,0,0,2.1-.668,11.511,11.511,0,0,1,1.555-.554,3.438,3.438,0,0,1,3.543,1.176,3.772,3.772,0,0,1,.379.493c.405.588.813,1.174,1.2,1.77.327.5.645,1.007.944,1.524a2.624,2.624,0,0,0,1.444,1.407.478.478,0,0,1,.23.147.966.966,0,0,0,1.126.28,3.881,3.881,0,0,0,1.923-1.037c.244-.244.486-.491.716-.749a1.436,1.436,0,0,1,1.356-.521c.091.014.184.018.274.03a1.472,1.472,0,0,0,1.408-.532,8.965,8.965,0,0,0,1.261-1.724,9.33,9.33,0,0,1,2.346-2.871c.46-.385.914-.775,1.358-1.178a4.88,4.88,0,0,1,1.912-1.073c.795-.238,1.588-.483,2.379-.729a5.885,5.885,0,0,1,2.191-.221,8.686,8.686,0,0,0,2.34-.119,4.791,4.791,0,0,1,1.033-.083,6.851,6.851,0,0,0,3.244-.848,1.7,1.7,0,0,0,.611-.536,8.911,8.911,0,0,0,1.438-3.181,10.678,10.678,0,0,0,.1-3.7,7.3,7.3,0,0,0-.448-1.875c-.042-.1-.1-.2-.173-.332a5.547,5.547,0,0,1-2,.558,7.4,7.4,0,0,0-1.134.3,11,11,0,0,1-2.288.517c-.617.079-1.229.2-1.842.3a19.444,19.444,0,0,1-7.15-.135,3.153,3.153,0,0,0-1.166.006,5.27,5.27,0,0,1-.686.085.416.416,0,0,1-.464-.326c-.036-.2.057-.483.252-.518.478-.083.849-.467,1.35-.459a3.722,3.722,0,0,0,1.588-.429,15.721,15.721,0,0,0,2.875-1.782,4.213,4.213,0,0,0,.583-.586c.341-.375.664-.767,1.011-1.136a2.177,2.177,0,0,0,.654-1.264,1.438,1.438,0,0,1,.619-1.033c.147-.111.293-.224.44-.336a1.051,1.051,0,0,1,1.164-.147c.141.064.282.181.444.028,0-.042.016-.1,0-.129-.291-.441-.591-.876-.878-1.319a4.768,4.768,0,0,0-1.511-1.492,9.2,9.2,0,0,0-2.114-1.013c-.44-.135-.859-.334-1.291-.491-1.061-.387-2.126-.761-3.186-1.152a24.257,24.257,0,0,1-4.374-2.056c-.194-.119-.379-.252-.605-.4l.68-.848c.2.115.383.207.555.312a2.966,2.966,0,0,0,2.112.431,19.913,19.913,0,0,1,2-.121,10.707,10.707,0,0,0,1.372-.111,5.349,5.349,0,0,1,2.77.375c.809.27,1.6.6,2.391.91a3.371,3.371,0,0,0,1.283.227c.692,0,1.384.018,2.074.008a5.484,5.484,0,0,0,.96-.095,1.581,1.581,0,0,1,1.009.1c.25.117.525.177.775.294a9.33,9.33,0,0,1,1.162.6,11.843,11.843,0,0,0,2.98,1.581c.371.113.712.326,1.075.471.619.248,1.245.481,1.87.717a1.091,1.091,0,0,0,.809-.014c.408-.161.827-.294,1.227-.473a13.038,13.038,0,0,1,6.141-1.069,12.062,12.062,0,0,0,2.671-.246c.137-.022.27-.06.406-.085a3.279,3.279,0,0,0,2.08-1.22c1.1-1.359,2.306-2.638,3.462-3.953q.454-.519.878-1.067a3.885,3.885,0,0,0,.674-1.118,3.268,3.268,0,0,1,.333-.6c.521-.87,1.041-1.74,1.572-2.6a3.853,3.853,0,0,0,.522-1.343,29.416,29.416,0,0,0,.684-4.5,24.142,24.142,0,0,0-.734-6.842q-.3-1.1-.607-2.2a2.94,2.94,0,0,0-1.3-1.8,7.976,7.976,0,0,1-.785-.638c-.058.32-.1.606-.163.886a7.766,7.766,0,0,1-.222.8,7.569,7.569,0,0,1-.412,1.019,8.391,8.391,0,0,1-1.376,1.971,7.513,7.513,0,0,0-.875,1.317,1.16,1.16,0,0,0-.1.326c-.135.534-.272,1.067-.4,1.6-.071.29-.287.389-.543.463-.531.153-1.065.3-1.582.489-.625.232-1.235.505-1.848.767-.4.173-.807.344-1.2.54a10.14,10.14,0,0,0-.952.55,2.026,2.026,0,0,0-.8.993A5.111,5.111,0,0,1,316,145.722a1.833,1.833,0,0,1-.571.375c-.615.258-1.233.519-1.868.721a34.575,34.575,0,0,0-4.4,1.832c-.373.179-.757.338-1.144.485a3.914,3.914,0,0,1-1.559.264c-.3-.012-.6-.014-.9,0a10.456,10.456,0,0,1-2.614-.213c-.089-.018-.18-.036-.268-.058a1.507,1.507,0,0,0-1.475.334,8.028,8.028,0,0,1-1.067.763,1.711,1.711,0,0,1-.684.306,16.947,16.947,0,0,1-3.655.119c-1.374-.153-2.744-.34-4.115-.505a6.337,6.337,0,0,0-.829-.044c-1.061.016-2.12.05-3.181.06a4.5,4.5,0,0,1-2.429-.719c.256-.066.446-.113.631-.167,1.307-.375,2.621-.723,3.914-1.136.831-.268,1.618-.675,2.449-.942a18.933,18.933,0,0,0,3.613-1.865,6.085,6.085,0,0,1,.813-.354c.149-.058.321-.07.462-.143a4.288,4.288,0,0,1,3.036-.215,5.344,5.344,0,0,0,3.946-.534,8.037,8.037,0,0,0,3.581-3.894,3.664,3.664,0,0,0,.089-2.815,6.219,6.219,0,0,0-2.261-2.968,1.976,1.976,0,0,0-.472-.28,6.756,6.756,0,0,0-4.592-.348,2.687,2.687,0,0,0-.575.226,13.206,13.206,0,0,0-2.189,1.558,5.291,5.291,0,0,0-1.434,2.628,16.426,16.426,0,0,0-.571,2.626,1.215,1.215,0,0,1-.2.505,7.535,7.535,0,0,1-.708,1.021,2.629,2.629,0,0,1-.761.574c-1.148.588-2.294,1.186-3.47,1.712-1.323.588-2.679,1.1-4.061,1.56-.089-.175.046-.264.1-.375a7.536,7.536,0,0,0,.575-2.195c.044-.342.083-.685.111-1.029a.928.928,0,0,0-.032-.4.775.775,0,0,1,.232-.874c.744-.787,1.5-1.564,2.245-2.348a7.311,7.311,0,0,1,1.348-1.071,14.055,14.055,0,0,1,2.663-1.289,25.1,25.1,0,0,0,2.306-1.093,2.724,2.724,0,0,0,1.17-1.325,11.123,11.123,0,0,0,.69-1.8,3.2,3.2,0,0,0-.169-2.483c-.1-.181-.163-.381-.244-.572a3.041,3.041,0,0,0-2.481-1.951c-.611-.091-1.227-.139-1.894-.213.071-.072.121-.135.182-.185a17.449,17.449,0,0,0,3.46-3.455,3.115,3.115,0,0,1,1.158-.85c.771-.413,1.576-.761,2.372-1.126a1.366,1.366,0,0,1,.587-.177,5.78,5.78,0,0,0,2.153-.437q.687-.236,1.348-.536a3.252,3.252,0,0,0,1.5-1.279,7.562,7.562,0,0,1,.674-.874,1.915,1.915,0,0,0,.43-1c.079-.66.182-1.323.216-1.987a3.233,3.233,0,0,0-.131-1.156,19,19,0,0,0-.758-1.774,2.63,2.63,0,0,0-.864-1.059c-.656-.469-1.3-.958-1.983-1.379a3.044,3.044,0,0,0-1.564-.368c.121-.066.238-.143.363-.2a11.394,11.394,0,0,1,3.419-.8,36.228,36.228,0,0,1,3.8-.173c1.105,0,2.211-.125,3.317-.143a16.25,16.25,0,0,1,7.563,1.647,17.79,17.79,0,0,1,1.644,1.017,1.2,1.2,0,0,0,.615.282.9.9,0,0,1,.438.181,40.426,40.426,0,0,1,4.642,3.594c.486.459,1,.894,1.444,1.387a14.992,14.992,0,0,1,3.381,6.107c.095.332.192.664.315.987a9.229,9.229,0,0,1,.529,3.461,1.659,1.659,0,0,1-.894,1.528,7.886,7.886,0,0,0-1.515,1.033c.024.081.024.143.053.161a1.827,1.827,0,0,1,.857,1.424c.169,1.325.351,2.648.522,3.971.059.457.117.914.157,1.371a41.057,41.057,0,0,1-.1,8.549,28.365,28.365,0,0,1-.464,3.348c-.24.983-.519,1.957-.779,2.936a.555.555,0,0,1-.042.131,26.539,26.539,0,0,1-1.41,2.763c-.363.5-.678,1.043-1.013,1.564a.871.871,0,0,1-.978.487c-.129.161-.252.3-.357.443a47.809,47.809,0,0,1-3.758,4.51,27.445,27.445,0,0,1-7.289,5.531c-.527.286-1.057.568-1.584.85A18.965,18.965,0,0,1,309.8,169.2a5.988,5.988,0,0,1-2.4.183.687.687,0,0,0-.516.129,2.776,2.776,0,0,0-1.2,1.7c.113.127.238.288.385.425a5.714,5.714,0,0,1,1.652,3.05c.063.292.109.59.186.878a5.273,5.273,0,0,1,.1,2.124,11.525,11.525,0,0,0-.1,1.236,3.525,3.525,0,0,1-.28,1.273c-.234.552-.444,1.113-.712,1.647-.351.7-.746,1.373-1.132,2.056a1.759,1.759,0,0,1-.96.733,49.692,49.692,0,0,1-4.995,1.373,9.318,9.318,0,0,0-3.024,1.311,3.247,3.247,0,0,1-.529.326,2.272,2.272,0,0,0-1.091,1.113,1.718,1.718,0,0,1-.771.757,7.479,7.479,0,0,1-2.5.781,10.166,10.166,0,0,0-2,.513,3.962,3.962,0,0,0-2.14,1.768,18.355,18.355,0,0,0-1.122,2.052,1.611,1.611,0,0,1-1.178.882,4.72,4.72,0,0,1-.749.125,7.264,7.264,0,0,0-3.054,1.017,4.08,4.08,0,0,1-3.123.513c-.226-.054-.45-.109-.678-.141a12.684,12.684,0,0,1-4.448-1.637c-.72-.409-1.475-.761-2.227-1.105-1.634-.751-3.276-1.478-4.914-2.219-.882-.4-1.747-.832-2.641-1.2-1.128-.465-2.265-.916-3.419-1.311a31.586,31.586,0,0,1-5.056-2.39c-1.089-.6-2.165-1.23-3.234-1.869a7.068,7.068,0,0,1-1.061-.767,3.5,3.5,0,0,0-.985-.622c-.809-.334-1.61-.689-2.413-1.035a6.888,6.888,0,0,1-1.88-1.275c-.442-.4-.9-.781-1.372-1.148a.977.977,0,0,0-.993-.1,7.177,7.177,0,0,0-2.8,1.726,4.457,4.457,0,0,1-2.687,1.424,8.174,8.174,0,0,1-2.818.044,42.419,42.419,0,0,1-4.872-1.007,22.5,22.5,0,0,1-4.349-1.756c-.2-.107-.4-.232-.611-.326-1.753-.775-3.371-1.8-5.062-2.7-.855-.453-1.676-.969-2.5-1.476-2.3-1.413-4.591-2.825-6.873-4.265-.914-.576-1.793-1.214-2.679-1.836a43.581,43.581,0,0,0-3.758-2.455,10.873,10.873,0,0,1-2.457-1.776,9.148,9.148,0,0,1-2.064-3.155c-.169-.429-.337-.858-.486-1.293-.6-1.724-1.374-3.369-2.1-5.036-.432-.991-.831-2-1.239-3a9.035,9.035,0,0,1-.418-2.092,10,10,0,0,1,.506-5.163,11.671,11.671,0,0,1,.7-1.5,13.15,13.15,0,0,1,3.7-4.416,8.844,8.844,0,0,1,1.12-.588,1.518,1.518,0,0,0,.135-.842c-.01-.552-.02-1.105-.052-1.657a5.607,5.607,0,0,1,.781-3.306c.19-.314.341-.65.494-.944a16.909,16.909,0,0,1-.8-1.659c-.571-1.6-1.087-3.228-1.644-4.837-.345-1-.7-2-1.089-2.98a25,25,0,0,1-1.854-6.7c-.129-1.214-.361-2.41-.478-3.622a10.558,10.558,0,0,1,.2-3.022,46.981,46.981,0,0,1,1.021-4.651c.111-.375.232-.747.379-1.109.456-1.132.974-2.239,1.382-3.387a20.065,20.065,0,0,1,2.832-4.961c.135-.185.291-.36.416-.552a10.2,10.2,0,0,1,3.278-3.117c.295-.181.583-.37.88-.55a12.665,12.665,0,0,1,5.578-1.673c.228-.022.462-.022.688-.06a2.2,2.2,0,0,1,1.465.079,2.99,2.99,0,0,0,1.253-1.311,24.473,24.473,0,0,1,1.975-3.24c.256-.381.426-.819.69-1.2a21.658,21.658,0,0,1,2.75-3.272,7.066,7.066,0,0,1,1.114-.811,3.547,3.547,0,0,1,1.3-.417,9.8,9.8,0,0,1,3.226.222,31.855,31.855,0,0,1,6.813,1.774,20.063,20.063,0,0,1,2.245,1.067,24.588,24.588,0,0,1,4.113,2.664q1.359,1.124,2.725,2.237a.981.981,0,0,0,.216.095c.059-.187.115-.356.163-.53a12.009,12.009,0,0,1,1.249-2.986c.43-.707.8-1.452,1.265-2.138a18.477,18.477,0,0,1,1.436-1.852,30.347,30.347,0,0,1,4.293-3.892,16.225,16.225,0,0,1,3.351-2.06,15.885,15.885,0,0,0,4.62-3.111,3.525,3.525,0,0,1,1.233-.743,42.868,42.868,0,0,1,4.783-1.363,37.317,37.317,0,0,1,3.863-.761q.956-.142,1.916-.252a5.336,5.336,0,0,1,.621,0c.389,0,.781.016,1.17-.006a1.163,1.163,0,0,1,.837.248c.339.278.67.564,1.013.834a1.874,1.874,0,0,1,.714,1.144c.073.358.19.709.28,1.041a6.505,6.505,0,0,0,3.383.9c1.628.147,3.26.272,4.892.4.6.048,1.194.115,1.794.135a8.618,8.618,0,0,1,3.881,1.14A22.268,22.268,0,0,1,294.9,77.48a15.074,15.074,0,0,1,3.559,5.3,50.225,50.225,0,0,1,2.308,6.868,29.621,29.621,0,0,1,.718,4.774,39.842,39.842,0,0,1,.058,6.761c-.071.779-.159,1.558-.3,2.326a20.427,20.427,0,0,1-1.709,5.237,3.492,3.492,0,0,1-.849,1.154,6.83,6.83,0,0,0-2.257,4.81,8.33,8.33,0,0,1-.478,2.217q-.611,1.649-1.3,3.27c-.18.419-.468.791-.682,1.2a8.423,8.423,0,0,1-2.052,2.483c-.981.84-1.878,1.778-2.883,2.583a11.18,11.18,0,0,1-4.295,2.146.925.925,0,0,1-.474.01,8.393,8.393,0,0,0-2.324-.294c-.04,0-.079-.038-.173-.089a2.246,2.246,0,0,1,.192-.318c.238-.282.5-.546.73-.83a2.784,2.784,0,0,1,2.324-1,7.134,7.134,0,0,0,1.507-.131,6.882,6.882,0,0,0,3.494-2.114,3.044,3.044,0,0,0,.9-1.369,15.717,15.717,0,0,0,.295-1.623,5.49,5.49,0,0,0-.359-2.5,4.09,4.09,0,0,0-1.68-2.046,4.611,4.611,0,0,0-.855-.449,3.818,3.818,0,0,0-2.768-.1c-.214.072-.43.141-.74.244.335-.644.623-1.206.914-1.768.8-1.552,1.676-3.071,2.336-4.7.044-.107.1-.207.137-.316a6.126,6.126,0,0,1,2.592-3.129,18.736,18.736,0,0,0,2.953-2.386,5.7,5.7,0,0,0,1.906-4.426,5.615,5.615,0,0,0-2.2-4.361,4.917,4.917,0,0,0-3.369-1.011,7.7,7.7,0,0,0-1.3.135,5.474,5.474,0,0,0-3.423,2.618,4.908,4.908,0,0,0-.775,2.954c.048.6.115,1.19.19,1.784.093.729.172,1.464.317,2.183.095.471.212.932.266,1.418a7.939,7.939,0,0,1-.208,2.324c-.115.656-.232,1.315-.391,1.961a6.978,6.978,0,0,1-.436,1.232c-.25.544-.551,1.063-.829,1.595-.446.856-.884,1.716-1.34,2.567-.47.87-.916,1.758-1.455,2.585a10.436,10.436,0,0,1-1.245,1.383,20.56,20.56,0,0,1-3.25,2.674,1.966,1.966,0,0,1-.944.381,6.517,6.517,0,0,0-2.736.89,1.027,1.027,0,0,1-.165.048.693.693,0,0,1,.008-.876c.246-.334.519-.648.771-.979.448-.584.894-1.17,1.331-1.762.412-.556.809-1.119,1.218-1.675a1.664,1.664,0,0,0,.345-.664c.133-.652.294-1.3.438-1.953a2.507,2.507,0,0,0,0-.421l-1.444,1.037c0-.151,0-.256,0-.36.03-.5.079-1.009.089-1.514a1.529,1.529,0,0,1,.24-.842,7.743,7.743,0,0,0,1.041-2.322c.109-.423.254-.836.391-1.252a6.622,6.622,0,0,0,.41-2.088,2.73,2.73,0,0,1,.837-1.985c.488-.489.968-.987,1.479-1.452a8.451,8.451,0,0,0,1.985-2.459,9.606,9.606,0,0,0,.8-2.491,17.343,17.343,0,0,1,1.2-3.52,2.154,2.154,0,0,1,.654-.88.877.877,0,0,1,1.2-.066c.113.07.218.157.385.28.115-.473.21-.892.321-1.307a12.808,12.808,0,0,1,.391-1.323c.523-1.351,1.075-2.692,1.606-4.043.167-.427.311-.864.44-1.3a4.49,4.49,0,0,0,.068-.717,2.676,2.676,0,0,0-.375.31c-.609.811-1.21,1.627-1.813,2.442a1.974,1.974,0,0,0-.188.29c-1.368,2.682-3.04,5.209-4.091,8.06a24.32,24.32,0,0,1-2.086,4.279c-.359.588-.775,1.142-1.182,1.7a1.59,1.59,0,0,1-.448.421.462.462,0,0,1-.746-.437,1.422,1.422,0,0,1,.02-.207c.294-1.77.6-3.54.732-5.332a6.09,6.09,0,0,1,1.188-3.048c.208-.3.418-.608.6-.928a9.437,9.437,0,0,0,1.235-3.2c.131-.793.347-1.571.41-2.38a3.839,3.839,0,0,1,.811-2.024A16.047,16.047,0,0,1,285.1,83.13a1.573,1.573,0,0,0,.42-.465,2.641,2.641,0,0,0-.351.137q-.878.48-1.751.975a9.465,9.465,0,0,0-2.132,1.633,22.6,22.6,0,0,0-2.774,3.52,18.4,18.4,0,0,1-1.481,1.818,1.63,1.63,0,0,1-.492.372.461.461,0,0,1-.732-.459,1.889,1.889,0,0,1,.1-.54c.167-.479.337-.956.537-1.422.456-1.057.932-2.1,1.394-3.157a2.148,2.148,0,0,0,.165-.526,28.263,28.263,0,0,0,.468-3.419,14.8,14.8,0,0,1,.432-3.073c.139-.58.24-1.172.353-1.76a3.488,3.488,0,0,0-.5-2.384,2.625,2.625,0,0,0-.976-.858.432.432,0,0,0-.325-.06,6.133,6.133,0,0,1-1.578.159.837.837,0,0,0-.688.379,3.218,3.218,0,0,0-.543,1.182,16.611,16.611,0,0,0-.533,2.984c-.008.431-.188.658-.44.7s-.464-.149-.619-.548a1.251,1.251,0,0,1-.085-.264,9.007,9.007,0,0,0-.857-2.322,15.1,15.1,0,0,1-.635-1.752,3.169,3.169,0,0,1-.095-.747c-.014-.252,0-.5,0-.719a1,1,0,0,0-.767-.364,22.191,22.191,0,0,0-5.443-.207,12.1,12.1,0,0,0-4.953,1.627.574.574,0,0,0-.224.157,2.932,2.932,0,0,1-1.18.926q-1.979,1.205-3.97,2.39a1.384,1.384,0,0,1-.492.242,2.4,2.4,0,0,0-1.148.592c-.444.332-.867.687-1.317,1.011-.428.31-.878.586-1.313.888-.141.1-.262.23-.452.4.214.129.359.225.51.31a1.189,1.189,0,0,1,.6,1.73,7.7,7.7,0,0,1-.575.942c-.111.171-.244.328-.379.507.054.159.1.31.157.459a30.933,30.933,0,0,1,1.386,4.983c.345,1.762.638,3.532.96,5.3.155.838.335,1.669.492,2.507.137.723.274,1.446.387,2.173.161,1.023.315,2.048.446,3.075.1.775.157,1.554.24,2.394-.276.113-.575.215-.857.352s-.563.31-.894.5a10.777,10.777,0,0,1-1.043-2.177c-.278-.854-.539-1.713-.8-2.571a1,1,0,0,1-.034-.4c.089-.695.19-1.387.294-2.132.837,1.532,1.493,3.119,2.326,4.649a1.985,1.985,0,0,0,.03-.36c-.038-.413-.069-.828-.141-1.234-.315-1.744-.52-3.5-.934-5.231-.309-1.3-.462-2.628-.7-3.94-.216-1.178-.42-2.358-.694-3.522-.29-1.232-.656-2.444-1-3.665a6.258,6.258,0,0,0-.248-.606c-.224.079-.416.141-.6.213a1.388,1.388,0,0,1-1.471.006,1.114,1.114,0,0,0-.291.809,4.257,4.257,0,0,0,.26,2.235c.2.443.359.9.575,1.331a6.528,6.528,0,0,1,.629,2.734c.024.715.036,1.428.032,2.142a1.437,1.437,0,0,0,.309,1.059c-.4-.091-.682-.177-.968-.211a7.741,7.741,0,0,0-.87-.006c-.165-.209-.351-.413-.5-.638a5.311,5.311,0,0,0-1.13-1.2c-.952-.765-1.87-1.573-2.814-2.346-.444-.366-.924-.689-1.378-1.043a8.636,8.636,0,0,1-1.166-.971,2.622,2.622,0,0,0-1.112-.656.425.425,0,0,0-.577.234,4.016,4.016,0,0,0-.153.385c-.22.58-.452,1.156-.654,1.744a1.743,1.743,0,0,0-.087.675,15.682,15.682,0,0,0,.21,1.921c.192.973.353,1.945.466,2.93a18.033,18.033,0,0,0,.914,3.89c.135.391.262.787.361,1.19a.623.623,0,0,0,.482.519,3.453,3.453,0,0,0,1.975.056,3.07,3.07,0,0,1,2.469.316,1.25,1.25,0,0,1,.2,2.122,2.371,2.371,0,0,1-1.118.513,1.666,1.666,0,0,0-.587.169,2.625,2.625,0,0,1-1.364.433c-.038,0-.075.044-.165.1a10.028,10.028,0,0,0,1.457,2.545,5.107,5.107,0,0,0,2.221,1.556c0-.37.016-.689,0-1a25.579,25.579,0,0,1,.026-3.383,12.958,12.958,0,0,1,.716-3.437A2.23,2.23,0,0,0,245.9,99.3a7.307,7.307,0,0,1-.448-1.3,2.381,2.381,0,0,1-.069-.817,1.516,1.516,0,0,1,1.448-1.42,3.108,3.108,0,0,1,2.1.54,1.693,1.693,0,0,1,.73,2.108,2.637,2.637,0,0,1-.888,1.371,6.4,6.4,0,0,1-2,1.1,16.8,16.8,0,0,0-.884,5.2,63.288,63.288,0,0,0,.5,8.406c.208,1.643.4,3.3.75,4.911a63.948,63.948,0,0,0,1.814,6.588,2.617,2.617,0,0,0,.145.308c.2-.081.143-.238.147-.352a24.7,24.7,0,0,0-.1-3.725,12.247,12.247,0,0,1-.034-2,5.084,5.084,0,0,0-.293-2.038,1.755,1.755,0,0,1,.115-1.526c.214-.409.442-.809.65-1.22a1.464,1.464,0,0,1,1.668-.826,2.978,2.978,0,0,0,1.079-.04c.157-.028.313-.073.472-.1a.579.579,0,0,1,.761.409,4.719,4.719,0,0,1,0,3.7,2.579,2.579,0,0,1-1.39,1.279.81.81,0,0,1-.789-.107c-.171-.1-.339-.205-.6-.364l.069.91c.056.781.133,1.562.165,2.344a2.246,2.246,0,0,0,.948,1.83,3.421,3.421,0,0,1,1.329,1.705c.1.282.262.538.375.815.085.2.137.419.24.749-.551-.31-1-.538-1.414-.811-.133-.089-.188-.3-.272-.463-.2-.362-.363-.741-.587-1.085a1.3,1.3,0,0,0-.841-.568,7.305,7.305,0,0,0-.21,2.036l-1.265.191c-.4-.443-.8-.854-1.16-1.3a1.89,1.89,0,0,1-.27-.628,27.641,27.641,0,0,1-1.073-4.21,3.284,3.284,0,0,1-.593-.334,1.973,1.973,0,0,1-.363-.5,4.883,4.883,0,0,0-1.626-1.474,23.266,23.266,0,0,1-2.251-2.036.825.825,0,0,1-.218-.7q.015-1.069.032-2.14a3.548,3.548,0,0,0-1.269-2.93,6.608,6.608,0,0,0-1.723-1.128,3.76,3.76,0,0,0-1.747-.344c-.159.01-.321,0-.482,0a2.183,2.183,0,0,1-.549-.884,7.821,7.821,0,0,0-.876-1.641c-.654-1-1.281-2.026-1.967-3.006-1.174-1.681-2.384-3.336-3.577-5-.174-.244-.349-.489-.5-.747a2.124,2.124,0,0,0-1.2-.995c-.545-.177-1.109-.3-1.668-.435-.2-.048-.41-.064-.609-.119a1.85,1.85,0,0,1-1.434-1.514c-.067-.338-.141-.679-.18-1.021a1.877,1.877,0,0,1,1.263-1.993,6.194,6.194,0,0,1,3.214-.141,1.373,1.373,0,0,1,.922.669A2.287,2.287,0,0,1,229.788,94a3.063,3.063,0,0,0,.418,1.919,17.749,17.749,0,0,0,1.741,2.654,47.559,47.559,0,0,1,2.913,3.942,8.906,8.906,0,0,1,.958,1.909c.052.163.077.37.367.407a1.325,1.325,0,0,0,.063-.308c-.02-.435-.034-.874-.091-1.3a40.6,40.6,0,0,0-.823-4.128,23.85,23.85,0,0,1-.539-4.728c-.054-1.611-.123-3.22-.184-4.83a1.372,1.372,0,0,0-.369-1.073,1.027,1.027,0,0,1-.2-.5,4.989,4.989,0,0,0-1.408-2.334,3.588,3.588,0,0,1-1.043-1.593.785.785,0,0,0-.228-.407,3.423,3.423,0,0,1-.765-.971,1.041,1.041,0,0,0-1.019-.576.468.468,0,0,1-.206-.006c-.484-.224-1.035-.2-1.521-.383a9.459,9.459,0,0,0-3.331-.467.783.783,0,0,0-.7.356.8.8,0,0,1-.357.312,4.409,4.409,0,0,0-1.214.876.55.55,0,0,0-.21.268,4.964,4.964,0,0,0-.369,1.657,5.924,5.924,0,0,0,.18,1.017,1.594,1.594,0,0,0,.319.521c.365.445.734.888,1.122,1.315a3.555,3.555,0,0,1,.734,3.113,1.08,1.08,0,0,1-1.1.958c-.367.018-.736-.012-1.105-.026a13.976,13.976,0,0,1-2.945-.37,1.334,1.334,0,0,0-.94.089,4.713,4.713,0,0,1-2.419.453,2.163,2.163,0,0,0-.8.149q-2.457.819-4.906,1.665a5.845,5.845,0,0,0-1.007.447,3.316,3.316,0,0,1-1.144.467,1.363,1.363,0,0,0-.787.4,24.416,24.416,0,0,0-3.809,4.454,5.166,5.166,0,0,0-.807,2.533c-.008.23-.048.459-.058.689a1.651,1.651,0,0,0,.018.479c.6,2.291,1.124,4.607,1.9,6.85.226.65.545,1.269.831,1.9a1.27,1.27,0,0,0,.264.4,7.451,7.451,0,0,1,1.049,1.446,11.122,11.122,0,0,0,2.1,2.374c1.321,1.115,2.617,2.259,3.9,3.411a26.871,26.871,0,0,0,4.933,3.542c.865.477,1.676,1.055,2.516,1.583.389.244.777.5,1.182.713,2,1.063,3.908,2.263,5.812,3.479.155.1.3.211.462.3a74.331,74.331,0,0,1,6.294,4.263c1.063.771,2.132,1.532,3.2,2.293a9.593,9.593,0,0,1,2.393,2.465,1.028,1.028,0,0,1,.174.368c.1.542.186,1.083.254,1.627a6.027,6.027,0,0,0,.6,1.971,18.59,18.59,0,0,0,2.231,3.322,5.592,5.592,0,0,0,1.693,1.293.358.358,0,0,0,.063.03,1.593,1.593,0,0,0,.194.072c.6.139,1.2.274,1.9.435-.153-.183-.24-.3-.341-.4-.518-.523-1.057-1.029-1.553-1.573a8.989,8.989,0,0,1-1.448-2.1,6.065,6.065,0,0,0-.438-.7,16.024,16.024,0,0,1-1.626-2.962,2.706,2.706,0,0,1-.22-.793c-.044-.542.29-.787.831-.65.087.022.171.054.319.1a1.225,1.225,0,0,0,0-.338c-.256-.739-.529-1.472-.783-2.213a1.458,1.458,0,0,0-.7-.807c-1.553-.906-3.095-1.83-4.638-2.75a7.358,7.358,0,0,1-.635-.419c-.793-.592-1.574-1.2-2.376-1.782a4.515,4.515,0,0,0-1.013-.588,13.267,13.267,0,0,1-4.071-2.694,35.869,35.869,0,0,0-2.814-2.233c-.849-.632-1.755-1.19-2.623-1.8q-1.9-1.329-3.775-2.684a7.856,7.856,0,0,1-.884-.775,10.894,10.894,0,0,0-2.023-1.554,11.274,11.274,0,0,1-1.949-1.426,2.351,2.351,0,0,0-.436-.34,14.287,14.287,0,0,1-2.015-1.567c-.773-.652-1.6-1.242-2.419-1.84a1.511,1.511,0,0,0-.575-.2,2.485,2.485,0,0,1-1.511-.9,1.365,1.365,0,0,1-.278-1.025,13.044,13.044,0,0,0-.038-1.923,7.184,7.184,0,0,0-.149-.813,3.043,3.043,0,0,1,.141-1.633.929.929,0,0,1,1.608-.348,1.644,1.644,0,0,1,.512,1.174c.016.457-.028.918-.038,1.377-.006.272,0,.546.008.817a1.056,1.056,0,0,0,.46.8c.91.813,1.781,1.673,2.685,2.493.785.713,1.565,1.434,2.4,2.082a17.606,17.606,0,0,0,1.88,1.158,11.043,11.043,0,0,0,1.989.96.787.787,0,0,0,.66.01,2.426,2.426,0,0,1,1.693-.05,1.686,1.686,0,0,1,.65.377,23.814,23.814,0,0,1,3.246,3.191,20.026,20.026,0,0,0,3.756,3.653,9.5,9.5,0,0,0,1.614.928,21.026,21.026,0,0,1,3.542,2.005,8.751,8.751,0,0,1,1.6,1.617,2.2,2.2,0,0,0,.617.54,14.339,14.339,0,0,0,2.374,1.115.582.582,0,0,0,.644-.044.386.386,0,0,1,.559.081q.962,1.036,1.9,2.1a2.036,2.036,0,0,1,.319.534c.331.757.676,1.512.962,2.287a7.307,7.307,0,0,0,.69,1.424,10.613,10.613,0,0,1,1.384,2.847c.075.266.173.528.232.8a3.6,3.6,0,0,0,.8,1.585c.563.671,1.122,1.347,1.646,2.046.331.439.593.928.9,1.389a2.94,2.94,0,0,0,.458.592c.375.334.783.636,1.194.964a5.7,5.7,0,0,1-.464,1.645c-.173.554-.746.878-.841,1.546a1.84,1.84,0,0,0,.351-.06,4.049,4.049,0,0,0,1.317-.989,1.377,1.377,0,0,0,.232-.493c.119-.344.22-.695.347-1.1a7.759,7.759,0,0,0,3.2.5,2.127,2.127,0,0,1-.137.443,4.451,4.451,0,0,1-.514.731,10.482,10.482,0,0,1-3.982,2.674,6.768,6.768,0,0,1-.738.165c-.19.046-.262.169-.2.411.216.1.458.219.708.316.406.157.819.3,1.227.447a.948.948,0,0,0,.863-.066,7.356,7.356,0,0,0,.809-.53,10.682,10.682,0,0,0,1.917-1.887,1.119,1.119,0,0,1,.18-.209,3.284,3.284,0,0,0,1.243-2.225c.01-.06.069-.115.111-.183a5.459,5.459,0,0,0,3.966-1.065c.607.25,1.229.487,1.834.755a4.513,4.513,0,0,0,1.672.372c.6.024,1.19.117,1.785.189a1.371,1.371,0,0,1,.3.1.755.755,0,0,1-.216.721,3.61,3.61,0,0,1-1.707,1.246,1.465,1.465,0,0,1-2-.568,3.169,3.169,0,0,0-.075.419,6.127,6.127,0,0,0,.046.964,3.2,3.2,0,0,1-.43,2.052,1.064,1.064,0,0,1-1.116.65c-.571-.054-1.14-.127-1.713-.153a3.271,3.271,0,0,1-.744-.228c-.05.149-.1.272-.135.4a2.627,2.627,0,0,1-.855,1.311.911.911,0,0,1-1.087.171,1.636,1.636,0,0,1-.984-.906.9.9,0,0,1,.1-.91c.192-.258.407-.5.609-.753a1.25,1.25,0,0,0,.319-1.025l-1.949,2.026a1.223,1.223,0,0,0,.151.332,2.05,2.05,0,0,1,.48,1.2c.03.252.081.5.1.753a5.4,5.4,0,0,0,1.079,2.332,1.455,1.455,0,0,0,.274-.246,1.556,1.556,0,0,1,.638-.507,18.494,18.494,0,0,0,1.648-1,2.1,2.1,0,0,0,.72-1.154,4.909,4.909,0,0,1,.317-.836.661.661,0,0,1,.8-.391,1.383,1.383,0,0,0,1.229-.28,25.437,25.437,0,0,0,3.052-2.376,13.311,13.311,0,0,0,.976-1.164,9.394,9.394,0,0,1,.664-.7,1.552,1.552,0,0,1,.928-.411,2.808,2.808,0,0,0,.853-.26c.712-.328,1.408-.689,2.114-1.029a.954.954,0,0,0,.506-.534,2.969,2.969,0,0,1,.25-.491,1.832,1.832,0,0,1,1.1-.888.345.345,0,0,0,.065-.022,2.539,2.539,0,0,1,2.623.2,1.708,1.708,0,0,1,.857,1.184,6.041,6.041,0,0,1-1.533,1.5,1.742,1.742,0,0,1-.843.26,2.076,2.076,0,0,0-.73.169,2.209,2.209,0,0,1-1.937.032.672.672,0,0,0-.462-.012c-.658.207-1.309.443-1.965.66a.566.566,0,0,0-.426.411c-.262,1.105-1.164,1.524-2.074,1.943a12.147,12.147,0,0,0-1.362.664,2.349,2.349,0,0,0-1.2,2.048,6.777,6.777,0,0,0,.165,1.778,10.187,10.187,0,0,1,.157,1.367c.03.3.069.592.089.89a2.712,2.712,0,0,0,1.208,2.008,2.518,2.518,0,0,0,2.1.447c.6-.131,1.194-.316,1.844-.489.1.091.24.2.365.334a24.106,24.106,0,0,0,5.243,3.922,8.1,8.1,0,0,0,2.441.914c.561.123,1.108.3,1.666.437a4.71,4.71,0,0,0,.754.089c.736.05,1.473.089,2.209.143a3.133,3.133,0,0,1,.607.113.353.353,0,0,1,.272.356.4.4,0,0,1-.355.366.625.625,0,0,1-.137.018,24.984,24.984,0,0,1-3.722-.079,16.3,16.3,0,0,1-4.638-1.317c-.2-.093-.409-.185-.74-.332a2.933,2.933,0,0,0,.214.379q.987,1.157,1.983,2.306a4.449,4.449,0,0,0,1.164.969q1.168.674,2.342,1.333a6.939,6.939,0,0,0,2.3.713,23.283,23.283,0,0,0,4.965.24c.69-.03,1.378-.081,2.068-.111.244-.012.508-.089.714.121a.3.3,0,0,1-.234.372,8.11,8.11,0,0,1-.995.284c-.563.117-1.132.211-1.7.3a8.574,8.574,0,0,1-.96.121,19.3,19.3,0,0,1-5.16-.338c-.087-.02-.178-.024-.367-.05a2.457,2.457,0,0,0,.266.34,13.894,13.894,0,0,0,4.6,2.62,6.662,6.662,0,0,0,1.689.346,1.1,1.1,0,0,1,.843.346.727.727,0,0,1-.674.34,8.507,8.507,0,0,1-2.2-.123c-.664-.183-1.346-.31-2.019-.457a3.088,3.088,0,0,1-1.126-.511,38.744,38.744,0,0,1-4.88-3.846,10.763,10.763,0,0,1-.829-.832c-1.118-1.381-2.409-2.6-3.591-3.924-.892-.995-1.737-2.03-2.6-3.046-.059-.068-.129-.125-.294-.282a2.376,2.376,0,0,0,.119.419c.387.679.734,1.387,1.182,2.024,1.723,2.45,3.514,4.849,5.409,7.17a9.644,9.644,0,0,1,1.039,1.627,15.93,15.93,0,0,1,1.557,4.557,14.6,14.6,0,0,1,.2,1.923,27.032,27.032,0,0,1-.246,4.476,2.109,2.109,0,0,1-.147.6.352.352,0,0,1-.652.036,2.717,2.717,0,0,1-.313-.832c-.2-1.178-.385-2.362-.559-3.544a15.451,15.451,0,0,0-1.045-3.642c-.3-.723-.585-1.452-.88-2.177a15.5,15.5,0,0,0-1.313-2.5q-1.062-1.661-2.134-3.312a1.685,1.685,0,0,0-.541-.548c.018.127.028.256.059.379.512,2.032,1.041,4.057,1.535,6.093a16.889,16.889,0,0,1,.47,3.485c.032,1.013.1,2.024.091,3.036,0,.687-.109,1.375-.176,2.062a1.351,1.351,0,0,1-.6.973.659.659,0,0,1-.393-.6c-.038-.366-.067-.735-.111-1.1-.079-.687-.174-1.369-.25-2.056-.115-1.007-.218-2.013-.331-3.02-.05-.457-.125-.912-.167-1.371a11.993,11.993,0,0,0-.886-3.038c-.02-.056-.087-.1-.171-.185-.079.276-.149.515-.212.755a30.441,30.441,0,0,1-1.576,4.565,3.624,3.624,0,0,1-1.445,1.518,1.558,1.558,0,0,1-.058-.441,6.51,6.51,0,0,1,.22-.725,1.226,1.226,0,0,0,.073-.934.991.991,0,0,1,.038-.536c.21-.969.432-1.931.642-2.9a1.019,1.019,0,0,0-.026-.552c-.071.209-.143.419-.212.63a23.689,23.689,0,0,1-1.687,4.3,4.121,4.121,0,0,1-.991,1.23,1.571,1.571,0,0,1-.96.33.259.259,0,0,1-.242-.421.281.281,0,0,1,.036-.058,7.2,7.2,0,0,0,1.273-3.391,1.623,1.623,0,0,0-.234.252c-.3.493-.565,1-.882,1.484a2.223,2.223,0,0,1-1.215,1.071c-.206.056-.361.28-.555.4a1.525,1.525,0,0,1-.553.26.548.548,0,0,1-.4-.207c-.117-.139-.044-.306.089-.427a1.073,1.073,0,0,1,.222-.161.879.879,0,0,0,.43-.592c.087-.284.25-.542.361-.819.365-.918.734-1.836,1.077-2.765a2.267,2.267,0,0,0,.2-1.246c-.133.076-.236.121-.325.185a21.106,21.106,0,0,1-2.754,1.715c-.121.064-.246.125-.373.179a.376.376,0,0,1-.422-.606,2.571,2.571,0,0,1,.555-.513,6.074,6.074,0,0,0,2.086-2.261c.359-.618.7-1.246,1.037-1.873a4.522,4.522,0,0,1,.343-.677,3.272,3.272,0,0,0,.535-1.891C261.083,168.944,261.045,168.906,261.019,168.851Zm-35.026-15.619c-.343-.046-.565-.077-.789-.1a24.542,24.542,0,0,1-5.058-1.091c-1.2-.417-2.413-.773-3.625-1.146-.418-.127-.861-.179-1.265-.336a12.413,12.413,0,0,1-1.953-.874,25.975,25.975,0,0,1-2.794-1.647c-.7-.554-1.477-1.023-2.209-1.542a3.681,3.681,0,0,1-.561-.5c-.22-.234-.406-.5-.621-.729-.406-.441-.849-.85-1.225-1.313a1.2,1.2,0,0,0-.863-.5,1.685,1.685,0,0,1-1.422-1.951,4.034,4.034,0,0,1,.859-1.861.9.9,0,0,1,.863-.326,2.278,2.278,0,0,1,1.681,1.955,2.067,2.067,0,0,1-.472,1.124.813.813,0,0,0,.111,1.264,10.955,10.955,0,0,0,2.257,1.7c1.237.668,2.491,1.3,3.754,1.921a10.145,10.145,0,0,0,1.483.568c1.21.377,2.429.731,3.645,1.083a9.332,9.332,0,0,0,1.277.3,39.453,39.453,0,0,0,5.471.773,4.106,4.106,0,0,1,.412.056c.523.054,1.043.1,1.59.161-.067-.3-.3-.332-.468-.439-1.172-.775-2.354-1.536-3.52-2.322a1.425,1.425,0,0,1-.563-.58,1.982,1.982,0,0,0-.629-.8,15.329,15.329,0,0,1-2.949-3.455,68.106,68.106,0,0,0-4.384-6.949c-.028-.036-.05-.077-.077-.115A7.353,7.353,0,0,0,211.3,133.1a1.125,1.125,0,0,1-.295-.181,2.259,2.259,0,0,0-1.991-.532c-.361.044-.716.129-1.1.2-.254-.244-.3-.463-.054-.634a1.6,1.6,0,0,1,.623-.262,4.092,4.092,0,0,1,3.744.92,4.782,4.782,0,0,0,.426.354c.67.485,1.315,1.019,2.027,1.438a5.705,5.705,0,0,1,2.011,1.945c.8,1.293,1.614,2.577,2.425,3.864.186.292.363.588.573.864a46.094,46.094,0,0,0,3.547,4.414c.514.526,1.059,1.025,1.612,1.508a27.13,27.13,0,0,0,2.913,1.836,1.083,1.083,0,0,0,.389.137q1.631.3,3.266.578a1.975,1.975,0,0,0,.345.024c.738-.006,1.475-.01,2.213-.026a2.505,2.505,0,0,0,1.535-.6c-.42-.183-.811-.366-1.21-.524a24.085,24.085,0,0,1-3.843-1.885c-.551-.336-1.079-.711-1.648-1.011a16.188,16.188,0,0,1-4.755-3.949c-1-1.18-1.985-2.366-2.978-3.548q-.575-.689-1.152-1.379a1.337,1.337,0,0,1-.238-.334.342.342,0,0,1,.046-.3.331.331,0,0,1,.3-.042,2.013,2.013,0,0,1,.492.37c.4.415.781.848,1.174,1.266a1.192,1.192,0,0,0,.414.352,1.563,1.563,0,0,1,.682.56q.294.341.613.654a39.266,39.266,0,0,0,5.386,4.432,28.79,28.79,0,0,0,3.458,2.02,39.582,39.582,0,0,0,5.235,1.977,2.828,2.828,0,0,0,.607.125c.734.064,1.471.117,2.207.163a4.86,4.86,0,0,0,.577-.032c-.24-.457-.456-.811-.962-.874a2.318,2.318,0,0,1-.52-.181,51.456,51.456,0,0,1-8.322-4.2,43.366,43.366,0,0,1-5.5-4.065,8.472,8.472,0,0,1-1.329-1.3c-.389-.521-.851-.964-1.275-1.448a4.266,4.266,0,0,0-2.748-1.3,1.465,1.465,0,0,0-.928.205,2.847,2.847,0,0,0-.462.3c-.525.439-1.089.25-1.648.119a.433.433,0,0,1-.212-.167,2.362,2.362,0,0,1-.627-1.842,6.129,6.129,0,0,1,.845-2.249,4.725,4.725,0,0,1,.541-.61c-.414-.077-.8-.127-1.172-.224a17.835,17.835,0,0,0-4.531-.352l-.069.008c-.688.072-1.38.117-2.064.219a7.5,7.5,0,0,0-4.787,2.352,5.967,5.967,0,0,1-.771.791,2.758,2.758,0,0,0-.91,1.657c-.115.469-.236.936-.327,1.411q-.151.812-.25,1.633c-.095.775-.169,1.554-.244,2.334a.837.837,0,0,1-.3.594c-.422.356-.831.729-1.231,1.109-.5.477-1.015.944-1.467,1.464-.529.606-.995,1.269-1.495,1.9a1.152,1.152,0,0,0-.27.763c.012,1.013-.014,2.03.04,3.038a1.565,1.565,0,0,0,.87,1.46,3.162,3.162,0,0,1,1.432,1.54,11.653,11.653,0,0,1,1.124,3.824c.065.548.109,1.1.174,1.647.032.268.093.532.147.838,1,.159,1.951.312,2.9.461a1.073,1.073,0,0,0,.408.01,4.767,4.767,0,0,1,2.522.1c.442.129.9.2,1.348.306l3.1.721a7.045,7.045,0,0,0,.944.2c1.17.1,2.342.185,3.514.264a3.2,3.2,0,0,0,.619-.036c.412-.05.821-.125,1.233-.167a6.468,6.468,0,0,0,1.927-.524c.19-.083.373-.185.567-.252a27.252,27.252,0,0,0,3.4-1.53,1.82,1.82,0,0,0,.767-.675c.27-.455.537-.914.777-1.383a1.289,1.289,0,0,0,.03-.475c-.2,0-.333-.006-.466,0-.92.056-1.84.135-2.762.169a2.2,2.2,0,0,0-1.342.487,16.447,16.447,0,0,0-1.775,1.635,12.072,12.072,0,0,1-1.59,1.426,1.908,1.908,0,0,1-.688.312,10.585,10.585,0,0,1-1.156.2.558.558,0,0,1-.335-.05,1.675,1.675,0,0,1-.918-1.061.594.594,0,0,1,.089-.441c.129-.171.329-.117.5-.024.04.022.079.046.117.072a1.83,1.83,0,0,0,2.3-.093,27.931,27.931,0,0,0,2.485-2.193c.034-.032.022-.119.032-.191a1.164,1.164,0,0,0-.222-.02c-.641.066-1.281.147-1.925.205a1,1,0,0,0-.559.238,2.638,2.638,0,0,1-1.987.332.505.505,0,0,1-.19-.081,1.749,1.749,0,0,1-.7-1.49.79.79,0,0,1,.841-.747,2.258,2.258,0,0,1,1.376.387,1.4,1.4,0,0,0,1.116.219q1.02-.19,2.04-.373a19.55,19.55,0,0,1,3.272-.532c.575,0,1.15-.024,1.725-.016A1.092,1.092,0,0,0,225.993,153.232Zm-23.853,8.5a2.982,2.982,0,0,0,.783,1.444c.4.411.845.779,1.275,1.162.5.443,1.015.866,1.495,1.329a4.281,4.281,0,0,0,.995.735c.694.36,1.4.7,2.06,1.128a2.542,2.542,0,0,0,1.906.358,12.091,12.091,0,0,0,3.034-1.115c.038-.018.059-.068.107-.129.05-.431.1-.886.159-1.343.046-.364.091-.729.157-1.089.087-.475.208-.944.295-1.42a1.489,1.489,0,0,1,.993-1.3c.026-.008.034-.075.071-.159-.151.008-.28.01-.412.022a21.043,21.043,0,0,1-3.379.141c-1.38-.1-2.76-.181-4.142-.24a23.1,23.1,0,0,1-3.03-.236,2.194,2.194,0,0,0-1.289.149C202.862,161.331,202.527,161.53,202.14,161.733Zm-3.278-48.405a11.71,11.71,0,0,0,.186,3.473,47.755,47.755,0,0,0,3.466,9.284,1.5,1.5,0,0,0,.218.262c.1-.145.176-.234.236-.328a1.516,1.516,0,0,1,1.88-.6,1.987,1.987,0,0,1,.922.586c.175.183.343.372.522.552a.967.967,0,0,0,.732.332,9.05,9.05,0,0,0,1.444-.087,12.462,12.462,0,0,1,2.6-.256,3.917,3.917,0,0,0,.539-.079,3.2,3.2,0,0,0-.932-.594,7.659,7.659,0,0,1-1.858-1.3c-.892-.868-1.783-1.732-2.667-2.605-1.178-1.164-2.387-2.3-3.514-3.51a19.66,19.66,0,0,1-3.631-5.01C198.992,113.417,198.944,113.4,198.861,113.328Zm.66-5.831-.113.048c.145.954.24,1.921.448,2.861a10.2,10.2,0,0,0,1.44,3.709,14.987,14.987,0,0,0,3.795,3.785c.47.33.94.664,1.4,1,.559.407,1.107.828,1.664,1.236,1.281.94,2.562,1.883,3.849,2.815.43.308.88.59,1.328.872a2.163,2.163,0,0,0,.4.145c-.028-.1-.026-.153-.05-.179-1.769-1.969-3.6-3.88-5.213-5.992-.014-.018-.03-.034-.044-.05-.815-.94-1.606-1.9-2.447-2.815a21.011,21.011,0,0,1-3.286-5,6.408,6.408,0,0,1-.874-2.95,2.05,2.05,0,0,0-.079-.4c-.131-.654-.26-1.309-.4-1.961a1.226,1.226,0,0,0-.218-.642,1.646,1.646,0,0,0-.365.695c-.234.6-.444,1.212-.7,1.8C199.916,106.833,199.7,107.159,199.521,107.5Zm20.531,58.392a2.651,2.651,0,0,0,.309-.185,15.2,15.2,0,0,1,2.4-1.484,2.774,2.774,0,0,1,1.745-.28,3.255,3.255,0,0,1,.337.074,1.463,1.463,0,0,0,1.568-.449c.186-.205.391-.393.575-.6a4.691,4.691,0,0,0,1.342-3.3,5.63,5.63,0,0,1,.262-1.971c.01-.03-.03-.079-.063-.157a2.354,2.354,0,0,0-1.073.548,5.234,5.234,0,0,1-2.1,1.021c-.847.219-1.672.5-2.508.755a58.914,58.914,0,0,1-6.312,1.5,3.086,3.086,0,0,0-.4.159,2.356,2.356,0,0,1,1.616.993,8.031,8.031,0,0,1,1.114,1.657c.19.368.373.741.573,1.1A1.116,1.116,0,0,0,220.052,165.889ZM236.4,141.107a.812.812,0,0,1-.746-.1c-.476-.322-.988-.592-1.475-.9a18.3,18.3,0,0,0-2.7-1.4c-.785-.33-1.561-.687-2.364-.973a9.9,9.9,0,0,1-2.919-1.667,12.763,12.763,0,0,1-2.83-3.357,1.528,1.528,0,0,0-.367-.4c-.6-.463-1.215-.914-1.826-1.367a2.775,2.775,0,0,0-.412-.252,1.5,1.5,0,0,0-1.253-.085c.272.316.555.612.8.936a2.381,2.381,0,0,0,.577.578,5.126,5.126,0,0,1,.829.723c.414.431.8.886,1.2,1.335a8.971,8.971,0,0,1,.888,1.055,4.339,4.339,0,0,0,1.737,1.534,17.723,17.723,0,0,1,2.707,1.788,24.452,24.452,0,0,0,2.157,1.494c1.337.818,2.645,1.677,3.9,2.618a36.356,36.356,0,0,0,4.164,2.591c.171.095.361.159.674.292-.143-.238-.2-.354-.278-.457-.272-.372-.563-.731-.825-1.107A12.9,12.9,0,0,1,236.4,141.107Zm61.512,21.581c0,.089-.018.143,0,.173.412.608.827,1.212,1.239,1.82a2.974,2.974,0,0,1,.359.584,5.114,5.114,0,0,1,.5,2.67,1.1,1.1,0,0,0,.991,1.323c.113.022.228.03.339.056a17.469,17.469,0,0,1,2.094.409,1.989,1.989,0,0,1,1.182.878,2.151,2.151,0,0,0,.325.338,5.257,5.257,0,0,1,2.092-2.6c-.268-.068-.444-.117-.621-.155-.583-.127-1.166-.262-1.753-.372a3,3,0,0,1-2.124-1.5c-.3-.515-.627-1.019-.942-1.526a5.916,5.916,0,0,0-1.283-1.432,2,2,0,0,0-1.2-.471,7.223,7.223,0,0,1-.874-.153C298.136,162.716,298.029,162.7,297.916,162.688Zm-73.031-29.156c.2.282.329.465.464.646a10.216,10.216,0,0,0,1.777,1.623,6.17,6.17,0,0,0,1.658.971c1.342.544,2.671,1.12,4.009,1.679a3.224,3.224,0,0,0,.361.093,14.068,14.068,0,0,0-2.907-2.535A15.5,15.5,0,0,0,224.885,133.532Zm11.523,21.355c-.988-.586-1.85-1.105-2.756-1.544a10.125,10.125,0,0,0-2.851-1.081,2.72,2.72,0,0,0,.995,1.428,8.757,8.757,0,0,0,2.711,1.138c.238.081.494.109.734.181A1.806,1.806,0,0,0,236.409,154.888Zm-34.449,6a2.7,2.7,0,0,0,.462-.175,3.467,3.467,0,0,1,2.385-.421c.7.1,1.414.121,2.124.165.111.008.266.06.369-.165a20.626,20.626,0,0,0-2.982-.84c-.678-.107-1.35-.256-2.025-.381-.169-.03-.343-.046-.551-.075A4.211,4.211,0,0,0,201.96,160.89Zm45.209-3.254a4.514,4.514,0,0,1,.785.127,1.674,1.674,0,0,1,.577.354,2.959,2.959,0,0,1,.369.546,6.294,6.294,0,0,0,.51-3.272c-.807.558-1.269,1.428-2.046,1.957C247.3,157.392,247.27,157.485,247.169,157.636Zm-8.62,24.776c.607-.1.974-.385,1.826-1.514-.839.31-1.755.012-2.637.364Zm6.841-70.151a6.581,6.581,0,0,0-.218-2.5,3.017,3.017,0,0,0-.639.61.734.734,0,0,0-.163.7A1.532,1.532,0,0,0,245.39,112.261Z" transform="translate(-195.327 -68.26)" fill="#ffb5bb"/>
          <path id="パス_1097" data-name="パス 1097" d="M234.846,117.35c.07-.28.129-.572.217-.854a5.686,5.686,0,0,0,.068-2.531,1.274,1.274,0,0,0-.791-.973,4.987,4.987,0,0,0-3.1-.314,8.428,8.428,0,0,0-1.214.415l-1.319-2.32a3.04,3.04,0,0,0,.389-2.257.414.414,0,0,1,0-.07,3.9,3.9,0,0,0-1.663-3.31,1.873,1.873,0,0,1-.793-1.3,14.628,14.628,0,0,1-.107-3.989,2.381,2.381,0,0,1,.123-.536.675.675,0,0,1,1.063-.356,2.152,2.152,0,0,1,.946,1.065c.083.205.183.4.34.751a2.514,2.514,0,0,0,.02-.427,15.765,15.765,0,0,1-.145-3.512,6.945,6.945,0,0,1,.368-1.891,11.977,11.977,0,0,0,.439-2.511,2.161,2.161,0,0,0-.262-1.2,23.008,23.008,0,0,0-2.545,5.346l-.554-1.917c.089-.24.181-.524.3-.8.481-1.144.9-2.32,1.468-3.421a15.059,15.059,0,0,1,2.632-3.777,2.6,2.6,0,0,0,.683-1.091c.052-.177.117-.35.159-.53a2.306,2.306,0,0,1,.459-1.132.6.6,0,0,0,.115-.25,7.125,7.125,0,0,1,1.1-1.983A1.688,1.688,0,0,1,235,80.841a2.047,2.047,0,0,1,1.709,1.335,5.415,5.415,0,0,1,.348,2.235,1.316,1.316,0,0,1-.252.775,4.849,4.849,0,0,1-1.651,1.438c-.459.213-.914.437-1.365.662a1.452,1.452,0,0,1-.785.221,1.261,1.261,0,0,0-.334.066c-.332.066-.666.131-1.105.215-.23.312-.53.715-.82,1.124s-.58.828-.888,1.273a5.646,5.646,0,0,1,1,2.326c.077.238.169.469.256.707.4-.034.536-.316.715-.544a8.9,8.9,0,0,0,1.873-3.6l1.236-.505a1.358,1.358,0,0,1,.05.332,12.688,12.688,0,0,1-.985,4.14,6.524,6.524,0,0,1-1.25,1.889,2.439,2.439,0,0,0-.693,1.323,6.307,6.307,0,0,0-.127,1.027c-.052,1.655-.089,3.312-.129,4.969a4.6,4.6,0,0,0,.37,1.945,19.024,19.024,0,0,0,1.554,3.226c.062.095.123.189.217.334a2.37,2.37,0,0,0,.26-.328,39.762,39.762,0,0,1,2.414-4.184,1.193,1.193,0,0,0,.205-.9,4.145,4.145,0,0,1,.324-2.626,5.347,5.347,0,0,0,.326-.908,1.573,1.573,0,0,1,1.1-1.059,8.17,8.17,0,0,1,1.277-.284,1.514,1.514,0,0,1,1.593.848,2.407,2.407,0,0,1,.3,1.122,7.8,7.8,0,0,1-.379,2.444,4.824,4.824,0,0,1-.916,1.45,1.236,1.236,0,0,1-1.19.4,3.141,3.141,0,0,1-1.46-.511c-.238.346-.477.652-.67.987a46.037,46.037,0,0,0-2.356,4.76.946.946,0,0,0-.04.733,19.876,19.876,0,0,1,.86,3.55c.143.908.36,1.8.528,2.71a2.54,2.54,0,0,1,.04.751.866.866,0,0,1-.5.7A.7.7,0,0,1,234.846,117.35Z" transform="translate(-163.78 -55.538)" fill="#ffb5bb"/>
          <path id="パス_1098" data-name="パス 1098" d="M236.63,105.34l.423.741c.167-.1.326-.181.463-.286.8-.616,1.6-1.242,2.4-1.858a6.625,6.625,0,0,1,.632-.421.834.834,0,0,1,.28-.042.886.886,0,0,1-.314.691c-.582.685-1.186,1.349-1.74,2.054-.582.741-1.124,1.514-1.671,2.283a4.167,4.167,0,0,0-.6,1.456c-.042.175-.036.32.205.372a16.323,16.323,0,0,0,1.9-2.06c.741-.88,1.458-1.782,2.209-2.652.57-.662,1.178-1.293,1.776-1.929a.513.513,0,0,1,.29-.165c.707-.066,1.416-.117,2.209-.179a9.045,9.045,0,0,1-1.224,1.285c-1.045.971-2.132,1.9-3.189,2.853-.8.727-1.585,1.47-2.37,2.213-.435.411-.86.832-1.283,1.256a1.26,1.26,0,0,0-.159.3c.111.034.185.087.234.066a4.248,4.248,0,0,0,1.188-.675q2.57-2.2,5.163-4.369c.352-.3.725-.568,1.083-.856.141-.115.272-.242.407-.366.183-.167.364-.336.594-.55a.972.972,0,0,1-.26.888c-.445.465-.856.962-1.3,1.43-.219.232-.485.419-.717.64-.817.777-1.641,1.546-2.436,2.346q-.924.933-1.929,1.774c-.564.473-1.083.995-1.625,1.49-.066.06-.147.107-.205.151-.068-.016-.123-.012-.151-.038a3.89,3.89,0,0,0-2.34-.906,1.471,1.471,0,0,1-1.007-.5,4.3,4.3,0,0,0-2.144-1.319,2.572,2.572,0,0,0-2.537.7,16.627,16.627,0,0,0-1.128,1.355l-.477-.409c-.171-.147-.342-.294-.54-.461a4.1,4.1,0,0,1,.252-.35,21.773,21.773,0,0,0,2.207-3.332c.493-.828,1.073-1.6,1.635-2.388a1.392,1.392,0,0,1,.489-.364,9.58,9.58,0,0,0,2.275-1.546.715.715,0,0,1,.5-.191,3.378,3.378,0,0,1,1.514.318c.179-.115.379-.226.558-.362a33.006,33.006,0,0,0,3.91-3.493.877.877,0,0,0,.264-.542,4.56,4.56,0,0,1,.8-2.11,2.965,2.965,0,0,1,2.469-1.422,3.423,3.423,0,0,1,2.148.6,1.771,1.771,0,0,1,.681.832,5.077,5.077,0,0,1,.393,1.595,1.681,1.681,0,0,1-.948,1.752c-1.5.8-1.538.838-3.212.56-.091-.014-.181-.032-.272-.052a1.439,1.439,0,0,0-1.488.421c-.755.769-1.583,1.47-2.4,2.179-.415.362-.872.675-1.3,1.025C237.013,104.94,236.832,105.143,236.63,105.34Z" transform="translate(-163.346 -40.292)" fill="#ffb5bb"/>
          <path id="パス_1099" data-name="パス 1099" d="M211.371,85.549a1.757,1.757,0,0,0-.189-.858c-.467-1.224-.942-2.444-1.416-3.667a.712.712,0,0,1-.044-.131.372.372,0,0,1,.129-.429.357.357,0,0,1,.451.018,5.336,5.336,0,0,1,.787.763,3.391,3.391,0,0,0,.64.7,1.528,1.528,0,0,1,.417.695c.445,1.3.894,2.61,1.289,3.93a7.724,7.724,0,0,0,.7,1.72c.588,1.013,1.178,2.028,1.8,3.022a5.642,5.642,0,0,0,.763.882c.221.232.485.423.709.654q2.129,2.214,4.247,4.438a19.6,19.6,0,0,1,1.9,2.336,3.887,3.887,0,0,0-.455,2.66.691.691,0,0,1-.536-.383,24.191,24.191,0,0,0-2.03-2.346c-.34-.372-.679-.753-.987-1.154-1.4-1.824-2.914-3.56-4.458-5.265-.262-.288-.511-.59-.759-.892a10.512,10.512,0,0,0-2.028-1.961,9.643,9.643,0,0,1-.89-.761,3.183,3.183,0,0,1-.755-1.059,15.307,15.307,0,0,0-1.732-2.974,11.948,11.948,0,0,0-2.789-2.744,5.906,5.906,0,0,1-.658-.5,1.091,1.091,0,0,1-.276-.385.414.414,0,0,1,.322-.574,1.09,1.09,0,0,1,.477,0,10.638,10.638,0,0,1,1.629.536,3.543,3.543,0,0,1,.952.777c.749.781,1.468,1.589,2.2,2.382C210.938,85.142,211.107,85.293,211.371,85.549Z" transform="translate(-185.353 -55.963)" fill="#ffb5bb"/>
          <path id="パス_1100" data-name="パス 1100" d="M223.621,113.948a50.171,50.171,0,0,1-2.348-4.448,4.914,4.914,0,0,1-.471-1.923,1.236,1.236,0,0,0-.354-.864,6.4,6.4,0,0,1-1.311-2.271c.447.2.822.352,1.174.542a3.611,3.611,0,0,0,1.3.437,1.121,1.121,0,0,1,1,.725,3.935,3.935,0,0,0,.334.548,7.015,7.015,0,0,0-.153-2.34,2.859,2.859,0,0,0-.566-.342,2.32,2.32,0,0,1-1.021-.791c-.3-.344-.614-.681-.91-1.031a3.124,3.124,0,0,1-.437-.618,24.689,24.689,0,0,1-1.025-2.257,5.693,5.693,0,0,1-.246-1.486c-.038-.5.308-.842.777-.695.938.294,1.919.173,2.863.385a2.529,2.529,0,0,1,1.242.53,1.022,1.022,0,0,1,.254,1.458,8.185,8.185,0,0,0-.777,1.685,3.364,3.364,0,0,0,.781,3.451,3,3,0,0,0,.737.5c.153.1.318.175.487.268.02.125.044.236.052.348.079,1.124.145,2.247.236,3.371a1.244,1.244,0,0,1-.25.954,5.368,5.368,0,0,0-.977,2.112C223.881,112.724,223.772,113.26,223.621,113.948Z" transform="translate(-171.667 -39.032)" fill="#ffb5bb"/>
          <path id="パス_1101" data-name="パス 1101" d="M233.21,89.136a10.271,10.271,0,0,0-3.425.258,3.34,3.34,0,0,1,.048-.511q.341-1.3.7-2.6a1.348,1.348,0,0,1,.175-.449,2.371,2.371,0,0,0,.35-1.442c.07-1.752-.143-3.491-.189-5.239-.014-.505-.048-1.011-.066-1.516a1.022,1.022,0,0,1,.026-.342c.052-.159.171-.3.35-.272a.476.476,0,0,1,.328.2,2.677,2.677,0,0,1,.191.656c.066.338.1.683.169,1.021.038.2.107.391.2.733.1-.238.189-.346.179-.443-.062-.5-.149-1-.228-1.5a32.379,32.379,0,0,1-.415-4.255,4.074,4.074,0,0,0-.673-2.074,2.523,2.523,0,0,1-.28-.614.319.319,0,0,1,.205-.393.377.377,0,0,1,.441.1,1.978,1.978,0,0,1,.2.28c.137.211.27.427.427.677.572-.054.751.37.906.826a27.829,27.829,0,0,1,.952,3.812c.091.473.163.952.226,1.432a6.785,6.785,0,0,1-.006,1.784,7.334,7.334,0,0,0-.022,1.72,7.387,7.387,0,0,1-.1,1.921c-.207,1.317-.421,2.634-.6,3.955a13.83,13.83,0,0,0-.046,1.448C233.232,88.556,233.222,88.8,233.21,89.136Z" transform="translate(-160.267 -66.166)" fill="#ffb5bb"/>
          <path id="パス_1102" data-name="パス 1102" d="M231.783,93.648c.042-.185.066-.344.117-.5.085-.262.183-.519.282-.777a35.384,35.384,0,0,0,1.838-6.989,11.386,11.386,0,0,1,.882-2.893c.513-1.1.954-2.239,1.44-3.355.209-.485.453-.956.675-1.436.288-.626.568-1.258.858-1.883a2.4,2.4,0,0,1,.306-.534.347.347,0,0,1,.6.145.5.5,0,0,1,.022.2c-.054.5-.109,1-.175,1.5q-.281,2.084-.568,4.166a1.155,1.155,0,0,0-.016.276,18.076,18.076,0,0,1-.1,3.165,6.412,6.412,0,0,1-.282,1.339,10.052,10.052,0,0,1-.4,1.023.865.865,0,0,1-.135.238,33.628,33.628,0,0,0-2.227,3.226c-.7,1.105-1.367,2.233-2.054,3.346a2.009,2.009,0,0,1-.286.385.352.352,0,0,1-.58-.087A4.313,4.313,0,0,1,231.783,93.648Z" transform="translate(-158.231 -61.261)" fill="#ffb5bb"/>
          <path id="パス_1103" data-name="パス 1103" d="M233.293,113.038c.294.209.5.352.7.5a.766.766,0,0,1,.328.574,2,2,0,0,1-.27,1.643c-.155.334-.322.662-.473,1a2.846,2.846,0,0,1-1.011,1.2,6.175,6.175,0,0,1-1.85.9.84.84,0,0,1-1.146-.473,3.541,3.541,0,0,1-.348-2.271,2.976,2.976,0,0,0,.01-.876,4.088,4.088,0,0,1-.032-.683,1.014,1.014,0,0,1,.715-.916,6.115,6.115,0,0,0,1.319-.721,7.037,7.037,0,0,1,1.742-.966,35.506,35.506,0,0,1,4.1-1.438,4.547,4.547,0,0,0,.566-.219v-.725a7.906,7.906,0,0,1,2.2-1.768,1.369,1.369,0,0,1,.94-.095c.385.052.761.169,1.142.248.773.159.769.749.6,1.275a2.148,2.148,0,0,1-.308.538,9.161,9.161,0,0,1-2.122,2.142,2.314,2.314,0,0,1-.3.163,1.134,1.134,0,0,1-1.345-.163c-.222-.2-.415-.425-.668-.691A16.459,16.459,0,0,0,233.293,113.038Z" transform="translate(-160.888 -28.327)" fill="#ffb5bb"/>
          <path id="パス_1104" data-name="パス 1104" d="M234.8,116.472c-.942-.966-1.768-1.8-2.573-2.646a4.3,4.3,0,0,0-1.3-1,2.818,2.818,0,0,1-.473-.282.425.425,0,0,1-.2-.538.656.656,0,0,0-.226-.791c-1.252-1.287-2.489-2.589-3.743-3.872a81.512,81.512,0,0,0-7.42-6.7c-.54-.431-1.035-.916-1.565-1.357-.723-.6-1.466-1.186-2.191-1.79-.6-.5-1.19-1.015-1.78-1.528-.483-.423-.956-.862-1.442-1.285-1.56-1.359-3.135-2.706-4.688-4.075-1.52-1.339-3.018-2.7-4.528-4.051a3.854,3.854,0,0,1-.991-1.136.832.832,0,0,0-.278-.3.966.966,0,0,1-.413-.759,3.687,3.687,0,0,1,.161-1.567,2.009,2.009,0,0,1,.1-.256c.139-.276.316-.54.664-.513.366.028.453.338.528.638a7.635,7.635,0,0,1,.191,2.261l-.024.5c.125.131.244.272.379.395,1.931,1.742,3.85,3.5,5.8,5.219,1.277,1.126,2.6,2.2,3.892,3.308.524.449,1,.948,1.528,1.4.787.671,1.6,1.313,2.4,1.971.461.381.914.771,1.367,1.16s.868.757,1.309,1.128c1.039.874,2.088,1.736,3.121,2.616.385.328.733.7,1.109,1.037.936.85,1.883,1.691,2.817,2.543a7.406,7.406,0,0,1,.509.554c.153.169.3.348.463.507q1.308,1.281,2.622,2.555c.147.145.276.308.429.447a4.406,4.406,0,0,0,.626.524,5.418,5.418,0,0,1,1.166.964c.2.219.457.385.656.6q.764.843,1.5,1.712a.951.951,0,0,1,.209.429C234.62,115.1,234.7,115.713,234.8,116.472Z" transform="translate(-189.606 -54.307)" fill="#ffb5bb"/>
          <path id="パス_1105" data-name="パス 1105" d="M232.758,114.641a7.5,7.5,0,0,0,.066-2.823,2.021,2.021,0,0,1,.387.056,2.2,2.2,0,0,1,.491.246,5.743,5.743,0,0,0,1.927.713,2.651,2.651,0,0,0,1.619-.173c.119-.044.238-.095.461-.183a2.646,2.646,0,0,0-.153,1.764,8.961,8.961,0,0,0,4.136-1.136c-.085-.141-.141-.238-.2-.334a.944.944,0,0,1-.07-.926,7.125,7.125,0,0,1,.729-1.321,5.31,5.31,0,0,1,1.78-1.393,1.359,1.359,0,0,1,1.611.125,2.509,2.509,0,0,0,.475.272,1.077,1.077,0,0,1,.652.981,1.408,1.408,0,0,0,.3.956.494.494,0,0,1,.014.588,2.539,2.539,0,0,1-.362.5c-.8.793-1.6,1.585-2.42,2.356a1.714,1.714,0,0,1-.6.32.881.881,0,0,1-1.051-.29c-.087-.1-.167-.213-.268-.34-.3.068-.59.137-.88.2a20.229,20.229,0,0,1-4.575.507,11.518,11.518,0,0,1-1.567-.211,1,1,0,0,1-.739-.681Z" transform="translate(-157.229 -27.045)" fill="#ffb5bb"/>
          <path id="パス_1106" data-name="パス 1106" d="M242.607,109.315a3.063,3.063,0,0,1-.525,1.456,1.419,1.419,0,0,1-1.579.556,4.015,4.015,0,0,1-.956-.379,1.172,1.172,0,0,1-.423-.515c-.179-.4-.3-.818-.467-1.271a3.846,3.846,0,0,0-.445-.04c-.207,0-.413.036-.62.044a1.016,1.016,0,0,1-1.035-.544,1.405,1.405,0,0,0-.159-.189l-1.238.181-.4-.528c.509-.358,1.148-.278,1.677-.5.292-.485.568-.96.866-1.424a1.093,1.093,0,0,1,.383-.379c.367-.185.753-.332,1.136-.489a4.089,4.089,0,0,1,2.026-.312,1.614,1.614,0,0,0,1.043-.256c.94-.556.94-.524,1.977-.219a1.236,1.236,0,0,1,.882,1.035,5.707,5.707,0,0,1,.087,1.1,2.145,2.145,0,0,1-.413,1.293A3.557,3.557,0,0,1,242.607,109.315Z" transform="translate(-155.197 -31.739)" fill="#ffb5bb"/>
          <path id="パス_1107" data-name="パス 1107" d="M228.5,107.072l-.312.642c-.145-.109-.274-.187-.383-.288-2.2-2.028-4.377-4.075-6.391-6.292a12.048,12.048,0,0,0-.954-.783c-1.083-.964-2.148-1.949-3.234-2.91a70.757,70.757,0,0,0-5.545-4.657,1.436,1.436,0,0,0-.934-.36,2.7,2.7,0,0,1-1.607-.55,4.776,4.776,0,0,1-1.51-1.77,2.867,2.867,0,0,1-.163-2.156,3.328,3.328,0,0,1,1-1.466.825.825,0,0,1,.967-.125,2.505,2.505,0,0,1,1.5,1.514c.24.842.493,1.677.719,2.523a2.716,2.716,0,0,0,.689,1.252c.356.356.707.723,1.077,1.067.574.532,1.21,1,1.732,1.583,1.671,1.85,3.646,3.367,5.453,5.068.1.095.205.183.3.282,1.107,1.138,2.191,2.3,3.326,3.409,1.234,1.2,2.515,2.362,3.775,3.54C228.164,106.736,228.309,106.883,228.5,107.072Z" transform="translate(-183.104 -50.021)" fill="#ffb5bb"/>
          <path id="パス_1108" data-name="パス 1108" d="M235.016,112.292l-2.5.095a2.336,2.336,0,0,1-.23-1.273c.32-.222.685-.455,1.031-.713a12.534,12.534,0,0,0,1.291-1.025,10.772,10.772,0,0,1,1.385-1.126c.922-.646,1.812-1.343,2.686-2.052a18.488,18.488,0,0,0,2.879-2.871,1.673,1.673,0,0,0,.473-1.452.619.619,0,0,1,.056-.4,6.655,6.655,0,0,1,1.2-1.84,2.135,2.135,0,0,1,2.245-.362,2.445,2.445,0,0,0,.312.147,3.257,3.257,0,0,1,1.794,1.631,1.6,1.6,0,0,1,.1,1.4,2.886,2.886,0,0,1-3.137,1.832,2.078,2.078,0,0,1-.974-.491c-.173-.151-.352-.294-.55-.459a2.794,2.794,0,0,0-.342.244,46.644,46.644,0,0,1-5.684,4.816,1.813,1.813,0,0,0-.743,1.029c-.137.487-.306.965-.485,1.438A5.757,5.757,0,0,1,235.016,112.292Z" transform="translate(-157.708 -37.001)" fill="#ffb5bb"/>
          <path id="パス_1109" data-name="パス 1109" d="M223.891,102.823l-1.665-.129a37.123,37.123,0,0,1-4.21-5.362,1.757,1.757,0,0,1-1.548-.689,14.358,14.358,0,0,1-1.039-1.2,1.136,1.136,0,0,1-.236-.558c-.066-.775-.121-1.556-.133-2.334a2.059,2.059,0,0,1,.224-.715c.141-.362.306-.715.447-1.077a1.6,1.6,0,0,1,2.511-.848,3.189,3.189,0,0,1,1.438,2.183,7.225,7.225,0,0,1-.018,3.149c-.1.443-.282.87-.455,1.4.087.143.207.358.344.564a41.937,41.937,0,0,0,3.932,5.062c.139.153.268.314.4.473C223.893,102.76,223.887,102.79,223.891,102.823Z" transform="translate(-175.246 -46.638)" fill="#ffb5bb"/>
          <path id="パス_1110" data-name="パス 1110" d="M240.711,87.1c.1-.818.169-1.643.312-2.452a3.5,3.5,0,0,1,1.206-2.034,2.142,2.142,0,0,1,2-.469,3.717,3.717,0,0,1,2.009,1.258,2.308,2.308,0,0,1,.471,1.482,4.114,4.114,0,0,1-.594,2.291,8.953,8.953,0,0,1-2.722,2.964c-.9.6-1.24.5-1.871-.375A4.635,4.635,0,0,1,240.711,87.1Z" transform="translate(-149.147 -54.259)" fill="#ffb5bb"/>
          <path id="パス_1111" data-name="パス 1111" d="M247.565,94.936c-.2-.062-.372-.107-.538-.173a.824.824,0,0,1-.552-.723,4.172,4.172,0,0,1,2.394-4.142,2.775,2.775,0,0,1,2.326.149,2.389,2.389,0,0,1,1.287,1.283,3.908,3.908,0,0,1,.27,2.223,5.15,5.15,0,0,1-2.036,3.1,3.339,3.339,0,0,1-1.552.695,4.43,4.43,0,0,0-.586.193.9.9,0,0,1-1.222-.824,4.97,4.97,0,0,1,.07-.958C247.458,95.488,247.514,95.222,247.565,94.936Z" transform="translate(-143.306 -46.52)" fill="#ffb5bb"/>
          <path id="パス_1112" data-name="パス 1112" d="M225.559,109.113a1.391,1.391,0,0,1-1.335.161c-.262-.081-.513-.191-.777-.274a1.206,1.206,0,0,1-.9-1.18,6.079,6.079,0,0,1,.3-2.92,3.384,3.384,0,0,0,.143-.459,1.063,1.063,0,0,1,1.252-.8,1.623,1.623,0,0,1,1.156.681,1.279,1.279,0,0,0,.818.546,1.757,1.757,0,0,0,1.508-.205,1.43,1.43,0,0,1,1.786.117c.127.1.27.175.389.282a1.731,1.731,0,0,1,.334,2.4,12.937,12.937,0,0,0-.654,1.134,1.511,1.511,0,0,1-1.317.958c-.433.028-.868.089-1.3.083A1.939,1.939,0,0,1,225.559,109.113Z" transform="translate(-167.664 -32.42)" fill="#ffb5bb"/>
          <path id="パス_1113" data-name="パス 1113" d="M249.122,108.411c-.385-.06-.769-.113-1.154-.185a.812.812,0,0,1-.548-.385c-.31-.485-.624-.966-.938-1.448a.941.941,0,0,1-.068-.864,4.858,4.858,0,0,1,3.111-3.28,3.146,3.146,0,0,1,3.061.582,2.233,2.233,0,0,1,.783,2.042,5.077,5.077,0,0,1-.737,2.066,2.455,2.455,0,0,1-1.283,1A6.651,6.651,0,0,1,249.122,108.411Z" transform="translate(-143.417 -33.98)" fill="#ffb5bb"/>
          <path id="パス_1114" data-name="パス 1114" d="M226.481,113.043a2.221,2.221,0,0,1-.29.161c-.215.074-.435.139-.671.213l-.544-.379c.024-.614.052-1.23.077-1.848.042-1.079.095-2.158.123-3.24a2.626,2.626,0,0,1,.465-1.486,3.006,3.006,0,0,0,.324-3.135,1.592,1.592,0,0,1-.117-.6c-.04-1.218-.078-2.438-.087-3.657a.887.887,0,0,0-.362-.836,1.232,1.232,0,0,1-.526-1.2,2.491,2.491,0,0,0-.29-1.4,6.986,6.986,0,0,1-.256-.852c-.163-.437.044-.691.372-.928a1.607,1.607,0,0,1,.962-.332,5.683,5.683,0,0,1,2.6.526.885.885,0,0,1,.519.82,2.023,2.023,0,0,1-.046.616,10.221,10.221,0,0,1-.532,1.564,3.069,3.069,0,0,1-1.132,1.184c-.211.137-.427.266-.648.4-.014.147-.042.284-.042.419.008,1.174.014,2.348.038,3.522a1.975,1.975,0,0,0,.157.731,2.277,2.277,0,0,1,.2,1.007c-.046,1.079-.1,2.159-.153,3.24-.024.528-.064,1.055-.066,1.585-.006.874.024,1.75.016,2.624C226.572,112.2,226.513,112.632,226.481,113.043Z" transform="translate(-165.876 -42.653)" fill="#ffb5bb"/>
          <path id="パス_1115" data-name="パス 1115" d="M241.015,99.343c-.447-.073-.854-.137-1.256-.205a1.077,1.077,0,0,1-.922-.979,2.82,2.82,0,0,1,.028-1.365,11.622,11.622,0,0,1,.777-2.056,3.58,3.58,0,0,1,1.393-1.4,7.839,7.839,0,0,1,1.272-.509,1.146,1.146,0,0,1,.928.111,2.844,2.844,0,0,1,1.72,2.748A3.281,3.281,0,0,1,244,97.92a9.7,9.7,0,0,1-.95.791A3.8,3.8,0,0,1,241.015,99.343Z" transform="translate(-151.126 -43.414)" fill="#ffb5bb"/>
          <path id="パス_1116" data-name="パス 1116" d="M232.058,94.649a.928.928,0,0,1,.35-.622c.807-.914,1.643-1.8,2.422-2.74a14.3,14.3,0,0,0,3.232-6.026,12.935,12.935,0,0,1,.864-2.471,2.06,2.06,0,0,1,.332-.513.368.368,0,0,1,.445-.083.4.4,0,0,1,.234.391.27.27,0,0,1,0,.07,3.919,3.919,0,0,0,.072,1.838,1.1,1.1,0,0,1,.008.344c-.211,1.434-.415,2.869-.646,4.3a5.39,5.39,0,0,1-2.73,3.876q-.532.32-1.077.616a1.171,1.171,0,0,1-.449.167,3.932,3.932,0,0,0-1.192.32.552.552,0,0,1-.264.074A2.518,2.518,0,0,0,232.058,94.649Z" transform="translate(-157.95 -54.179)" fill="#ffb5bb"/>
          <path id="パス_1117" data-name="パス 1117" d="M225.373,106.941l-1.5.332c.05-.822.177-1.587.238-2.358.058-.749.056-1.5.046-2.3a3.342,3.342,0,0,1-1.494-.077c-.773-.266-1-.536-1.023-1.341-.01-.3.014-.6-.006-.9a1.716,1.716,0,0,1,.546-1.365c.205-.213.431-.407.632-.594.95,0,1.869-.01,2.785,0a1.754,1.754,0,0,1,1.317.666,1.037,1.037,0,0,1,.113,1.109,1.251,1.251,0,0,1-.564.675,1.081,1.081,0,0,0-.55.971c-.058.662-.087,1.329-.159,1.991C225.645,104.811,225.506,105.856,225.373,106.941Z" transform="translate(-168.559 -37.771)" fill="#ffb5bb"/>
          <path id="パス_1118" data-name="パス 1118" d="M226.137,110.047c-.294-.093-.4-.276-.372-.493a3.784,3.784,0,0,0-.048-1.1,2.166,2.166,0,0,1,.048-.477c.113-1.238.248-2.475.324-3.715a15.075,15.075,0,0,0-.048-2c-.066-.9.02-1.075.848-1.407.081-.034.159-.075.274-.127l-.658-3.266,1.107-1.317c.322.9.626,1.707.9,2.529a.9.9,0,0,1-.135.721,4.383,4.383,0,0,0,.141,4.583,1.577,1.577,0,0,1,.36,1.595,5.773,5.773,0,0,1-.465,1.438A10.305,10.305,0,0,1,226.137,110.047Z" transform="translate(-164.412 -39.995)" fill="#ffb5bb"/>
          <path id="パス_1119" data-name="パス 1119" d="M242.667,104.113a4.455,4.455,0,0,1,.107-2.843,5.807,5.807,0,0,1,1.035-1.78,2.461,2.461,0,0,1,2.253-.936,1.593,1.593,0,0,1,1.552,1.54,4.156,4.156,0,0,1-2.247,3.953A3.355,3.355,0,0,1,242.667,104.113Z" transform="translate(-147.346 -37.571)" fill="#ffb5bb"/>
          <path id="パス_1120" data-name="パス 1120" d="M224.448,92.659l-.256,1.184h-.862a3.807,3.807,0,0,1,0-1.037c.012-.6.036-1.194.046-1.792a4.624,4.624,0,0,1,.721-2.686,2.389,2.389,0,0,1,1.929-1.031,1.769,1.769,0,0,1,1.393.489,2.3,2.3,0,0,1,.826,2.406,2.6,2.6,0,0,0-.091.544,1.366,1.366,0,0,1-.656,1,3.764,3.764,0,0,1-1.871.622A2.93,2.93,0,0,0,224.448,92.659Z" transform="translate(-166.875 -48.97)" fill="#ffb5bb"/>
          <path id="パス_1121" data-name="パス 1121" d="M233.622,112.224a4.283,4.283,0,0,1,.743.006,13.814,13.814,0,0,0,2.75.113c.205,0,.413,0,.62,0a1.617,1.617,0,0,1,1.234.3c.095.087.262.087.378.155a2.444,2.444,0,0,1,.566.381.619.619,0,0,1-.246,1.053,2.452,2.452,0,0,1-.677.095c-1.355.054-2.712.066-4.063.159-1.007.07-2.005.24-3.008.364a1.463,1.463,0,0,1-.421,0A7.1,7.1,0,0,0,233.622,112.224Z" transform="translate(-158.517 -23.716)" fill="#ffb5bb"/>
          <path id="パス_1122" data-name="パス 1122" d="M231.49,105.35c-.081.272-.159.532-.236.791-.131.437-.246.88-.393,1.313a11.023,11.023,0,0,1-.477,1.2.919.919,0,0,1-.389.375,5.434,5.434,0,0,1-1.009.435,1.348,1.348,0,0,1-1.655-1.2.736.736,0,0,1,.111-.387c.346-.568.689-1.138,1.065-1.683a1.586,1.586,0,0,0,.368-.938.977.977,0,0,1,.368-.854,2.072,2.072,0,0,1,1.2-.469.951.951,0,0,1,.848.618A4.4,4.4,0,0,1,231.49,105.35Z" transform="translate(-162.763 -32.108)" fill="#ffb5bb"/>
          <path id="パス_1123" data-name="パス 1123" d="M242.95,100.022a10.7,10.7,0,0,1,2.195-1.311c-.087.274-.119.421-.177.554a12.93,12.93,0,0,0-.854,2.614,4.233,4.233,0,0,0-.072,1.232c.06.777.143,1.554.2,2.332a.726.726,0,0,1-.125.445,9.328,9.328,0,0,1-2.4,2.628.815.815,0,0,1-.828.115,7.009,7.009,0,0,0-1.577-.471.592.592,0,0,1-.524-.507,1.379,1.379,0,0,1,.387-.123,3.158,3.158,0,0,0,1.889-.755A7.2,7.2,0,0,0,243.381,104a2.607,2.607,0,0,0,.234-1.4c-.034-.32-.044-.642-.091-.96a4.21,4.21,0,0,0-.177-.8A8.147,8.147,0,0,0,242.95,100.022Z" transform="translate(-151.103 -37.398)" fill="#ffb5bb"/>
          <path id="パス_1124" data-name="パス 1124" d="M227.887,99.343A1.352,1.352,0,0,1,228.912,98c.485-.131.962-.292,1.448-.433a2.224,2.224,0,0,1,.536-.111.729.729,0,0,1,.8.606,1.878,1.878,0,0,1-.024,1.023c-.125.419-.238.842-.387,1.252a3.107,3.107,0,0,1-1.8,1.806,1.039,1.039,0,0,1-1.494-.979c0-.322.006-.646-.012-.967C227.964,99.9,227.917,99.6,227.887,99.343Z" transform="translate(-162.198 -38.668)" fill="#ffb5bb"/>
          <path id="パス_1125" data-name="パス 1125" d="M229.977,104.931a2.517,2.517,0,0,1,.749.074,8.848,8.848,0,0,0,1.865.481c.61.123.8.417.7,1.025a3.7,3.7,0,0,1-2.378,2.388,1.991,1.991,0,0,1-.683-.02.8.8,0,0,1-.66-.838c-.018-.391-.032-.781-.073-1.172A3.117,3.117,0,0,1,229.977,104.931Z" transform="translate(-160.576 -31.094)" fill="#ffb5bb"/>
          <path id="パス_1126" data-name="パス 1126" d="M239.3,94c-.119.675-.236,1.19-.292,1.709-.07.66-.1,1.327-.133,1.991a1.413,1.413,0,0,1-.238.842.454.454,0,0,1-.582-.242,6.26,6.26,0,0,0-1.289-1.444Z" transform="translate(-153.164 -42.177)" fill="#ffb5bb"/>
          <path id="パス_1127" data-name="パス 1127" d="M225.223,91.6c.745-.234,1.059-.912,1.587-1.55L226,95.033a.587.587,0,0,1-.584-.1c.008-.562.05-1.109.018-1.653S225.3,92.19,225.223,91.6Z" transform="translate(-164.911 -46.178)" fill="#ffb5bb"/>
          <path id="パス_1128" data-name="パス 1128" d="M237.307,108.318l1.875.322c-.087.081-.169.165-.262.24a9.269,9.269,0,0,0-.993.836,2.556,2.556,0,0,1-1.649.709c.225-.409.423-.737.59-1.079C237.027,109.019,237.154,108.678,237.307,108.318Z" transform="translate(-153.662 -27.661)" fill="#ffb5bb"/>
          <path id="パス_1129" data-name="パス 1129" d="M229.767,108.125c.415-.115.807-.209,1.19-.33.366-.117.725-.26,1.128-.4a2.062,2.062,0,0,1-1.293,1.047A1.031,1.031,0,0,1,229.767,108.125Z" transform="translate(-160.287 -28.601)" fill="#ffb5bb"/>
        </g>
      </g>
      <g id="グループ_1431" data-name="グループ 1431" transform="translate(184.6 35.388)">
        <g id="グループ_1430" data-name="グループ 1430">
          <path id="パス_1130" data-name="パス 1130" d="M195.215,72.456a3.73,3.73,0,0,0,1.033-1.166,1.665,1.665,0,0,0-.368-1.722l-7.907-10.388a1.647,1.647,0,0,0-1.468-.822,4.558,4.558,0,0,0-1.49.693l-.415-.546,7.257-5.523.415.546a4.325,4.325,0,0,0-1.12,1.244,1.642,1.642,0,0,0,.35,1.722l3.387,4.45L200,57.056,196.615,52.6a1.643,1.643,0,0,0-1.526-.809,4.4,4.4,0,0,0-1.528.753L193.145,52l7.3-5.555.413.546a4.223,4.223,0,0,0-1.081,1.25,1.62,1.62,0,0,0,.364,1.675l7.907,10.39a1.643,1.643,0,0,0,1.611.791,3.748,3.748,0,0,0,1.4-.7l.415.546-7.3,5.555-.413-.546a3.825,3.825,0,0,0,1.117-1.246,1.652,1.652,0,0,0-.36-1.711l-3.763-4.943-5.11,3.888,3.763,4.945a1.648,1.648,0,0,0,1.629.793,4.173,4.173,0,0,0,1.436-.745l.413.544L195.63,73Z" transform="translate(-184.6 -24.179)" fill="#ffb5bb"/>
          <path id="パス_1131" data-name="パス 1131" d="M203.62,60.209a2.026,2.026,0,0,0,1.126-1.4,12.377,12.377,0,0,0,.171-2.509l.06-15.921.7-.28L216.531,51a19.3,19.3,0,0,0,2.549,2.287,1.586,1.586,0,0,0,1.567.087l.256.636-8.1,3.25-.256-.634a6.26,6.26,0,0,0,1.522-.852q.32-.314.06-.962a3.463,3.463,0,0,0-.552-.811c-.177-.2-.4-.445-.674-.723l-1.244-1.26-5.616,2.255c.032,1.142.056,1.883.07,2.227a5.4,5.4,0,0,0,.234,1.536q.217.538,1.035.493a5.191,5.191,0,0,0,1.341-.368l.256.634-5.106,2.05Zm7.277-9.035-4.73-4.822-.209.085.066,6.695Z" transform="translate(-165.26 -30.614)" fill="#ffb5bb"/>
          <path id="パス_1132" data-name="パス 1132" d="M219.652,54.362a3.088,3.088,0,0,0,1.8-.729,2.682,2.682,0,0,0,.268-1.993l-1.4-11.84q-.181-1.549-.826-1.947a3.789,3.789,0,0,0-1.816-.219l-.079-.681,8.612-1.019a13.934,13.934,0,0,1,4.406.048q3.349.758,3.7,3.711a4.08,4.08,0,0,1-1.277,3.636,6.635,6.635,0,0,1-2.581,1.526l6.588,6.945a1.1,1.1,0,0,0,.519.356,2.063,2.063,0,0,0,.628.052l.077.64-5.586.66-7.235-7.625h-.01l.62,5.241a2.824,2.824,0,0,0,.7,1.846,2.81,2.81,0,0,0,1.945.32l.081.679-9.043,1.071ZM229,43.841q1.048-.834.749-3.371a5.818,5.818,0,0,0-.723-2.4,2.769,2.769,0,0,0-2.9-1.208,2.493,2.493,0,0,0-1.373.433,1.083,1.083,0,0,0-.229.922l.805,6.81A7.789,7.789,0,0,0,229,43.841Z" transform="translate(-151.049 -34.984)" fill="#ffb5bb"/>
          <path id="パス_1133" data-name="パス 1133" d="M244.741,36.679l-.1.679a3.726,3.726,0,0,0-2.14.183q-.583.35-.8,1.881l-1.279,8.942a8.163,8.163,0,0,0,.032,3.214,3.33,3.33,0,0,0,3.053,2.541q3.075.441,4.482-1.685a8.4,8.4,0,0,0,1.1-3.423l1.168-8.163a2.859,2.859,0,0,0-.244-2.05,3.329,3.329,0,0,0-1.971-.954l.1-.677,5.863.84-.1.677a3.986,3.986,0,0,0-1.776.364c-.306.2-.523.729-.644,1.591l-1.222,8.533a7.718,7.718,0,0,1-2.394,5.014q-1.906,1.616-5.424,1.111-4.6-.658-5.9-3.651a7.174,7.174,0,0,1-.358-3.9l1.279-8.932a2.943,2.943,0,0,0-.127-1.949,3.333,3.333,0,0,0-1.715-.8l.1-.679Z" transform="translate(-132.715 -35.388)" fill="#ffb5bb"/>
          <path id="パス_1134" data-name="パス 1134" d="M250.123,55.21a2.6,2.6,0,0,0,2,.24,2.422,2.422,0,0,0,1.021-1.273l5.046-11.729c-.395-1.17-.648-1.871-.761-2.1a1.525,1.525,0,0,0-.6-.6l.27-.628,5.247,2.257,4.061,14.006.121.052,3.129-7.275a3.034,3.034,0,0,0,.316-1.991,2.894,2.894,0,0,0-1.55-1.432l.27-.63,5.32,2.289-.27.628a3.822,3.822,0,0,0-1.776-.151c-.356.1-.695.532-1.019,1.285l-6.278,14.592-.689-.3-5.2-17.922-.171-.072-4.174,9.707a3.346,3.346,0,0,0-.383,1.752q.166.979,1.675,1.7l-.27.628-5.61-2.412Z" transform="translate(-118.201 -31.597)" fill="#ffb5bb"/>
          <path id="パス_1135" data-name="パス 1135" d="M264.41,58.555a2.027,2.027,0,0,0,1.776.28,12.334,12.334,0,0,0,2.259-1.1l13.845-7.863.588.465-4.059,14.84a19.186,19.186,0,0,0-.719,3.348,1.6,1.6,0,0,0,.7,1.4l-.425.538-6.846-5.41.423-.538a6.154,6.154,0,0,0,1.5.9c.288.083.576-.06.864-.425a3.461,3.461,0,0,0,.431-.884c.087-.254.185-.568.292-.944l.473-1.705-4.748-3.751q-1.462.894-1.9,1.168a5.394,5.394,0,0,0-1.216.969c-.242.3-.211.683.087,1.142a5.115,5.115,0,0,0,.985.981l-.425.538-4.315-3.411Zm11.455,1.822,1.832-6.5-.177-.141-5.775,3.387Z" transform="translate(-103.878 -20.707)" fill="#ffb5bb"/>
        </g>
      </g>
      <g id="グループ_1433" data-name="グループ 1433" transform="translate(201.822 255.129)">
        <g id="グループ_1432" data-name="グループ 1432">
          <path id="パス_1136" data-name="パス 1136" d="M196.985,153.281l.634.447a8.4,8.4,0,0,0-.822,4.79,4.628,4.628,0,0,0,1.907,3.01,2.938,2.938,0,0,0,4.4-.487,2.617,2.617,0,0,0,.485-2.074,9.785,9.785,0,0,0-.991-2.287l-.906-1.7a11.4,11.4,0,0,1-1.486-4.162,4.725,4.725,0,0,1,.932-3.159,5.731,5.731,0,0,1,3.256-2.221,5.181,5.181,0,0,1,4.476,1.047,9.036,9.036,0,0,1,2.058,1.991,10.576,10.576,0,0,0,1.019,1.26.67.67,0,0,0,.646.139,2.184,2.184,0,0,0,.612-.4l.656.461-3.371,4.806-.614-.431a8.21,8.21,0,0,0,.5-3.944,4.205,4.205,0,0,0-1.8-3.065,2.946,2.946,0,0,0-2.16-.606,2.676,2.676,0,0,0-2.177,3.018,17.275,17.275,0,0,0,1.54,3.4l1.053,1.961a7.894,7.894,0,0,1,.884,2.436,5.134,5.134,0,0,1-.92,3.886,5.758,5.758,0,0,1-3.508,2.239q-2.335.568-5.2-1.438a9.111,9.111,0,0,1-1.242-1.057,8.684,8.684,0,0,1-1.061-1.315l-.312-.459q-.118-.148-.236-.272a1.793,1.793,0,0,0-.213-.189.623.623,0,0,0-.608-.127,2.4,2.4,0,0,0-.618.409l-.636-.447Z" transform="translate(-193.153 -143.567)" fill="#ffb5bb"/>
          <path id="パス_1137" data-name="パス 1137" d="M206.512,168.424l.225-.646a3.844,3.844,0,0,0,1.659.246,1.648,1.648,0,0,0,1.228-1.242l4.315-12.323a1.62,1.62,0,0,0-.211-1.75,4.142,4.142,0,0,0-1.426-.83l.228-.646,14.656,5.13-1.8,5.13-.62-.217a5.822,5.822,0,0,0-.467-3.943q-.843-1.314-3.912-2.386a2.992,2.992,0,0,0-1.569-.278c-.27.087-.485.37-.654.852l-2.06,5.887a4.215,4.215,0,0,0,3.22.242,6.453,6.453,0,0,0,2.221-2.561l.644.225-3.008,8.6-.646-.226a5.774,5.774,0,0,0-.04-3.451,4.293,4.293,0,0,0-2.7-1.943l-2.156,6.161a1.323,1.323,0,0,0,.032,1.244,3.511,3.511,0,0,0,1.6.89,7.962,7.962,0,0,0,4.3.447,8.3,8.3,0,0,0,3.973-2.583l.707.248-2.883,4.931Z" transform="translate(-179.558 -137.533)" fill="#ffb5bb"/>
          <path id="パス_1138" data-name="パス 1138" d="M223.252,172.764a2.6,2.6,0,0,0,1.955-.491,2.425,2.425,0,0,0,.5-1.552l.53-12.756q-1.178-1.432-1.458-1.687a1.5,1.5,0,0,0-.777-.342l.03-.683,5.706.238,8.789,11.634.131.006.33-7.911a3.029,3.029,0,0,0-.417-1.973,2.876,2.876,0,0,0-1.959-.785l.03-.685,5.785.24-.028.685a3.848,3.848,0,0,0-1.713.491,2.084,2.084,0,0,0-.493,1.564l-.66,15.871-.749-.03L227.537,159.7l-.185-.008-.439,10.559a3.312,3.312,0,0,0,.27,1.772,2.589,2.589,0,0,0,2.171.991l-.028.685-6.1-.254Z" transform="translate(-162.553 -133.46)" fill="#ffb5bb"/>
          <path id="パス_1139" data-name="パス 1139" d="M254.526,154.482a9.719,9.719,0,1,1-13.93,11.131,9.548,9.548,0,0,1,.741-7.414,10.045,10.045,0,0,1,13.189-3.717Zm.622,12.295a17.537,17.537,0,0,0-.745-5.06,13.052,13.052,0,0,0-2.94-5.926,3.905,3.905,0,0,0-3.936-1.2q-2.954.8-3.091,4.617a21.586,21.586,0,0,0,2.662,9.751q2.021,3.171,4.971,2.372Q255,170.541,255.148,166.777Z" transform="translate(-145.299 -135.414)" fill="#ffb5bb"/>
          <path id="パス_1140" data-name="パス 1140" d="M263.847,170.017a3.769,3.769,0,0,0,1.109-1.091,1.664,1.664,0,0,0-.248-1.744l-7.172-10.909a1.656,1.656,0,0,0-1.407-.92,4.593,4.593,0,0,0-1.536.588l-.377-.572,7.621-5.01.376.572a4.266,4.266,0,0,0-1.2,1.166,1.632,1.632,0,0,0,.232,1.74l3.071,4.673,5.368-3.528-3.075-4.673a1.631,1.631,0,0,0-1.466-.912,4.388,4.388,0,0,0-1.575.644l-.376-.572,7.666-5.04.375.572a4.287,4.287,0,0,0-1.166,1.174,1.623,1.623,0,0,0,.252,1.7l7.17,10.909a1.646,1.646,0,0,0,1.554.9,3.7,3.7,0,0,0,1.446-.6l.375.572-7.663,5.04-.377-.572a3.844,3.844,0,0,0,1.2-1.168,1.651,1.651,0,0,0-.24-1.732l-3.413-5.191L265,159.555l3.411,5.191a1.65,1.65,0,0,0,1.573.9,4.171,4.171,0,0,0,1.482-.642l.377.572-7.621,5.01Z" transform="translate(-131.001 -144.429)" fill="#ffb5bb"/>
        </g>
      </g>
    </g>
  </g>
</svg>
