<svg xmlns="http://www.w3.org/2000/svg" width="100.147" height="100.147" viewBox="0 0 100.147 100.147">
  <g id="logo" transform="translate(-488.378 -490.073)">
    <path id="パス_801" data-name="パス 801" d="M545.2,523.37h7.889c.231,0,.418-.116.418-.29a1.28,1.28,0,0,0-.186-.466c-1.854-2.035-2.41-2.675-4.357-4.6" transform="translate(10.114 5.009)" fill="#fff"/>
    <path id="パス_802" data-name="パス 802" d="M550.787,509.75a1.16,1.16,0,0,0-.139-.407c-1.9-1.979-2.5-2.618-4.4-4.538-1.115,1.513-2.594,3.482-3.737,5.235h7.817C550.648,510.04,550.787,509.982,550.787,509.75Z" transform="translate(9.63 2.633)" fill="#fff"/>
    <line id="線_1" data-name="線 1" x1="0.003" transform="translate(550.563 512.673)"/>
    <path id="パス_803" data-name="パス 803" d="M544.674,527.46a24.539,24.539,0,0,1-4.187-3.607l-1.221-1.338a28.166,28.166,0,0,1-4.247-6.688c-.274-.543-1.091-.769-2.429,0,0,0,1.039-.25,1.208,0,.147.217,1.92,4.6,3.2,6.688l.93,1.338a44.457,44.457,0,0,0,3.549,4.48c4.072,4.6,6.864,5.511,11.809,8.187,1.8-2.735,2.268-1.672,4.653-1.963l.058-1.105A31.6,31.6,0,0,1,544.674,527.46Z" transform="translate(7.847 4.525)" fill="#fff"/>
    <path id="パス_804" data-name="パス 804" d="M548.8,516.522c.186,0,.418-.176.418-.291s-.093-.232-.185-.407c-1.855-1.92-2.412-2.5-4.265-4.363-.952,1.4-2.512,3.473-3.595,5.061" transform="translate(9.39 3.83)" fill="#fff"/>
    <path id="パス_805" data-name="パス 805" d="M542.971,530.208a.851.851,0,0,0-.291-.465c-1.454-1.28-1.918-1.629-3.432-2.85-.639.756-.2,2.85-.2,2.85s.927,5.766,0,7.354c-.168.287-1.838.655-1.838.655s1.671.367,1.838.655c1.059,1.815,1.2,6.68,0,8.4a6.507,6.507,0,0,1-1.838.655s1.671.368,1.838.656a5.588,5.588,0,0,1,0,2.156c0,.524.176.639.7.639a7.6,7.6,0,0,0,2.407-.29c.349-.117.465-.232.465-.7-.29-4.421-.465-11.285-.465-18.731C542.854,530.557,542.971,530.442,542.971,530.208Z" transform="translate(8.678 6.604)" fill="#fff"/>
    <path id="パス_806" data-name="パス 806" d="M513.953,514.271l.349,1.979a28.626,28.626,0,0,1,3.9-.232A19.017,19.017,0,0,0,513.953,514.271Z" transform="translate(4.496 4.335)" fill="#fff"/>
    <path id="パス_807" data-name="パス 807" d="M509.023,521.026l.349,2.094a22.845,22.845,0,0,1,4.479-.292A24.434,24.434,0,0,0,509.023,521.026Z" transform="translate(3.609 5.55)" fill="#fff"/>
    <path id="パス_808" data-name="パス 808" d="M532.622,501.995a35.962,35.962,0,0,1-1.048,7.212l-.349,1.338a45.265,45.265,0,0,1-2.035,6.342l-.582,1.338A46.163,46.163,0,0,1,525,524.913l-.873,1.338c-4.246,6.108-10.253,10.7-16.942,15.531l.466.814a45.031,45.031,0,0,0,14.019-10.237c.117,4.246.117,4.246.117,6.457,0,3.141-.059,6.747-.291,16.113,0,.407.175.582.7.582a8.044,8.044,0,0,0,2.174-.291c.349-.116.466-.348.524-.814a4.69,4.69,0,0,1,0-1.8c.17-.29,1.849-.662,1.849-.662a6.546,6.546,0,0,1-1.849-.661c-1.2-1.721-1.058-6.58,0-8.392.17-.29,1.849-.661,1.849-.661s-1.679-.372-1.849-.662c-.926-1.586,0-7.347,0-7.347l.465-1.338c-1.57-.931-1.185-1.106-2.523-1.862a45.14,45.14,0,0,0,3.781-4.77l.93-1.338a53.012,53.012,0,0,0,3.666-6.688l.582-1.338a45.435,45.435,0,0,0,2.268-6.342l.349-1.338c.291-1.163.524-2.093.989-4.072,2.386-.639,2.734-.814,2.734-1.338C538.131,503.158,539.078,503.1,532.622,501.995Z" transform="translate(3.279 2.127)" fill="#fff"/>
    <path id="パス_809" data-name="パス 809" d="M512.277,507.665l.407,2.152a44.274,44.274,0,0,1,4.6-.291A27.393,27.393,0,0,0,512.277,507.665Z" transform="translate(4.194 3.147)" fill="#fff"/>
    <path id="パス_810" data-name="パス 810" d="M539.087,551.407l-.084-.055c-.144-.1-.305-.164-.455-.254a2.167,2.167,0,0,0-.487-.215,1.253,1.253,0,0,1,.42-.271,2.015,2.015,0,0,1,.468-.229l.08.066c.119.045.21-.057.332-.076a.791.791,0,0,0,.047.084.524.524,0,0,0,.067.068h.192l.105-.242a.433.433,0,0,0,.315.13c.11-.012.17-.107.249-.181h.193l.037.027c.057-.041.113-.083.172-.124.076-.15-.074-.449-.15-.449a2.836,2.836,0,0,0-1.023-.506,7.235,7.235,0,0,0-.99.368c-.176.071-.353.144-.533.205-.092.031-.185.065-.277.1s-.193.055-.283.087a2.9,2.9,0,0,0-.47.133.086.086,0,0,1-.052.008.59.59,0,0,0-.283.04,3.305,3.305,0,0,0-.406.106,1.838,1.838,0,0,0-.353.188c-.159.121-.327.234-.5.34a3.3,3.3,0,0,1-.407.236c-.173.078-.353.142-.529.216a.637.637,0,0,0-.2.1c-.054.053-.107.047-.184.044V549.99a.465.465,0,0,1,.036-.229c.06-.112.034-.243.075-.362a2.082,2.082,0,0,0,.054-.245.728.728,0,0,0,.131-.295,2.568,2.568,0,0,1,.2-.571.654.654,0,0,0,.1-.334c0-.033.027-.065.029-.1.008-.083.058-.156.047-.244a.422.422,0,0,1,.034-.135,7.311,7.311,0,0,0,.188-.709c.1-.137.057-.32.145-.464.032-.052.017-.13.025-.2a.658.658,0,0,1,.149-.293,2.9,2.9,0,0,0,.169-.268.494.494,0,0,1,.08-.1c.136-.138.272-.274.406-.407,0-.019,0-.033,0-.043a1.012,1.012,0,0,0,.074-.494v-.05c-.214-.078-.432-.146-.652-.206l-.032.2a5.019,5.019,0,0,1-.519.56.555.555,0,0,0-.106.16c-.117.264-.2.54-.332.8a2.814,2.814,0,0,1-.255.662,2.143,2.143,0,0,1-.092.355c-.044.078-.013.174-.086.248a.767.767,0,0,0-.1.218,1.649,1.649,0,0,1-.115.234c-.058.091-.131.172-.21.274a.558.558,0,0,1-.048-.12c-.017-.119-.032-.238-.038-.359a2.443,2.443,0,0,0-.006-.373,3.44,3.44,0,0,1-.033-.6.156.156,0,0,0-.011-.051.963.963,0,0,1-.061-.162,1.443,1.443,0,0,0-.019-.163c-.02-.06-.037-.122-.059-.179s-.067-.105-.068-.158c0-.085-.074-.138-.078-.211a.839.839,0,0,0-.067-.2,1.836,1.836,0,0,1-.078-.284c-.007-.112-.1-.19-.087-.306s-.066-.2-.077-.306a.939.939,0,0,0-.106-.235c-.047-.12-.135-.217-.186-.334s-.1-.235-.156-.347-.114-.254-.183-.375c-.08-.143-.173-.277-.26-.415-.349-.1-.56.324-.632.612a1.461,1.461,0,0,0-.04.158,1.608,1.608,0,0,1,.14.3,1.141,1.141,0,0,0,.081.191c.118.245.2.5.3.756a3.374,3.374,0,0,1,.124.4c.006.022.021.042.026.065.013.063-.015.126.033.193.033.046-.014.13.04.189.013.013,0,.048,0,.073a2.382,2.382,0,0,0,.044.451,1.988,1.988,0,0,1,.031.416,3.659,3.659,0,0,1,.038.6c.073.126.03.264.037.4a1.7,1.7,0,0,1,0,.411,2.989,2.989,0,0,0-.033.3c-.009.1-.035.2-.041.3a.854.854,0,0,1-.079.3,1.461,1.461,0,0,0-.14.635c0,.079,0,.158,0,.257-.139-.07-.262-.12-.374-.19a2.315,2.315,0,0,1-.3-.179,3.037,3.037,0,0,0-.295-.189,1.745,1.745,0,0,0-.29-.2c-.091-.037-.119-.132-.215-.162-.074-.024-.132-.1-.2-.151-.175-.136-.344-.278-.526-.4a1.926,1.926,0,0,1-.23-.209.149.149,0,0,1-.04-.093,2.8,2.8,0,0,0-.181-.656c-.024-.073-.08-.137-.079-.209a.684.684,0,0,0-.079-.231c-.024-.071-.047-.143-.076-.212a1.521,1.521,0,0,0-.1-.184,4.46,4.46,0,0,0-.676-.38.751.751,0,0,1,.026.072c.044.143.111.278.169.417a4.534,4.534,0,0,1,.315.973c.064.081.01.185.044.263a.75.75,0,0,1,.032.234.556.556,0,0,1-.134.061.638.638,0,0,1-.412-.085c-.129-.084-.269-.139-.4-.213a2.3,2.3,0,0,1-.432-.269.463.463,0,0,1-.12-.176c-.066-.166-.126-.335-.189-.5a.751.751,0,0,0-.309-.431,5.784,5.784,0,0,0-.49-.309.728.728,0,0,1-.184-.14,4.29,4.29,0,0,0-.366-.291.53.53,0,0,1-.169-.277l-.158-.151h-.282a1.148,1.148,0,0,0,.146.492c.055.072.14.117.176.209.012.031.067.044.1.068a3.113,3.113,0,0,0,.445.282,1.332,1.332,0,0,1,.161.111c.1.072.206.139.3.217a.948.948,0,0,1,.258.378,1.34,1.34,0,0,0,.143.288.7.7,0,0,0,.047.309.811.811,0,0,0,.34.307c.124.063.25.122.372.188a1.743,1.743,0,0,1,.278.189,2.094,2.094,0,0,0,.644.389.287.287,0,0,0,.21.012c.075-.046.146-.006.214-.037a1.2,1.2,0,0,0,.438.3,1.5,1.5,0,0,1,.276.149c.033.017.052.06.1.115a1.346,1.346,0,0,1-.225,0,.6.6,0,0,0-.344,0,.093.093,0,0,1-.036,0,2.767,2.767,0,0,0-.453.038c-.15,0-.3,0-.45,0a.651.651,0,0,1-.19-.037,2.912,2.912,0,0,1-.459-.111c-.13.026-.25-.04-.378-.04-.077,0-.152-.028-.229-.034a.812.812,0,0,1-.241-.007,2.031,2.031,0,0,0-.257-.054.576.576,0,0,0-.339.013c-.257.09-.507.192-.755.3-.152.068-.31.129-.46.2a4.862,4.862,0,0,0-.593.294h-.206c-.1-.032-.163-.052-.228-.075-.1-.033-.2-.068-.295-.1a2.228,2.228,0,0,0-.343-.118,1.61,1.61,0,0,0-.361-.086.62.62,0,0,1-.231-.07l0,0c-.033.019-.065.038-.1.06-.1.048.481.442.577.542.14-.014.228.111.37.124a.371.371,0,0,1-.143.138c.192.08.378.158.56.245.074-.032.152-.059.224-.094a1.711,1.711,0,0,0,.5.04,1.2,1.2,0,0,1,.166-.111c.112-.051.211-.125.323-.17.172-.071.329-.178.5-.235a1.316,1.316,0,0,1,.488-.092c.249.018.5,0,.749,0a.821.821,0,0,1,.315.008c.1.046.211-.018.29.067a.694.694,0,0,1,.291.065.851.851,0,0,0,.3.045c.171,0,.335.055.509.042s.362,0,.543,0,.35-.006.525,0a.9.9,0,0,1,.431.175c.059.037.155.053.16.152.129.079.236.2.406.2a.957.957,0,0,1,.437.163.77.77,0,0,1,.119.173c.07.133.133.27.2.4.007.015.026.031.023.045-.011.124.092.219.078.344a.258.258,0,0,0,.025.119.545.545,0,0,1,.052.243.483.483,0,0,0,.034.133c.014.058.025.114.038.172s-.018.129.022.2c.028.047.008.12.017.181s.025.114.035.172a.713.713,0,0,1-.045.356.747.747,0,0,0-.028.23.86.86,0,0,1-.21.551,1.8,1.8,0,0,0-.291.478c0,.006-.012.009-.012.013a.514.514,0,0,1-.212.363,1.5,1.5,0,0,1-.334.232,2.643,2.643,0,0,1-.415.174.826.826,0,0,1-.3.044,1.267,1.267,0,0,1-.292-.059c-.125-.033-.254-.042-.378-.083-.043-.014-.1.026-.152.032a.93.93,0,0,1-.3.039c-.072.09-.2-.016-.269.074,0,0-.013,0-.019,0a2.825,2.825,0,0,0-.434.039c-.143,0-.288.008-.43,0a.754.754,0,0,1-.3-.078,1.294,1.294,0,0,0-.378-.125.99.99,0,0,0-.464-.051,2.435,2.435,0,0,0-.536.106c-.2,0-.394.047-.6.039-.032.185.8.533.825.539a.3.3,0,0,0,.1.019.642.642,0,0,1,.3.055c.067.022.172-.016.209.085.094,0,.187.083.275.04a.374.374,0,0,1,.157-.027,7.75,7.75,0,0,0,1.071-.035c.117-.022.238,0,.36-.035a1.089,1.089,0,0,1,.316,0c.107.006.215.021.322.037a.207.207,0,0,1,.078.038c.109.072.215.145.33.223a1.523,1.523,0,0,0,.616-.068,1.778,1.778,0,0,1,.216-.066c.072-.02.159-.009.207-.09.1,0,.163-.087.255-.11a1.065,1.065,0,0,0,.164-.071h.272c.042.137.139.254.111.407.06.076.013.171.042.245a.746.746,0,0,1,.032.236,3.262,3.262,0,0,1,.19.514,1.589,1.589,0,0,1,.069.326c.015.18.111,2.138.123,2.151-.019.039-.042.065-.041.091a2.722,2.722,0,0,1-.077.662c-.041.181-.632,5.261-.638,5.316a5.12,5.12,0,0,1-.442,1.26.693.693,0,0,0-.188.221,2.256,2.256,0,0,1-.379.38,3.03,3.03,0,0,1-.474.258,4.458,4.458,0,0,0-.539.323,6.163,6.163,0,0,1-.623.257,1.355,1.355,0,0,1-.532.118c-.064.065-.842.37-.7.37.812,0,2.624-.441,3.436-.448a9.974,9.974,0,0,0,1.1-.367,1.783,1.783,0,0,1,.962.513,9.357,9.357,0,0,0,1.612.682,2.218,2.218,0,0,1-.367-.634.6.6,0,0,1,.064-.545,12.7,12.7,0,0,0,1.589.593,17.88,17.88,0,0,0,2.524.434,4.428,4.428,0,0,1,.66.032c.228.038.461,0,.7.035.3.044-2.282-.73-2.487-.787a3.525,3.525,0,0,1-.8-.328c-.058-.046-.536-.337-.623-.382a1.807,1.807,0,0,1-.515-.424.137.137,0,0,1-.026-.026c-.018-.037-.051-.076-.047-.11.021-.167-.387-1.643-.409-1.741-.051-.218-.19-2.115-.267-2.307-.006-.015-.229-6.724-.224-7.154a10.6,10.6,0,0,1,.033-1.3,2.073,2.073,0,0,0,0-.411.824.824,0,0,1,.078-.362c.035-.091.083-.178.111-.273.019-.06.039-.12.058-.181l.006,0,.106-.529c.085-.09.208-.2.31-.332a3.208,3.208,0,0,0,.274-.307c.071,0,.065-.073.1-.1s.092-.058.112-.1.111-.032.1-.106c.258-.137.48-.333.747-.457a.254.254,0,0,1,.205-.019.285.285,0,0,0,.242,0,.445.445,0,0,1,.185-.046.5.5,0,0,0,.191-.04.535.535,0,0,1,.228-.039c.118.006.237,0,.355,0C537.969,551.417,539.015,551.457,539.087,551.407Z" transform="translate(6.051 9.459)" fill="#fff"/>
    <path id="パス_811" data-name="パス 811" d="M531.276,539.4a.841.841,0,0,0,.825-.464l-.177-.152.152-.177a.842.842,0,0,0-.886-.333.1.1,0,1,1-.092-.1.84.84,0,0,0-.185-.928l-.2.122-.122-.2a.841.841,0,0,0-.591.74.83.83,0,0,0,0,.179.95.95,0,0,0-.129-.127.837.837,0,0,0-.939-.111l.054.228-.228.053a.84.84,0,0,0,.52.79.935.935,0,0,0,.176.059.872.872,0,0,0-.165.084.837.837,0,0,0-.4.86l.232.019-.019.232a.84.84,0,0,0,.912-.251.923.923,0,0,0,.114-.157.9.9,0,0,0,.031.192.838.838,0,0,0,.695.641l.091-.215.215.09a.84.84,0,0,0,.044-.945.98.98,0,0,0-.11-.151A.992.992,0,0,0,531.276,539.4Zm-.938-.477v-.016h0l0,0Z" transform="translate(7.157 8.452)" fill="#fff"/>
    <g id="グループ_1356" data-name="グループ 1356" transform="translate(534.331 528.902)">
      <g id="グループ_1355" data-name="グループ 1355" transform="translate(2.769)">
        <path id="パス_812" data-name="パス 812" d="M530.991,522.9l.184.353.353-.184.044.042a1.61,1.61,0,0,1,.246,1.8,3.09,3.09,0,0,1-1.509,1.289l-.065.026-.039-.058a3.048,3.048,0,0,1-.5-1.92,1.6,1.6,0,0,1,1.228-1.338Zm.111.585-.206-.4a1.469,1.469,0,0,0-1.025,1.187,2.824,2.824,0,0,0,.44,1.733,2.867,2.867,0,0,0,1.351-1.174,1.453,1.453,0,0,0-.165-1.558Z" transform="translate(-529.762 -522.998)" fill="#fff"/>
      </g>
      <path id="パス_813" data-name="パス 813" d="M528.338,528.58h0a1.282,1.282,0,0,1-.589-.132l-.054-.028.058-.394-.394-.059-.011-.06a1.616,1.616,0,0,1,.859-1.6,2.318,2.318,0,0,1,1.131-.252,3.774,3.774,0,0,1,.848.1l.068.017,0,.07a3.044,3.044,0,0,1-.721,1.85A1.721,1.721,0,0,1,528.338,528.58Zm-.455-.259a1.15,1.15,0,0,0,.455.087h0a1.544,1.544,0,0,0,1.071-.445,2.815,2.815,0,0,0,.663-1.661,3.784,3.784,0,0,0-.736-.075,2.151,2.151,0,0,0-1.047.23,1.459,1.459,0,0,0-.782,1.358l.441.066Z" transform="translate(-527.415 -522.433)" fill="#fff"/>
      <path id="パス_814" data-name="パス 814" d="M528.372,523.82a1.71,1.71,0,0,1,1.166.469,3.088,3.088,0,0,1,.76,1.833l0,.07-.067.019a3.743,3.743,0,0,1-.922.117,2.23,2.23,0,0,1-1.06-.232,1.6,1.6,0,0,1-.893-1.581l.01-.06.393-.067-.067-.393.054-.029A1.317,1.317,0,0,1,528.372,523.82Zm1.747,2.242a2.864,2.864,0,0,0-.7-1.647,1.536,1.536,0,0,0-1.049-.422,1.187,1.187,0,0,0-.484.1l.074.44-.44.074a1.47,1.47,0,0,0,.812,1.341,2.062,2.062,0,0,0,.979.211A3.719,3.719,0,0,0,530.12,526.062Z" transform="translate(-527.412 -522.835)" fill="#fff"/>
      <path id="パス_815" data-name="パス 815" d="M531.063,529.567,531,529.56a1.6,1.6,0,0,1-1.257-1.311,3.053,3.053,0,0,1,.464-1.932l.037-.059.065.024a3.1,3.1,0,0,1,1.536,1.258,1.613,1.613,0,0,1-.207,1.8l-.044.043-.358-.177Zm-.745-3.1a2.828,2.828,0,0,0-.4,1.744,1.471,1.471,0,0,0,1.05,1.164l.2-.4.4.2a1.456,1.456,0,0,0,.132-1.562A2.867,2.867,0,0,0,530.318,526.471Z" transform="translate(-526.987 -522.393)" fill="#fff"/>
      <path id="パス_816" data-name="パス 816" d="M532.335,525.021a1.571,1.571,0,0,1,1.4.773l.027.055-.279.284.284.279-.026.055a1.575,1.575,0,0,1-1.424.8,1.875,1.875,0,0,1-.212-.012,3.049,3.049,0,0,1-1.693-1.037l-.044-.054.043-.055a3.093,3.093,0,0,1,1.67-1.072A1.81,1.81,0,0,1,532.335,525.021Zm1.214.8a1.416,1.416,0,0,0-1.214-.624,1.626,1.626,0,0,0-.231.017,2.87,2.87,0,0,0-1.514.954,2.825,2.825,0,0,0,1.533.922,1.685,1.685,0,0,0,.192.011,1.422,1.422,0,0,0,1.24-.65l-.318-.312Z" transform="translate(-526.864 -522.619)" fill="#fff"/>
    </g>
    <path id="パス_817" data-name="パス 817" d="M547.207,535.58l-.158.393.393.158a1.526,1.526,0,0,1-1.147,1.277,3,3,0,0,1-1.9-.3,3.04,3.04,0,0,1,1.095-1.579A1.521,1.521,0,0,1,547.207,535.58Z" transform="translate(9.97 8.114)" fill="#fff"/>
    <path id="パス_818" data-name="パス 818" d="M516.523,542.5a1.513,1.513,0,0,0,1.482-.832l-.319-.274.273-.317a1.505,1.505,0,0,0-1.589-.6,1.682,1.682,0,0,0-.314.1,1.7,1.7,0,0,0,.149-.289,1.508,1.508,0,0,0-.334-1.666l-.357.218-.218-.359a1.51,1.51,0,0,0-1.06,1.327,1.553,1.553,0,0,0,0,.322A1.748,1.748,0,0,0,514,539.9a1.508,1.508,0,0,0-1.687-.2l.1.408-.408.1a1.51,1.51,0,0,0,.934,1.418,1.681,1.681,0,0,0,.315.105,1.8,1.8,0,0,0-.3.151,1.506,1.506,0,0,0-.709,1.543l.418.034-.034.418a1.51,1.51,0,0,0,1.638-.451,1.674,1.674,0,0,0,.207-.282,1.626,1.626,0,0,0,.053.344,1.51,1.51,0,0,0,1.249,1.151l.162-.387.386.162a1.506,1.506,0,0,0,.078-1.7.177.177,0,1,1,.12-.222Zm-1.684-.855v-.029h0v0h0l.008.008Z" transform="translate(4.144 8.688)" fill="#fff"/>
    <path id="パス_819" data-name="パス 819" d="M546.3,544.073a.84.84,0,0,0,.825-.464l-.177-.152.152-.177a.839.839,0,0,0-.886-.333,1,1,0,0,0-.175.055.87.87,0,0,0,.083-.162.838.838,0,0,0-.185-.927l-.2.122-.122-.2a.841.841,0,0,0-.591.74,1.011,1.011,0,0,0,0,.179,1.087,1.087,0,0,0-.127-.129.841.841,0,0,0-.94-.11l.054.228-.228.053a.839.839,0,0,0,.521.79.887.887,0,0,0,.175.059.911.911,0,0,0-.165.084.84.84,0,0,0-.4.859l.232.019-.019.234a.842.842,0,0,0,.912-.251.928.928,0,0,0,.116-.157.971.971,0,0,0,.029.192.84.84,0,0,0,.7.641l.09-.215.215.09a.839.839,0,0,0,.044-.945.982.982,0,0,0-.109-.151A.952.952,0,0,0,546.3,544.073Zm-.938-.477v-.016h0l0,0Z" transform="translate(9.859 9.292)" fill="#fff"/>
    <path id="パス_820" data-name="パス 820" d="M542.708,521.237a.669.669,0,0,0-.01-.755l-.175.066-.066-.175a.673.673,0,0,0-.572.493.079.079,0,1,1-.109.025.671.671,0,0,0-.721-.225l.008.186-.186.009a.672.672,0,0,0,.293.7.078.078,0,1,1-.013.111.668.668,0,0,0-.437.616l.179.049-.049.179a.671.671,0,0,0,.754-.063.712.712,0,0,0,.107-.1.784.784,0,0,0,0,.149.669.669,0,0,0,.452.605l.1-.156.156.1a.674.674,0,0,0,.172-.736.084.084,0,1,1,.08-.087.673.673,0,0,0,.716-.242l-.117-.146.145-.117a.672.672,0,0,0-.646-.392.779.779,0,0,0-.147.019A.681.681,0,0,0,542.708,521.237Zm-.693.475-.012-.006h0v0h0Z" transform="translate(9.309 5.432)" fill="#fff"/>
    <path id="パス_821" data-name="パス 821" d="M515.666,523.617a1.221,1.221,0,0,1-1.2-.674l.257-.221-.221-.258a1.221,1.221,0,0,1,1.288-.484,1.278,1.278,0,0,1,.254.081,1.369,1.369,0,0,1-.12-.235,1.222,1.222,0,0,1,.27-1.35l.29.177.177-.29a1.221,1.221,0,0,1,.858,1.075,1.293,1.293,0,0,1,0,.261,1.314,1.314,0,0,1,.185-.185,1.222,1.222,0,0,1,1.367-.16l-.079.33.33.079a1.22,1.22,0,0,1-.758,1.148,1.3,1.3,0,0,1-.255.086,1.405,1.405,0,0,1,.241.121,1.222,1.222,0,0,1,.575,1.251l-.339.027.028.339a1.223,1.223,0,0,1-1.327-.365,1.358,1.358,0,0,1-.166-.229,1.411,1.411,0,0,1-.044.28,1.224,1.224,0,0,1-1.012.933l-.13-.314-.314.131a1.221,1.221,0,0,1-.063-1.375,1.338,1.338,0,0,1,.158-.219A1.238,1.238,0,0,1,515.666,523.617Zm1.364-.693V522.9h0v0h0l-.007.006Z" transform="translate(4.588 5.431)" fill="#fff"/>
    <path id="パス_822" data-name="パス 822" d="M539.97,509.726a1.459,1.459,0,0,0,1.633-.186l-.18-.362.362-.182a1.457,1.457,0,0,0-1.194-1.129,1.688,1.688,0,0,0-.317-.028,1.638,1.638,0,0,0,.241-.2,1.459,1.459,0,0,0,.328-1.61l-.4.06-.06-.4a1.46,1.46,0,0,0-1.443.787,1.488,1.488,0,0,0-.124.286,1.635,1.635,0,0,0-.119-.29,1.458,1.458,0,0,0-1.43-.809l-.067.4-.4-.066a1.461,1.461,0,0,0,.3,1.615,1.593,1.593,0,0,0,.242.212,1.638,1.638,0,0,0-.322.022,1.458,1.458,0,0,0-1.212,1.11l.36.188-.186.36a1.459,1.459,0,0,0,1.629.211,1.592,1.592,0,0,0,.289-.173,1.565,1.565,0,0,0-.08.328,1.459,1.459,0,0,0,.681,1.495l.289-.284.286.289a1.458,1.458,0,0,0,.7-1.484,1.6,1.6,0,0,0-.073-.315A1.554,1.554,0,0,0,539.97,509.726Zm-1.181-1.395.011-.026,0,0h0v0h0l0,.011Z" transform="translate(8.425 2.784)" fill="#fff"/>
    <g id="グループ_1358" data-name="グループ 1358" transform="translate(522.495 510.387)">
      <g id="グループ_1357" data-name="グループ 1357" transform="translate(2.015)">
        <path id="パス_823" data-name="パス 823" d="M519.985,507.236l.134.257.257-.134.032.03a1.172,1.172,0,0,1,.179,1.31,2.247,2.247,0,0,1-1.1.939l-.047.019-.028-.042a2.215,2.215,0,0,1-.367-1.4,1.169,1.169,0,0,1,.893-.973Zm.082.426-.15-.287a1.072,1.072,0,0,0-.746.864,2.048,2.048,0,0,0,.32,1.262,2.084,2.084,0,0,0,.983-.855,1.058,1.058,0,0,0-.12-1.134Z" transform="translate(-519.09 -507.305)" fill="#fff"/>
      </g>
      <path id="パス_824" data-name="パス 824" d="M518.055,511.367h0a.934.934,0,0,1-.43-.1l-.039-.021.042-.286-.286-.042-.008-.044a1.172,1.172,0,0,1,.626-1.165,1.688,1.688,0,0,1,.823-.183,2.756,2.756,0,0,1,.617.07l.049.012,0,.051a2.215,2.215,0,0,1-.524,1.347A1.255,1.255,0,0,1,518.055,511.367Zm-.332-.189a.837.837,0,0,0,.332.064,1.126,1.126,0,0,0,.779-.324,2.049,2.049,0,0,0,.482-1.209,2.757,2.757,0,0,0-.535-.054,1.566,1.566,0,0,0-.762.167,1.058,1.058,0,0,0-.57.988l.321.047Z" transform="translate(-517.383 -506.894)" fill="#fff"/>
      <path id="パス_825" data-name="パス 825" d="M518.079,507.9h0a1.245,1.245,0,0,1,.849.341,2.25,2.25,0,0,1,.553,1.334l0,.051-.049.014a2.725,2.725,0,0,1-.672.085,1.62,1.62,0,0,1-.771-.168,1.17,1.17,0,0,1-.65-1.151l.007-.044.286-.048-.049-.286.039-.021A.957.957,0,0,1,518.079,507.9Zm1.272,1.631a2.087,2.087,0,0,0-.508-1.2,1.119,1.119,0,0,0-.764-.308h0a.862.862,0,0,0-.352.07l.055.321-.321.053a1.073,1.073,0,0,0,.592.976,1.5,1.5,0,0,0,.711.153A2.7,2.7,0,0,0,519.351,509.535Z" transform="translate(-517.38 -507.186)" fill="#fff"/>
      <path id="パス_826" data-name="パス 826" d="M520.037,512.086l-.044-.006a1.164,1.164,0,0,1-.914-.955,2.21,2.21,0,0,1,.336-1.405l.027-.043.047.018a2.247,2.247,0,0,1,1.117.915,1.174,1.174,0,0,1-.15,1.314l-.032.031-.26-.129Zm-.542-2.253a2.047,2.047,0,0,0-.293,1.268,1.067,1.067,0,0,0,.763.848l.144-.291.291.144a1.06,1.06,0,0,0,.1-1.137A2.085,2.085,0,0,0,519.495,509.832Z" transform="translate(-517.071 -506.865)" fill="#fff"/>
      <path id="パス_827" data-name="パス 827" d="M520.964,508.777a1.142,1.142,0,0,1,1.016.562l.02.04-.2.208.208.2-.019.04a1.148,1.148,0,0,1-1.036.583,1.358,1.358,0,0,1-.154-.009,2.216,2.216,0,0,1-1.232-.754l-.032-.039.032-.04a2.25,2.25,0,0,1,1.215-.78A1.309,1.309,0,0,1,520.964,508.777Zm.882.579a1.03,1.03,0,0,0-.882-.454,1.184,1.184,0,0,0-.169.012,2.084,2.084,0,0,0-1.1.695,2.053,2.053,0,0,0,1.115.67,1.232,1.232,0,0,0,.14.008,1.037,1.037,0,0,0,.9-.473l-.232-.226Z" transform="translate(-516.982 -507.029)" fill="#fff"/>
    </g>
    <path id="パス_828" data-name="パス 828" d="M511.016,514.116a.584.584,0,0,0,.66.013l-.052-.153.153-.053a.584.584,0,0,0-.414-.513.648.648,0,0,0-.125-.028.628.628,0,0,0,.107-.067.589.589,0,0,0,.217-.623l-.163,0,0-.163a.586.586,0,0,0-.617.235.755.755,0,0,0-.065.107.613.613,0,0,0-.031-.122.585.585,0,0,0-.526-.4l-.047.155-.156-.047a.585.585,0,0,0,.033.658.609.609,0,0,0,.085.1.6.6,0,0,0-.13-.008.583.583,0,0,0-.542.376l.133.093-.094.133a.585.585,0,0,0,.637.172.693.693,0,0,0,.125-.053.678.678,0,0,0-.051.125.588.588,0,0,0,.191.632l.131-.1.1.13a.584.584,0,0,0,.361-.552.766.766,0,0,0-.012-.129A.675.675,0,0,0,511.016,514.116Zm-.394-.618,0-.009v0h0v0Z" transform="translate(3.677 3.99)" fill="#fff"/>
    <path id="パス_829" data-name="パス 829" d="M504.719,532.835a.429.429,0,0,0,.42-.236l-.09-.078.077-.09a.427.427,0,0,0-.451-.17.472.472,0,0,0-.09.028.492.492,0,0,0,.042-.083.431.431,0,0,0-.094-.473l-.1.063-.061-.1a.428.428,0,0,0-.3.376.478.478,0,0,0,0,.092A.486.486,0,0,0,504,532.1a.427.427,0,0,0-.479-.057l.027.116-.116.027a.429.429,0,0,0,.266.4.47.47,0,0,0,.09.029.581.581,0,0,0-.085.042.431.431,0,0,0-.2.439l.119.009-.009.119a.43.43,0,0,0,.465-.129.561.561,0,0,0,.059-.08.4.4,0,0,0,.015.1.425.425,0,0,0,.354.327l.046-.11.11.046a.427.427,0,0,0,.022-.481.524.524,0,0,0-.055-.077A.447.447,0,0,0,504.719,532.835Zm-.479-.243v-.008h0l0,0Z" transform="translate(2.604 7.468)" fill="#fff"/>
    <path id="パス_830" data-name="パス 830" d="M554.824,511.118v.658h.657a2.367,2.367,0,0,1-.912,2.5,4.657,4.657,0,0,1-2.911.663,4.73,4.73,0,0,1,.662-2.911A2.362,2.362,0,0,1,554.824,511.118Z" transform="translate(11.273 3.752)" fill="#fff"/>
    <path id="パス_831" data-name="パス 831" d="M534.546,527.944l.335.26.258-.335a1.522,1.522,0,0,1,.917,1.45,3,3,0,0,1-.809,1.744,3.038,3.038,0,0,1-1.221-1.483A1.524,1.524,0,0,1,534.546,527.944Z" transform="translate(8.095 6.78)" fill="#fff"/>
    <path id="パス_832" data-name="パス 832" d="M521.3,514.507l.216.168.167-.216a.982.982,0,0,1,.59.934,1.931,1.931,0,0,1-.522,1.123,1.962,1.962,0,0,1-.787-.956A.982.982,0,0,1,521.3,514.507Z" transform="translate(5.751 4.369)" fill="#fff"/>
    <path id="パス_833" data-name="パス 833" d="M536.572,514.575l.188-.087-.086-.188a.744.744,0,0,1,.836-.067,1.465,1.465,0,0,1,.571.746,1.489,1.489,0,0,1-.919.192A.741.741,0,0,1,536.572,514.575Z" transform="translate(8.563 4.311)" fill="#fff"/>
    <path id="パス_834" data-name="パス 834" d="M553.477,539.25l.216.166.166-.216a.982.982,0,0,1,.59.936,1.93,1.93,0,0,1-.52,1.123,1.961,1.961,0,0,1-.788-.956A.98.98,0,0,1,553.477,539.25Z" transform="translate(11.536 8.818)" fill="#fff"/>
    <path id="パス_835" data-name="パス 835" d="M523.325,553.883a.84.84,0,0,0,.825-.464l-.177-.152.152-.177a.841.841,0,0,0-.886-.333.913.913,0,0,0-.175.057.944.944,0,0,0,.083-.162.84.84,0,0,0-.185-.929l-.2.122-.121-.2a.841.841,0,0,0-.591.74.908.908,0,0,0,0,.179,1,1,0,0,0-.128-.127.839.839,0,0,0-.94-.111l.054.228-.228.054a.839.839,0,0,0,.521.789.892.892,0,0,0,.175.059.875.875,0,0,0-.165.084.837.837,0,0,0-.4.86l.232.019-.019.232a.84.84,0,0,0,.912-.251.864.864,0,0,0,.115-.157.886.886,0,0,0,.031.192.843.843,0,0,0,.695.642l.091-.216.215.09a.841.841,0,0,0,.044-.945,1.07,1.07,0,0,0-.109-.151A.794.794,0,0,0,523.325,553.883Zm-.938-.477v-.016h0l0,0Z" transform="translate(5.728 11.055)" fill="#fff"/>
    <g id="グループ_1360" data-name="グループ 1360" transform="translate(514.817 556.044)">
      <g id="グループ_1359" data-name="グループ 1359" transform="translate(1.702 3.558)">
        <path id="パス_836" data-name="パス 836" d="M513.134,551.915l-.167-.318-.318.166-.04-.038a1.451,1.451,0,0,1-.22-1.618,2.78,2.78,0,0,1,1.357-1.16l.058-.023.035.052a2.738,2.738,0,0,1,.453,1.727,1.445,1.445,0,0,1-1.1,1.2Zm-.1-.526.186.355a1.326,1.326,0,0,0,.921-1.068,2.531,2.531,0,0,0-.4-1.559,2.579,2.579,0,0,0-1.215,1.056,1.31,1.31,0,0,0,.148,1.4Z" transform="translate(-512.318 -549.019)" fill="#fff"/>
      </g>
      <path id="パス_837" data-name="パス 837" d="M515.6,546.7h0a1.153,1.153,0,0,1,.53.119l.049.025-.052.354.354.053.01.054a1.452,1.452,0,0,1-.772,1.439,2.089,2.089,0,0,1-1.018.227,3.4,3.4,0,0,1-.762-.086l-.061-.015,0-.063a2.739,2.739,0,0,1,.649-1.664A1.55,1.55,0,0,1,515.6,546.7Zm.409.233a1.034,1.034,0,0,0-.409-.078h0a1.391,1.391,0,0,0-.964.4,2.534,2.534,0,0,0-.6,1.495,3.406,3.406,0,0,0,.661.067,1.937,1.937,0,0,0,.943-.207,1.31,1.31,0,0,0,.7-1.221l-.4-.06Z" transform="translate(-510.32 -545.863)" fill="#fff"/>
      <path id="パス_838" data-name="パス 838" d="M515.577,550.982h0a1.541,1.541,0,0,1-1.049-.422,2.776,2.776,0,0,1-.683-1.649l0-.062.06-.017a3.37,3.37,0,0,1,.829-.105,2,2,0,0,1,.953.208,1.442,1.442,0,0,1,.8,1.422l-.009.054-.353.06.06.353-.048.026A1.183,1.183,0,0,1,515.577,550.982Zm-1.572-2.017a2.574,2.574,0,0,0,.628,1.482,1.384,1.384,0,0,0,.944.38h0a1.065,1.065,0,0,0,.436-.087l-.067-.4.4-.067a1.322,1.322,0,0,0-.731-1.206,1.851,1.851,0,0,0-.88-.19A3.345,3.345,0,0,0,514.005,548.966Z" transform="translate(-510.327 -545.499)" fill="#fff"/>
      <path id="パス_839" data-name="パス 839" d="M513.069,545.919l.055.007a1.443,1.443,0,0,1,1.13,1.18,2.742,2.742,0,0,1-.417,1.737l-.034.053-.059-.022a2.784,2.784,0,0,1-1.381-1.131,1.452,1.452,0,0,1,.186-1.623l.039-.039.321.159Zm.671,2.785a2.54,2.54,0,0,0,.362-1.568,1.324,1.324,0,0,0-.944-1.048l-.178.359-.359-.178a1.311,1.311,0,0,0-.119,1.4A2.578,2.578,0,0,0,513.74,548.7Z" transform="translate(-510.623 -546.003)" fill="#fff"/>
      <path id="パス_840" data-name="パス 840" d="M512.067,549.867a1.414,1.414,0,0,1-1.255-.695l-.025-.049.251-.257-.257-.25.024-.05a1.417,1.417,0,0,1,1.279-.722,1.673,1.673,0,0,1,.192.011,2.743,2.743,0,0,1,1.523.933l.04.048-.039.049a2.779,2.779,0,0,1-1.5.964A1.615,1.615,0,0,1,512.067,549.867Zm-1.091-.716a1.275,1.275,0,0,0,1.091.561,1.459,1.459,0,0,0,.209-.015,2.578,2.578,0,0,0,1.361-.858,2.54,2.54,0,0,0-1.379-.829,1.52,1.52,0,0,0-.174-.01,1.279,1.279,0,0,0-1.114.584l.287.28Z" transform="translate(-510.875 -545.658)" fill="#fff"/>
    </g>
    <path id="パス_841" data-name="パス 841" d="M524.424,503.527l.335.26.26-.335a1.524,1.524,0,0,1,.916,1.45,3,3,0,0,1-.808,1.744,3.05,3.05,0,0,1-1.222-1.483A1.523,1.523,0,0,1,524.424,503.527Z" transform="translate(6.275 2.389)" fill="#fff"/>
    <g id="グループ_1362" data-name="グループ 1362" transform="translate(549.741 561.28)">
      <g id="グループ_1361" data-name="グループ 1361" transform="translate(1.382)">
        <path id="パス_842" data-name="パス 842" d="M542.261,550.394l.092.177.177-.092.022.021a.8.8,0,0,1,.122.9,1.541,1.541,0,0,1-.752.645l-.032.013-.019-.029a1.519,1.519,0,0,1-.252-.959.8.8,0,0,1,.613-.668Zm.056.293-.1-.2a.734.734,0,0,0-.511.593,1.407,1.407,0,0,0,.22.865,1.429,1.429,0,0,0,.673-.587.726.726,0,0,0-.081-.777Z" transform="translate(-541.647 -550.441)" fill="#fff"/>
      </g>
      <path id="パス_843" data-name="パス 843" d="M540.937,553.227a.64.64,0,0,1-.294-.066l-.027-.014.029-.2-.2-.029-.006-.03a.806.806,0,0,1,.428-.8,1.159,1.159,0,0,1,.564-.125,1.888,1.888,0,0,1,.424.048l.034.009v.035a1.525,1.525,0,0,1-.36.924A.863.863,0,0,1,540.937,553.227Zm-.227-.129a.574.574,0,0,0,.227.043h0a.774.774,0,0,0,.535-.222,1.41,1.41,0,0,0,.331-.829,1.887,1.887,0,0,0-.368-.038,1.076,1.076,0,0,0-.522.115.727.727,0,0,0-.39.678l.22.032Z" transform="translate(-540.476 -550.159)" fill="#fff"/>
      <path id="パス_844" data-name="パス 844" d="M540.955,550.852a.853.853,0,0,1,.581.234,1.541,1.541,0,0,1,.379.915l0,.035-.033.009a1.867,1.867,0,0,1-.462.059,1.11,1.11,0,0,1-.528-.116.8.8,0,0,1-.446-.789l0-.03.2-.033-.033-.2.027-.015A.657.657,0,0,1,540.955,550.852Zm.872,1.118a1.431,1.431,0,0,0-.349-.822.768.768,0,0,0-.523-.211.592.592,0,0,0-.243.049l.037.219-.22.037a.735.735,0,0,0,.405.669,1.026,1.026,0,0,0,.488.105A1.855,1.855,0,0,0,541.826,551.97Z" transform="translate(-540.474 -550.359)" fill="#fff"/>
      <path id="パス_845" data-name="パス 845" d="M542.3,553.72l-.03,0a.8.8,0,0,1-.627-.655,1.517,1.517,0,0,1,.231-.964l.019-.029.033.012a1.545,1.545,0,0,1,.767.628.805.805,0,0,1-.1.9l-.022.021-.178-.088Zm-.371-1.545a1.4,1.4,0,0,0-.2.87.732.732,0,0,0,.524.582l.1-.2.2.1a.727.727,0,0,0,.066-.779A1.434,1.434,0,0,0,541.925,552.175Z" transform="translate(-540.262 -550.139)" fill="#fff"/>
      <path id="パス_846" data-name="パス 846" d="M542.931,551.451a.785.785,0,0,1,.7.386l.014.027-.14.142.142.139-.013.028a.785.785,0,0,1-.708.4.928.928,0,0,1-.107-.006,1.519,1.519,0,0,1-.846-.517l-.022-.027.022-.027a1.547,1.547,0,0,1,.833-.536A.9.9,0,0,1,542.931,551.451Zm.607.4a.708.708,0,0,0-.607-.312.815.815,0,0,0-.115.008,1.436,1.436,0,0,0-.755.477,1.408,1.408,0,0,0,.766.459.841.841,0,0,0,.1.006.708.708,0,0,0,.617-.324l-.159-.155Z" transform="translate(-540.201 -550.252)" fill="#fff"/>
    </g>
    <path id="パス_847" data-name="パス 847" d="M552.131,546.715a1.444,1.444,0,0,0,1.548-.5l-.245-.317.317-.245a1.443,1.443,0,0,0-1.377-.866,1.644,1.644,0,0,0-.314.035,1.623,1.623,0,0,0,.195-.244,1.442,1.442,0,0,0,.007-1.626l-.378.136-.136-.378a1.444,1.444,0,0,0-1.248,1.042,1.567,1.567,0,0,0-.066.3,1.6,1.6,0,0,0-.17-.26,1.443,1.443,0,0,0-1.544-.509l.012.4-.4.013a1.443,1.443,0,0,0,.6,1.509,1.571,1.571,0,0,0,.276.159,1.545,1.545,0,0,0-.308.084,1.443,1.443,0,0,0-.961,1.312l.386.112-.112.385a1.445,1.445,0,0,0,1.622-.109,1.6,1.6,0,0,0,.247-.225,1.579,1.579,0,0,0-.015.334,1.444,1.444,0,0,0,.951,1.319l.225-.332.332.225a1.442,1.442,0,0,0,.4-1.576,1.7,1.7,0,0,0-.131-.291A1.639,1.639,0,0,0,552.131,546.715Zm-1.415-1.125,0-.027,0,0h0v0h0l.007.009Z" transform="translate(10.607 9.449)" fill="#fff"/>
    <path id="パス_848" data-name="パス 848" d="M505.279,541.96l.168.129.129-.167a.762.762,0,0,1,.459.727,1.5,1.5,0,0,1-.4.872,1.525,1.525,0,0,1-.611-.742A.759.759,0,0,1,505.279,541.96Z" transform="translate(2.884 9.307)" fill="#fff"/>
    <path id="パス_849" data-name="パス 849" d="M528.372,534.53a1.319,1.319,0,0,0,1.3-.727l-.278-.24.24-.277a1.32,1.32,0,0,0-1.391-.524,1.442,1.442,0,0,0-.274.089,1.465,1.465,0,0,0,.129-.254,1.318,1.318,0,0,0-.292-1.457l-.313.191-.191-.314a1.322,1.322,0,0,0-.927,1.161,1.41,1.41,0,0,0,0,.282,1.538,1.538,0,0,0-.2-.2,1.319,1.319,0,0,0-1.476-.172l.085.356-.356.085a1.317,1.317,0,0,0,.818,1.24,1.416,1.416,0,0,0,.275.092,1.455,1.455,0,0,0-.26.132,1.317,1.317,0,0,0-.621,1.35l.365.029-.03.366a1.32,1.32,0,0,0,1.432-.394,1.469,1.469,0,0,0,.181-.247,1.448,1.448,0,0,0,.047.3,1.32,1.32,0,0,0,1.093,1.008l.14-.339.339.142a1.319,1.319,0,0,0,.068-1.484,1.544,1.544,0,0,0-.171-.236A1.455,1.455,0,0,0,528.372,534.53Zm-1.472-.748v-.026h0l0,0,0,0,.007.008Z" transform="translate(6.377 7.346)" fill="#fff"/>
    <path id="パス_850" data-name="パス 850" d="M509.384,527.208a1.678,1.678,0,0,0,1.646-.924l-.354-.3.3-.353a1.67,1.67,0,0,0-1.765-.664,1.843,1.843,0,0,0-.348.111,1.868,1.868,0,0,0,.164-.322,1.674,1.674,0,0,0-.37-1.85l-.4.243-.242-.4a1.676,1.676,0,0,0-1.177,1.474,1.815,1.815,0,0,0,0,.357,1.846,1.846,0,0,0-.255-.254,1.673,1.673,0,0,0-1.874-.221l.107.453-.453.107a1.678,1.678,0,0,0,1.038,1.576,1.858,1.858,0,0,0,.35.117,1.883,1.883,0,0,0-.33.166,1.673,1.673,0,0,0-.788,1.714l.464.038-.038.465a1.676,1.676,0,0,0,1.819-.5.209.209,0,1,1,.288.071,1.678,1.678,0,0,0,1.387,1.279l.179-.43.429.179a1.676,1.676,0,0,0,.086-1.885,1.882,1.882,0,0,0-.217-.3A1.85,1.85,0,0,0,509.384,527.208Zm-1.87-.95v-.033h0v0h0l.008.01Z" transform="translate(2.771 5.859)" fill="#fff"/>
    <path id="パス_851" data-name="パス 851" d="M531.4,519.615a.84.84,0,0,0,.825-.464l-.177-.152.152-.177a.839.839,0,0,0-.886-.333,1,1,0,0,0-.174.055.882.882,0,0,0-.1-1.089l-.2.122-.122-.2a.842.842,0,0,0-.591.74.1.1,0,1,1-.129.051.841.841,0,0,0-.94-.11l.054.228-.228.053a.842.842,0,0,0,.521.79.95.95,0,0,0,.175.059.908.908,0,0,0-.165.084.84.84,0,0,0-.4.859l.233.019-.019.234a.842.842,0,0,0,.912-.251.928.928,0,0,0,.116-.157.966.966,0,0,0,.029.192.84.84,0,0,0,.7.641l.09-.215.215.09a.838.838,0,0,0,.044-.945.975.975,0,0,0-.109-.151A.959.959,0,0,0,531.4,519.615Zm-.938-.477v-.016h0l0,0Z" transform="translate(7.179 4.894)" fill="#fff"/>
    <path id="パス_852" data-name="パス 852" d="M557.868,525.033a1.172,1.172,0,0,0,1.148-.645l-.247-.211.211-.247a1.168,1.168,0,0,0-1.232-.464,1.248,1.248,0,0,0-.243.079,1.343,1.343,0,0,0,.115-.225,1.166,1.166,0,0,0-.258-1.291l-.277.169-.169-.277a1.17,1.17,0,0,0-.821,1.029,1.346,1.346,0,0,0,0,.249,1.321,1.321,0,0,0-.177-.177,1.167,1.167,0,0,0-1.307-.153l.074.316-.315.074a1.168,1.168,0,0,0,.724,1.1,1.268,1.268,0,0,0,.244.081,1.326,1.326,0,0,0-.231.117,1.168,1.168,0,0,0-.55,1.2l.324.026-.027.325a1.171,1.171,0,0,0,1.27-.35,1.234,1.234,0,0,0,.159-.217,1.209,1.209,0,0,0,.043.267,1.167,1.167,0,0,0,.967.892l.125-.3.3.125a1.166,1.166,0,0,0,.06-1.314,1.347,1.347,0,0,0-.152-.21A1.319,1.319,0,0,0,557.868,525.033Zm-1.3-.663v-.022h0v0h0l.007.006Z" transform="translate(11.762 5.71)" fill="#fff"/>
    <path id="パス_853" data-name="パス 853" d="M532.525,534.143l-.143.153.155.143a.756.756,0,0,1-.758.387,1.486,1.486,0,0,1-.825-.478,1.505,1.505,0,0,1,.787-.536A.753.753,0,0,1,532.525,534.143Z" transform="translate(7.553 7.847)" fill="#fff"/>
    <path id="パス_854" data-name="パス 854" d="M524.681,540.638l-.107-.028-.027.107a.4.4,0,0,1-.37-.255.3.3,0,1,1,.463-.271A.4.4,0,0,1,524.681,540.638Z" transform="translate(6.327 8.954)" fill="#fff"/>
    <path id="パス_855" data-name="パス 855" d="M535.4,538.045l-.107.028-.028-.107a.4.4,0,0,0-.369.255.782.782,0,0,0,.015.5.793.793,0,0,0,.446-.231A.4.4,0,0,0,535.4,538.045Z" transform="translate(8.254 8.595)" fill="#fff"/>
    <path id="パス_856" data-name="パス 856" d="M532.873,541.273l.106.028.028-.107a.4.4,0,0,1,.369.255.783.783,0,0,1-.015.5.793.793,0,0,1-.446-.231A.4.4,0,0,1,532.873,541.273Z" transform="translate(7.889 9.176)" fill="#fff"/>
    <path id="パス_857" data-name="パス 857" d="M557.656,535a.587.587,0,0,0,.661.013l-.053-.153.153-.053a.584.584,0,0,0-.414-.513.647.647,0,0,0-.124-.028.68.68,0,0,0,.106-.067.587.587,0,0,0,.217-.624l-.163,0,0-.163a.585.585,0,0,0-.617.235.619.619,0,0,0-.064.107.751.751,0,0,0-.032-.123.585.585,0,0,0-.526-.4l-.047.155-.156-.047a.585.585,0,0,0,.033.658.61.61,0,0,0,.085.1.6.6,0,0,0-.13-.008.585.585,0,0,0-.542.376l.133.093-.093.133a.586.586,0,0,0,.637.172.677.677,0,0,0,.124-.053.574.574,0,0,0-.05.125.584.584,0,0,0,.191.631l.13-.1.1.13a.585.585,0,0,0,.36-.552.069.069,0,1,1,.084-.051Zm-.394-.618.006-.009,0,0h0v0Z" transform="translate(12.064 7.745)" fill="#fff"/>
    <path id="パス_858" data-name="パス 858" d="M515.062,534.752a.424.424,0,0,1-.414-.232l.089-.077-.076-.088a.419.419,0,0,1,.444-.166.391.391,0,0,1,.087.028.442.442,0,0,1-.041-.081.422.422,0,0,1,.093-.465l.1.061.06-.1a.42.42,0,0,1,.3.37.453.453,0,0,1,0,.09.407.407,0,0,1,.064-.064.42.42,0,0,1,.471-.055l-.027.113.113.027a.422.422,0,0,1-.261.4.483.483,0,0,1-.087.03.444.444,0,0,1,.083.041.421.421,0,0,1,.2.431l-.117.009.009.117a.42.42,0,0,1-.457-.125.477.477,0,0,1-.058-.079.385.385,0,0,1-.015.1.421.421,0,0,1-.348.321l-.045-.109-.109.046a.424.424,0,0,1-.021-.474.491.491,0,0,1,.054-.076A.534.534,0,0,1,515.062,534.752Zm.469-.24V534.5h0l0,0Z" transform="translate(4.621 7.816)" fill="#fff"/>
    <path id="パス_859" data-name="パス 859" d="M532.1,508.107l-.014.21-.209-.014a.756.756,0,0,0,.237.816,1.487,1.487,0,0,0,.912.274,1.509,1.509,0,0,0-.149-.941A.755.755,0,0,0,532.1,508.107Z" transform="translate(7.711 3.223)" fill="#fff"/>
    <path id="パス_860" data-name="パス 860" d="M508.939,539.474a.388.388,0,0,0,.38-.214l-.081-.07.07-.081a.384.384,0,0,0-.407-.153.351.351,0,0,0-.08.026.56.56,0,0,0,.038-.074.386.386,0,0,0-.086-.427l-.091.055-.057-.092a.387.387,0,0,0-.271.341.378.378,0,0,0,0,.083.4.4,0,0,0-.059-.059.385.385,0,0,0-.432-.051l.025.1-.1.025a.389.389,0,0,0,.24.363.468.468,0,0,0,.081.027.4.4,0,0,0-.258.434l.107.008-.01.107a.388.388,0,0,0,.42-.116.514.514,0,0,0,.053-.072.382.382,0,0,0,.014.089.388.388,0,0,0,.32.295l.041-.1.1.041a.387.387,0,0,0,.02-.435.41.41,0,0,0-.051-.07A.4.4,0,0,0,508.939,539.474Zm-.432-.22v-.007h0l0,0Z" transform="translate(3.385 8.682)" fill="#fff"/>
    <path id="パス_861" data-name="パス 861" d="M524.4,508.265l-.052.126.126.052a.49.49,0,0,1-.37.409.964.964,0,0,1-.612-.1.985.985,0,0,1,.355-.507A.491.491,0,0,1,524.4,508.265Z" transform="translate(6.212 3.238)" fill="#fff"/>
    <g id="グループ_1364" data-name="グループ 1364" transform="translate(535.706 519.121)">
      <g id="グループ_1363" data-name="グループ 1363" transform="translate(0.471)">
        <path id="パス_862" data-name="パス 862" d="M529.205,514.685l.015,0a.4.4,0,0,1,.306.334.756.756,0,0,1-.125.478l-.01.014-.016-.006a.769.769,0,0,1-.376-.321.4.4,0,0,1,.061-.448l.011-.01.088.045Zm.17.775a.7.7,0,0,0,.109-.432.361.361,0,0,0-.255-.3l-.051.1-.1-.051a.36.36,0,0,0-.041.388A.712.712,0,0,0,529.375,515.46Z" transform="translate(-528.98 -514.708)" fill="#999"/>
      </g>
      <path id="パス_863" data-name="パス 863" d="M529.89,516.1a.429.429,0,0,1-.3-.122.759.759,0,0,1-.18-.461V515.5l.017,0a.942.942,0,0,1,.212-.024.573.573,0,0,1,.281.063.4.4,0,0,1,.215.4l0,.015-.1.014.016.1-.014.007A.324.324,0,0,1,529.89,516.1Zm-.432-.567a.7.7,0,0,0,.166.414.385.385,0,0,0,.267.111.292.292,0,0,0,.114-.021l-.017-.11.111-.016a.363.363,0,0,0-.2-.337.531.531,0,0,0-.26-.057A.945.945,0,0,0,529.458,515.531Z" transform="translate(-528.426 -514.567)" fill="#999"/>
      <path id="パス_864" data-name="パス 864" d="M529.882,514.913a.328.328,0,0,1,.155.036l.013.007-.017.1.1.017,0,.015a.4.4,0,0,1-.222.394.549.549,0,0,1-.262.058.928.928,0,0,1-.231-.03l-.017,0v-.017a.772.772,0,0,1,.19-.457A.426.426,0,0,1,529.882,514.913Zm.121.067a.3.3,0,0,0-.121-.024.382.382,0,0,0-.261.1.716.716,0,0,0-.174.41.918.918,0,0,0,.2.024.508.508,0,0,0,.242-.052.364.364,0,0,0,.2-.334l-.109-.019Z" transform="translate(-528.428 -514.667)" fill="#999"/>
      <path id="パス_865" data-name="パス 865" d="M529.188,516.344l-.044-.089-.089.045-.011-.011a.4.4,0,0,1-.051-.449.771.771,0,0,1,.383-.313l.016-.006.009.015a.754.754,0,0,1,.115.481.4.4,0,0,1-.313.326Zm-.025-.146.05.1a.365.365,0,0,0,.262-.29.7.7,0,0,0-.1-.434.715.715,0,0,0-.343.285.365.365,0,0,0,.033.389Z" transform="translate(-528.51 -514.557)" fill="#999"/>
      <path id="パス_866" data-name="パス 866" d="M528.912,515.212h0a.456.456,0,0,1,.062,0,.774.774,0,0,1,.416.267l.011.014-.011.013a.765.765,0,0,1-.422.259.4.4,0,0,1-.408-.2l-.007-.014.071-.069-.069-.071.007-.013A.39.39,0,0,1,528.912,515.212Zm.433.285a.717.717,0,0,0-.377-.238.407.407,0,0,0-.056,0,.358.358,0,0,0-.3.156l.077.08-.079.077a.368.368,0,0,0,.357.16A.709.709,0,0,0,529.346,515.5Z" transform="translate(-528.58 -514.613)" fill="#999"/>
    </g>
    <path id="楕円形_1" data-name="楕円形 1" d="M45.693-.215A45.92,45.92,0,0,1,63.562,87.993a45.92,45.92,0,0,1-35.739-84.6A45.621,45.621,0,0,1,45.693-.215Zm0,91.386a45.49,45.49,0,0,0,17.7-87.382A45.49,45.49,0,0,0,27.991,87.6,45.193,45.193,0,0,0,45.693,91.171Z" transform="translate(492.816 494.401)" fill="#fff"/>
    <path id="楕円形_2" data-name="楕円形 2" d="M49.5-.573A50.086,50.086,0,0,1,68.991,95.638,50.086,50.086,0,0,1,30.009,3.362,49.76,49.76,0,0,1,49.5-.573Zm0,99A48.94,48.94,0,0,0,68.544,4.418,48.94,48.94,0,0,0,30.456,94.582,48.62,48.62,0,0,0,49.5,98.427Z" transform="translate(488.952 490.646)" fill="#fff"/>
  </g>
</svg>
