<svg xmlns="http://www.w3.org/2000/svg" width="101" height="101" viewBox="0 0 101 101">
  <g id="logo_2" transform="translate(-143.677 -362.895)">
    <path id="パス_867" data-name="パス 867" d="M242.783,417.275h7.881c.231,0,.417-.116.417-.29a1.275,1.275,0,0,0-.186-.465c-1.852-2.034-2.408-2.673-4.352-4.59" transform="translate(-31.824 -15.581)" fill="#203966"/>
    <path id="パス_868" data-name="パス 868" d="M246.364,393.821a1.166,1.166,0,0,0-.139-.407c-1.9-1.976-2.5-2.615-4.4-4.532-1.115,1.51-2.592,3.477-3.733,5.229H245.9C246.225,394.111,246.364,394.053,246.364,393.821Z" transform="translate(-30.302 -8.105)" fill="#203966"/>
    <line id="線_2" data-name="線 2" x1="0.003" transform="translate(206.219 386.006)" fill="#ffb5bb"/>
    <path id="パス_869" data-name="パス 869" d="M232.865,419.356a24.512,24.512,0,0,1-4.183-3.6l-1.219-1.336a28.133,28.133,0,0,1-4.242-6.682c-.274-.541-1.09-.767-2.426,0,0,0,1.038-.249,1.207,0,.147.218,1.917,4.59,3.195,6.682l.93,1.336a44.391,44.391,0,0,0,3.544,4.474c4.067,4.59,6.856,5.5,11.795,8.178,1.8-2.731,2.266-1.67,4.648-1.961l.058-1.1A31.565,31.565,0,0,1,232.865,419.356Z" transform="translate(-24.691 -14.061)" fill="#203966"/>
    <path id="パス_870" data-name="パス 870" d="M243.387,405.546c.186,0,.417-.174.417-.291s-.093-.232-.185-.407c-1.853-1.917-2.409-2.5-4.26-4.357-.951,1.4-2.509,3.469-3.59,5.054" transform="translate(-29.548 -11.871)" fill="#203966"/>
    <path id="パス_871" data-name="パス 871" d="M234.61,430.721a.847.847,0,0,0-.291-.465c-1.453-1.278-1.917-1.627-3.428-2.847-.639.755-.2,2.847-.2,2.847s.926,5.76,0,7.345c-.168.288-1.836.655-1.836.655s1.667.367,1.836.654c1.058,1.812,1.2,6.672,0,8.395a6.5,6.5,0,0,1-1.836.655s1.667.366,1.836.654a5.594,5.594,0,0,1,0,2.153c0,.523.174.64.7.64a7.588,7.588,0,0,0,2.4-.291c.349-.116.465-.232.465-.7-.29-4.415-.465-11.271-.465-18.709C234.494,431.07,234.61,430.953,234.61,430.721Z" transform="translate(-27.307 -20.603)" fill="#203966"/>
    <path id="パス_872" data-name="パス 872" d="M188.288,405.393l.349,1.975a28.6,28.6,0,0,1,3.893-.232A19.006,19.006,0,0,0,188.288,405.393Z" transform="translate(-14.146 -13.461)" fill="#203966"/>
    <path id="パス_873" data-name="パス 873" d="M179.688,417.175l.349,2.092a22.815,22.815,0,0,1,4.474-.291A24.425,24.425,0,0,0,179.688,417.175Z" transform="translate(-11.357 -17.283)" fill="#203966"/>
    <path id="パス_874" data-name="パス 874" d="M201.889,383.98a35.928,35.928,0,0,1-1.045,7.2l-.349,1.336a45.216,45.216,0,0,1-2.033,6.333l-.582,1.336a46.059,46.059,0,0,1-3.6,6.682l-.872,1.336c-4.242,6.1-10.241,10.691-16.923,15.514l.465.813a44.97,44.97,0,0,0,14-10.226c.117,4.242.117,4.242.117,6.449,0,3.138-.058,6.74-.291,16.095,0,.406.174.58.7.58a8.062,8.062,0,0,0,2.172-.291c.348-.116.465-.348.523-.813a4.666,4.666,0,0,1,0-1.8c.17-.291,1.847-.661,1.847-.661a6.547,6.547,0,0,1-1.847-.661c-1.2-1.719-1.057-6.572,0-8.382.17-.29,1.847-.661,1.847-.661s-1.678-.37-1.847-.661c-.926-1.584,0-7.339,0-7.339l.465-1.336c-1.569-.93-1.184-1.1-2.52-1.859a45.1,45.1,0,0,0,3.776-4.764l.93-1.336a52.863,52.863,0,0,0,3.661-6.682l.581-1.336a45.336,45.336,0,0,0,2.266-6.333l.349-1.336c.291-1.161.523-2.091.988-4.067,2.382-.639,2.731-.813,2.731-1.336C207.394,385.142,208.339,385.084,201.889,383.98Z" transform="translate(-10.317 -6.515)" fill="#203966"/>
    <path id="パス_875" data-name="パス 875" d="M185.364,393.869l.407,2.15a44.07,44.07,0,0,1,4.59-.291A27.411,27.411,0,0,0,185.364,393.869Z" transform="translate(-13.198 -9.723)" fill="#203966"/>
    <path id="パス_876" data-name="パス 876" d="M219.837,463.728l-.083-.055c-.145-.1-.306-.164-.455-.255a2.188,2.188,0,0,0-.486-.214,1.252,1.252,0,0,1,.419-.271,2.02,2.02,0,0,1,.469-.228l.079.066c.12.044.21-.057.332-.076a.626.626,0,0,0,.047.083.722.722,0,0,0,.068.07h.192l.105-.243a.432.432,0,0,0,.315.13c.109-.013.17-.108.248-.181h.194l.036.027c.056-.041.113-.082.172-.123.074-.15-.075-.449-.15-.449a2.824,2.824,0,0,0-1.022-.505,7.183,7.183,0,0,0-.988.368c-.176.071-.352.144-.532.2-.093.031-.185.065-.278.1s-.193.055-.282.087a2.827,2.827,0,0,0-.468.133.088.088,0,0,1-.053.008.6.6,0,0,0-.283.041,3.209,3.209,0,0,0-.4.105,1.826,1.826,0,0,0-.353.188c-.158.122-.326.233-.5.339a3.364,3.364,0,0,1-.407.236c-.174.077-.353.142-.528.215a.645.645,0,0,0-.2.1c-.055.053-.108.047-.184.044v-1.358a.461.461,0,0,1,.036-.228c.059-.112.034-.243.075-.361a2.486,2.486,0,0,0,.055-.245.732.732,0,0,0,.131-.3,2.6,2.6,0,0,1,.2-.571.654.654,0,0,0,.1-.332c0-.033.027-.066.03-.1.007-.083.057-.156.046-.245a.426.426,0,0,1,.034-.134,7.077,7.077,0,0,0,.187-.708c.1-.137.057-.319.146-.463.031-.051.016-.13.024-.2a.649.649,0,0,1,.149-.293c.061-.086.116-.176.168-.268a.483.483,0,0,1,.08-.1c.135-.137.272-.273.406-.407,0-.018,0-.032,0-.043a1,1,0,0,0,.075-.493v-.05c-.213-.077-.431-.145-.652-.206l-.032.2a4.952,4.952,0,0,1-.518.559.61.61,0,0,0-.107.161c-.116.264-.2.539-.33.8a2.881,2.881,0,0,1-.255.661,2.159,2.159,0,0,1-.092.354c-.044.078-.014.173-.086.247a.746.746,0,0,0-.1.219,1.757,1.757,0,0,1-.114.232c-.059.091-.131.172-.21.274a.588.588,0,0,1-.049-.12c-.016-.119-.031-.239-.037-.358a2.736,2.736,0,0,0-.006-.373,3.469,3.469,0,0,1-.034-.6.151.151,0,0,0-.011-.051,1.059,1.059,0,0,1-.061-.161,1.579,1.579,0,0,0-.019-.163c-.02-.059-.036-.121-.059-.18s-.068-.1-.068-.157c0-.084-.075-.138-.078-.211s-.051-.132-.067-.2a1.822,1.822,0,0,1-.078-.284c-.007-.112-.095-.19-.086-.305s-.067-.2-.077-.3a.959.959,0,0,0-.105-.234c-.048-.12-.136-.217-.187-.334s-.1-.234-.156-.346-.113-.253-.182-.375c-.08-.142-.173-.276-.26-.415-.348-.1-.559.324-.631.611a1.48,1.48,0,0,0-.041.159,1.57,1.57,0,0,1,.141.3,1.075,1.075,0,0,0,.081.191c.118.245.2.5.3.755a3.508,3.508,0,0,1,.123.4c.005.022.022.042.026.063.013.064-.014.127.033.194.033.046-.014.13.041.188.013.013,0,.048,0,.073a2.408,2.408,0,0,0,.043.45,2.073,2.073,0,0,1,.032.416,3.65,3.65,0,0,1,.037.6c.072.126.029.264.036.4a1.7,1.7,0,0,1,0,.41,2.913,2.913,0,0,0-.032.3c-.009.1-.035.2-.041.3a.883.883,0,0,1-.08.3,1.47,1.47,0,0,0-.14.634c0,.079,0,.158,0,.257-.138-.069-.262-.119-.373-.189a2.29,2.29,0,0,1-.3-.18,3.11,3.11,0,0,0-.294-.189,1.782,1.782,0,0,0-.29-.2c-.091-.037-.119-.132-.214-.162-.074-.023-.132-.1-.2-.151-.174-.135-.344-.278-.526-.4a1.991,1.991,0,0,1-.23-.208.156.156,0,0,1-.04-.095,2.779,2.779,0,0,0-.18-.654c-.024-.073-.08-.136-.079-.209a.694.694,0,0,0-.079-.23c-.023-.072-.047-.143-.076-.212a1.379,1.379,0,0,0-.1-.184,4.464,4.464,0,0,0-.675-.38c.009.024.019.047.026.072.043.143.111.278.168.416a4.468,4.468,0,0,1,.316.972c.063.081.009.185.043.263a.731.731,0,0,1,.032.234.572.572,0,0,1-.134.061.637.637,0,0,1-.411-.085c-.128-.082-.268-.138-.4-.214a2.242,2.242,0,0,1-.431-.269.463.463,0,0,1-.12-.175c-.066-.166-.126-.334-.188-.5a.752.752,0,0,0-.309-.431c-.167-.1-.311-.227-.489-.309a.694.694,0,0,1-.184-.14,4.466,4.466,0,0,0-.366-.291.534.534,0,0,1-.168-.277l-.158-.15h-.281a1.16,1.16,0,0,0,.146.491c.055.072.14.116.175.208.012.031.068.043.1.068a2.922,2.922,0,0,0,.445.282,1.394,1.394,0,0,1,.159.111c.1.072.206.139.3.216a.962.962,0,0,1,.258.378,1.276,1.276,0,0,0,.143.287.685.685,0,0,0,.047.309.8.8,0,0,0,.339.306c.124.063.249.122.371.188a1.7,1.7,0,0,1,.278.189,2.108,2.108,0,0,0,.643.388.282.282,0,0,0,.21.012c.076-.045.146-.005.213-.037a1.206,1.206,0,0,0,.437.3,1.467,1.467,0,0,1,.276.148c.033.017.053.061.1.114a1.293,1.293,0,0,1-.225,0,.587.587,0,0,0-.344,0,.1.1,0,0,1-.037,0,2.743,2.743,0,0,0-.452.038c-.15,0-.3,0-.449,0a.628.628,0,0,1-.19-.037,2.817,2.817,0,0,1-.459-.111c-.13.027-.249-.039-.377-.04-.076,0-.151-.028-.228-.034a.856.856,0,0,1-.241-.007,1.855,1.855,0,0,0-.257-.055.572.572,0,0,0-.338.013c-.257.089-.506.192-.754.3-.151.068-.309.129-.46.2a4.926,4.926,0,0,0-.592.295h-.207l-.227-.075c-.1-.034-.2-.069-.3-.1a2.279,2.279,0,0,0-.342-.119,1.67,1.67,0,0,0-.361-.085.6.6,0,0,1-.23-.07h0a.959.959,0,0,0-.1.059c-.1.049.48.443.576.541.14-.014.227.111.369.124a.359.359,0,0,1-.143.137c.193.08.378.158.561.246.074-.032.151-.06.224-.095a1.669,1.669,0,0,0,.5.039,1.237,1.237,0,0,1,.166-.11c.111-.051.211-.125.322-.17.172-.07.328-.178.5-.234a1.308,1.308,0,0,1,.488-.092c.249.017.5,0,.748,0a.81.81,0,0,1,.314.008c.1.045.211-.018.291.066a.684.684,0,0,1,.291.066.837.837,0,0,0,.3.044c.172,0,.335.056.509.043s.361,0,.542,0,.35-.006.524,0a.9.9,0,0,1,.432.175c.058.036.154.053.159.152.129.078.236.2.405.2a.963.963,0,0,1,.436.163.76.76,0,0,1,.12.174c.07.132.133.269.2.4.007.016.026.031.024.045-.011.123.091.22.077.343a.269.269,0,0,0,.025.12.537.537,0,0,1,.051.242.483.483,0,0,0,.034.134c.014.057.026.114.038.172s-.017.128.023.2c.027.047.007.12.016.18s.026.114.036.172a.72.72,0,0,1-.045.356.743.743,0,0,0-.028.23.859.859,0,0,1-.209.55,1.784,1.784,0,0,0-.291.478c0,.005-.013.009-.013.014a.506.506,0,0,1-.211.362,1.507,1.507,0,0,1-.334.232,2.662,2.662,0,0,1-.415.173.84.84,0,0,1-.3.044,1.264,1.264,0,0,1-.293-.059c-.124-.033-.253-.043-.377-.082-.043-.014-.1.026-.151.032a.917.917,0,0,1-.3.039c-.071.09-.2-.016-.269.074,0,0-.012,0-.018,0a2.748,2.748,0,0,0-.434.039c-.143,0-.288.008-.43,0a.752.752,0,0,1-.3-.077,1.3,1.3,0,0,0-.377-.126,1.008,1.008,0,0,0-.463-.051,2.4,2.4,0,0,0-.535.107c-.2,0-.394.047-.6.038-.032.184.795.533.824.539a.317.317,0,0,0,.1.02.626.626,0,0,1,.3.055c.067.022.171-.017.207.084.095,0,.186.083.275.041a.378.378,0,0,1,.157-.028,7.772,7.772,0,0,0,1.07-.034c.116-.023.238-.005.359-.036a1.054,1.054,0,0,1,.316,0c.107.006.215.022.321.037a.207.207,0,0,1,.078.037c.108.072.215.146.33.224a1.528,1.528,0,0,0,.615-.069,1.749,1.749,0,0,1,.216-.066c.072-.02.159-.009.206-.09.1,0,.163-.086.254-.109a1.025,1.025,0,0,0,.165-.071h.272c.042.137.138.254.11.407.06.075.013.172.043.245a.781.781,0,0,1,.032.236,3.19,3.19,0,0,1,.19.514,1.611,1.611,0,0,1,.069.325c.014.18.11,2.135.122,2.148-.019.039-.043.065-.042.091a2.627,2.627,0,0,1-.077.661c-.04.18-.63,5.255-.637,5.31a5.052,5.052,0,0,1-.441,1.258.724.724,0,0,0-.188.22,2.206,2.206,0,0,1-.377.38,3.144,3.144,0,0,1-.474.258,4.442,4.442,0,0,0-.539.322,6.191,6.191,0,0,1-.622.257,1.37,1.37,0,0,1-.532.118c-.063.065-.84.37-.7.37.811,0,2.621-.441,3.431-.448a9.873,9.873,0,0,0,1.1-.367,1.79,1.79,0,0,1,.961.513,9.292,9.292,0,0,0,1.609.681,2.177,2.177,0,0,1-.366-.632.6.6,0,0,1,.064-.544,12.7,12.7,0,0,0,1.587.592,17.946,17.946,0,0,0,2.521.434,4.4,4.4,0,0,1,.659.031c.228.039.461,0,.7.035.3.045-2.28-.729-2.484-.786a3.555,3.555,0,0,1-.8-.327c-.058-.047-.536-.337-.623-.382a1.8,1.8,0,0,1-.513-.422c-.008-.009-.02-.016-.026-.027-.018-.036-.051-.075-.047-.109.02-.167-.386-1.642-.409-1.739-.051-.218-.19-2.113-.266-2.3-.006-.015-.229-6.716-.224-7.147a10.615,10.615,0,0,1,.034-1.294,2.037,2.037,0,0,0,0-.411.826.826,0,0,1,.079-.361c.035-.091.082-.178.111-.272.018-.06.039-.12.057-.18l.006,0,.105-.528c.086-.091.208-.2.31-.332a3,3,0,0,0,.274-.306c.07,0,.065-.073.1-.1s.092-.058.113-.1.109-.033.095-.107c.258-.136.48-.331.746-.455a.248.248,0,0,1,.2-.018.286.286,0,0,0,.242,0,.454.454,0,0,1,.186-.045.542.542,0,0,0,.19-.041.547.547,0,0,1,.228-.039c.118.005.236,0,.355,0C218.721,463.738,219.766,463.779,219.837,463.728Z" transform="translate(-19.039 -29.584)" fill="#203966"/>
    <path id="パス_877" data-name="パス 877" d="M216.624,447.56a.838.838,0,0,0,.824-.463l-.177-.151.152-.177a.838.838,0,0,0-.884-.333.969.969,0,0,0-.174.056.929.929,0,0,0,.082-.161.838.838,0,0,0-.186-.926l-.2.121-.122-.2a.841.841,0,0,0-.59.739.931.931,0,0,0,0,.179.875.875,0,0,0-.128-.128.838.838,0,0,0-.938-.11l.054.227-.227.054a.84.84,0,0,0,.52.789.9.9,0,0,0,.175.058.974.974,0,0,0-.165.084.839.839,0,0,0-.395.859l.232.019-.019.232a.84.84,0,0,0,.911-.251.893.893,0,0,0,.114-.157.923.923,0,0,0,.03.192.838.838,0,0,0,.695.64l.09-.215.215.09a.839.839,0,0,0,.043-.944.1.1,0,1,1,.068-.124Zm-.937-.476v-.016h0l0,.005Z" transform="translate(-22.522 -26.415)" fill="#ffb5bb"/>
    <g id="グループ_1372" data-name="グループ 1372" transform="translate(190.005 402.216)">
      <g id="グループ_1371" data-name="グループ 1371" transform="translate(2.766)">
        <path id="パス_878" data-name="パス 878" d="M217.125,420.451l.176.337.337-.176.078.073a1.676,1.676,0,0,1,.259,1.871,3.153,3.153,0,0,1-1.541,1.32l-.113.045-.067-.1a3.109,3.109,0,0,1-.513-1.965,1.666,1.666,0,0,1,1.279-1.388Zm.049.742-.213-.407a1.418,1.418,0,0,0-.926,1.123,2.684,2.684,0,0,0,.4,1.638,2.736,2.736,0,0,0,1.265-1.117,1.4,1.4,0,0,0-.121-1.449Z" transform="translate(-215.862 -420.615)" fill="#ffb5bb"/>
      </g>
      <path id="パス_879" data-name="パス 879" d="M212.691,428.6h0a1.344,1.344,0,0,1-.618-.14l-.095-.049.055-.375-.375-.055-.02-.105a1.679,1.679,0,0,1,.891-1.666,2.378,2.378,0,0,1,1.161-.26,3.845,3.845,0,0,1,.862.1l.118.03,0,.121a3.108,3.108,0,0,1-.741,1.892A1.783,1.783,0,0,1,212.691,428.6Zm-.384-.364a1.134,1.134,0,0,0,.384.064h0a1.479,1.479,0,0,0,1.025-.427,2.684,2.684,0,0,0,.638-1.561,3.727,3.727,0,0,0-.665-.062,2.086,2.086,0,0,0-1.016.222,1.4,1.4,0,0,0-.754,1.244l.454.067Z" transform="translate(-211.768 -422.393)" fill="#ffb5bb"/>
      <path id="パス_880" data-name="パス 880" d="M212.738,422.049h0a1.773,1.773,0,0,1,1.208.485,3.161,3.161,0,0,1,.78,1.874l.008.121-.117.033a3.818,3.818,0,0,1-.94.12,2.285,2.285,0,0,1-1.088-.239,1.667,1.667,0,0,1-.925-1.647l.018-.105.374-.063-.064-.375.094-.051A1.359,1.359,0,0,1,212.738,422.049Zm1.675,2.253a2.743,2.743,0,0,0-.671-1.549,1.472,1.472,0,0,0-1-.4h0a1.152,1.152,0,0,0-.412.072l.077.453-.452.076a1.419,1.419,0,0,0,.781,1.229,1.991,1.991,0,0,0,.946.2A3.651,3.651,0,0,0,214.413,424.3Z" transform="translate(-211.779 -421.129)" fill="#ffb5bb"/>
      <path id="パス_881" data-name="パス 881" d="M217.226,429.755l-.106-.013a1.666,1.666,0,0,1-1.309-1.36,3.114,3.114,0,0,1,.47-1.977l.065-.1.114.043a3.156,3.156,0,0,1,1.57,1.288,1.677,1.677,0,0,1-.219,1.877l-.076.075-.34-.169Zm-.754-3.08a2.7,2.7,0,0,0-.366,1.647,1.417,1.417,0,0,0,.95,1.1l.2-.411.411.2a1.4,1.4,0,0,0,.091-1.452A2.731,2.731,0,0,0,216.471,426.675Z" transform="translate(-213.117 -422.519)" fill="#ffb5bb"/>
      <path id="パス_882" data-name="パス 882" d="M218.966,424.144a1.634,1.634,0,0,1,1.452.808l.048.1-.266.271.271.266-.046.1a1.64,1.64,0,0,1-1.48.837,1.935,1.935,0,0,1-.219-.013,3.112,3.112,0,0,1-1.734-1.058l-.077-.094.076-.1a3.157,3.157,0,0,1,1.709-1.095A1.864,1.864,0,0,1,218.966,424.144Zm1.13.851a1.388,1.388,0,0,0-1.13-.551,1.565,1.565,0,0,0-.222.016,2.739,2.739,0,0,0-1.435.889,2.7,2.7,0,0,0,1.452.857,1.631,1.631,0,0,0,.185.011,1.4,1.4,0,0,0,1.157-.574l-.328-.321Z" transform="translate(-213.501 -421.808)" fill="#ffb5bb"/>
    </g>
    <path id="パス_883" data-name="パス 883" d="M244.2,442.346l-.158.393.393.157a1.523,1.523,0,0,1-1.146,1.275,2.994,2.994,0,0,1-1.9-.3,3.041,3.041,0,0,1,1.094-1.578A1.52,1.52,0,0,1,244.2,442.346Z" transform="translate(-31.372 -25.354)" fill="#ffb5bb"/>
    <path id="パス_884" data-name="パス 884" d="M189.4,451.633a1.509,1.509,0,0,0,1.48-.831l-.318-.273.272-.318a1.506,1.506,0,0,0-1.588-.6,1.675,1.675,0,0,0-.313.1,1.627,1.627,0,0,0,.148-.29,1.5,1.5,0,0,0-.332-1.663l-.358.217-.218-.357a1.507,1.507,0,0,0-1.059,1.326,1.644,1.644,0,0,0,0,.321,1.666,1.666,0,0,0-.229-.228,1.506,1.506,0,0,0-1.685-.2l.1.407-.407.1a1.508,1.508,0,0,0,.934,1.417.18.18,0,1,1,.018.255,1.507,1.507,0,0,0-.709,1.542l.418.034-.034.418a1.508,1.508,0,0,0,1.636-.451,1.662,1.662,0,0,0,.205-.28,1.7,1.7,0,0,0,.054.344,1.507,1.507,0,0,0,1.247,1.15l.161-.386.386.161a1.5,1.5,0,0,0,.078-1.7,1.714,1.714,0,0,0-.2-.27A1.655,1.655,0,0,0,189.4,451.633Zm-1.682-.855v-.029h0l0,0,0,0,.008.009Z" transform="translate(-13.041 -27.159)" fill="#ffb5bb"/>
    <path id="パス_885" data-name="パス 885" d="M242.827,455.708a.839.839,0,0,0,.824-.463l-.177-.152.152-.177a.837.837,0,0,0-.884-.332.876.876,0,0,0-.174.056,1.01,1.01,0,0,0,.082-.161.839.839,0,0,0-.186-.927l-.2.122-.121-.2a.839.839,0,0,0-.59.738.936.936,0,0,0,0,.179.949.949,0,0,0-.128-.128.839.839,0,0,0-.938-.11l.054.227-.227.054a.84.84,0,0,0,.52.789.1.1,0,1,1,.009.143.838.838,0,0,0-.395.859l.232.019-.019.232a.84.84,0,0,0,.911-.251.912.912,0,0,0,.114-.156.879.879,0,0,0,.03.191.84.84,0,0,0,.695.641l.09-.216.215.09a.838.838,0,0,0,.043-.944.921.921,0,0,0-.109-.151A.956.956,0,0,0,242.827,455.708Zm-.937-.476v-.016h0l0,0Z" transform="translate(-31.022 -29.058)" fill="#ffb5bb"/>
    <path id="パス_886" data-name="パス 886" d="M236.962,416.9a.67.67,0,0,0-.009-.755l-.174.066-.066-.174a.669.669,0,0,0-.572.493.746.746,0,0,0-.028.143.738.738,0,0,0-.081-.119.67.67,0,0,0-.721-.225l.009.186-.186.009a.671.671,0,0,0,.292.7.708.708,0,0,0,.125.07.751.751,0,0,0-.138.041.67.67,0,0,0-.436.616l.18.049-.049.18a.67.67,0,0,0,.752-.063.721.721,0,0,0,.108-.1.77.77,0,0,0,0,.148.672.672,0,0,0,.451.605l.1-.156.155.1a.669.669,0,0,0,.173-.734.733.733,0,0,0-.066-.14.782.782,0,0,0,.146.052.67.67,0,0,0,.715-.242l-.117-.145.145-.116a.67.67,0,0,0-.645-.392.767.767,0,0,0-.147.019A.738.738,0,0,0,236.962,416.9Zm-.692.474-.012-.006,0,0v0h0v0h.005Z" transform="translate(-29.291 -16.914)" fill="#ffb5bb"/>
    <path id="パス_887" data-name="パス 887" d="M190.381,419.27a1.221,1.221,0,0,1-1.2-.673l.257-.221-.22-.257a1.218,1.218,0,0,1,1.286-.484,1.317,1.317,0,0,1,.253.081,1.341,1.341,0,0,1-.12-.234,1.219,1.219,0,0,1,.27-1.348l.29.176.176-.29a1.22,1.22,0,0,1,.857,1.074,1.347,1.347,0,0,1,0,.261,1.3,1.3,0,0,1,.185-.186,1.221,1.221,0,0,1,1.365-.16l-.078.33.33.078a1.22,1.22,0,0,1-.756,1.147,1.34,1.34,0,0,1-.255.086,1.326,1.326,0,0,1,.241.122,1.219,1.219,0,0,1,.574,1.249l-.338.028.028.338a1.22,1.22,0,0,1-1.326-.365,1.32,1.32,0,0,1-.166-.227,1.347,1.347,0,0,1-.044.278,1.221,1.221,0,0,1-1.011.932l-.13-.313-.313.13a1.219,1.219,0,0,1-.063-1.373,1.369,1.369,0,0,1,.158-.219A1.353,1.353,0,0,1,190.381,419.27Zm1.362-.693v-.024h0v0h0l-.007.007Z" transform="translate(-14.436 -16.908)" fill="#ffb5bb"/>
    <path id="パス_888" data-name="パス 888" d="M230.566,394.422a1.459,1.459,0,0,0,1.631-.186l-.181-.363.363-.181a1.456,1.456,0,0,0-1.192-1.128,1.622,1.622,0,0,0-.318-.028,1.567,1.567,0,0,0,.241-.2,1.454,1.454,0,0,0,.327-1.609l-.4.06-.06-.4a1.458,1.458,0,0,0-1.441.786,1.547,1.547,0,0,0-.124.286,1.638,1.638,0,0,0-.118-.291,1.458,1.458,0,0,0-1.429-.808l-.067.4-.4-.067a1.459,1.459,0,0,0,.3,1.614.174.174,0,1,1-.08.234,1.455,1.455,0,0,0-1.21,1.109l.359.186-.187.359a1.458,1.458,0,0,0,1.628.211,1.575,1.575,0,0,0,.288-.173,1.587,1.587,0,0,0-.081.327,1.458,1.458,0,0,0,.681,1.493l.289-.284.284.288a1.456,1.456,0,0,0,.7-1.483,1.652,1.652,0,0,0-.073-.313A1.587,1.587,0,0,0,230.566,394.422Zm-1.18-1.392L229.4,393l0,0h0v0h0l0,.011Z" transform="translate(-26.512 -8.58)" fill="#ffb5bb"/>
    <g id="グループ_1374" data-name="グループ 1374" transform="translate(178.182 383.722)">
      <g id="グループ_1373" data-name="グループ 1373" transform="translate(2.012 0)">
        <path id="パス_889" data-name="パス 889" d="M198.168,393.122l.128.245.244-.128.057.053a1.22,1.22,0,0,1,.189,1.361,2.3,2.3,0,0,1-1.122.961l-.082.033-.049-.074a2.264,2.264,0,0,1-.373-1.431,1.213,1.213,0,0,1,.932-1.01Zm.036.54-.155-.3a1.033,1.033,0,0,0-.675.817,1.961,1.961,0,0,0,.293,1.192,2,2,0,0,0,.921-.813,1.02,1.02,0,0,0-.089-1.054Z" transform="translate(-197.248 -393.242)" fill="#ffb5bb"/>
      </g>
      <path id="パス_890" data-name="パス 890" d="M194.94,399.05h0a.977.977,0,0,1-.45-.1l-.069-.036.04-.273-.273-.041-.014-.076a1.222,1.222,0,0,1,.648-1.212,1.732,1.732,0,0,1,.846-.189,2.8,2.8,0,0,1,.627.071l.086.022,0,.088a2.268,2.268,0,0,1-.539,1.377A1.3,1.3,0,0,1,194.94,399.05Zm-.279-.265a.823.823,0,0,0,.279.047,1.078,1.078,0,0,0,.746-.31,1.964,1.964,0,0,0,.464-1.137,2.716,2.716,0,0,0-.483-.045,1.52,1.52,0,0,0-.74.162,1.022,1.022,0,0,0-.548.905l.33.049Z" transform="translate(-194.269 -394.536)" fill="#ffb5bb"/>
      <path id="パス_891" data-name="パス 891" d="M194.975,394.286a1.289,1.289,0,0,1,.879.353,2.3,2.3,0,0,1,.568,1.364l.006.088-.085.024a2.771,2.771,0,0,1-.683.087,1.662,1.662,0,0,1-.793-.174,1.214,1.214,0,0,1-.674-1.2l.013-.077.272-.046-.046-.272.068-.037A.991.991,0,0,1,194.975,394.286Zm1.219,1.64a2,2,0,0,0-.489-1.127,1.07,1.07,0,0,0-.73-.294.84.84,0,0,0-.3.053l.056.329-.329.056a1.033,1.033,0,0,0,.569.894,1.449,1.449,0,0,0,.689.148A2.652,2.652,0,0,0,196.194,395.926Z" transform="translate(-194.276 -393.616)" fill="#ffb5bb"/>
      <path id="パス_892" data-name="パス 892" d="M198.24,399.894l-.077-.01a1.213,1.213,0,0,1-.953-.99,2.265,2.265,0,0,1,.343-1.438l.048-.075.083.031a2.3,2.3,0,0,1,1.142.937,1.221,1.221,0,0,1-.16,1.365l-.055.054-.247-.122Zm-.549-2.241a1.961,1.961,0,0,0-.267,1.2,1.032,1.032,0,0,0,.692.8l.148-.3.3.148a1.021,1.021,0,0,0,.066-1.056A2,2,0,0,0,197.691,397.652Z" transform="translate(-195.25 -394.628)" fill="#ffb5bb"/>
      <path id="パス_893" data-name="パス 893" d="M199.506,395.81a1.191,1.191,0,0,1,1.057.588l.035.07-.193.2.2.193-.033.07a1.194,1.194,0,0,1-1.077.609,1.408,1.408,0,0,1-.159-.009,2.267,2.267,0,0,1-1.262-.771l-.056-.068.055-.069a2.3,2.3,0,0,1,1.244-.8A1.356,1.356,0,0,1,199.506,395.81Zm.823.62a1.011,1.011,0,0,0-.823-.4,1.133,1.133,0,0,0-.161.012,2,2,0,0,0-1.044.647,1.963,1.963,0,0,0,1.057.624,1.183,1.183,0,0,0,.134.008,1.016,1.016,0,0,0,.843-.418l-.239-.234Z" transform="translate(-195.53 -394.11)" fill="#ffb5bb"/>
    </g>
    <path id="パス_894" data-name="パス 894" d="M181.961,403.807a.584.584,0,0,0,.659.013l-.052-.154.153-.052a.585.585,0,0,0-.413-.513.662.662,0,0,0-.125-.028.645.645,0,0,0,.107-.068.587.587,0,0,0,.217-.623l-.163,0,0-.163a.585.585,0,0,0-.615.235.068.068,0,1,1-.1-.015.584.584,0,0,0-.525-.4l-.048.155-.155-.048a.585.585,0,0,0,.033.658.682.682,0,0,0,.084.1.628.628,0,0,0-.129-.008.583.583,0,0,0-.54.376l.133.093-.094.133a.585.585,0,0,0,.636.172.073.073,0,1,1,.074.072.587.587,0,0,0,.191.631l.13-.1.1.13a.586.586,0,0,0,.36-.552.691.691,0,0,0-.012-.129A.632.632,0,0,0,181.961,403.807Zm-.395-.618.006-.009h0v0Z" transform="translate(-11.571 -12.375)" fill="#ffb5bb"/>
    <path id="パス_895" data-name="パス 895" d="M171.222,436.923a.427.427,0,0,0,.42-.236l-.09-.077.078-.091a.429.429,0,0,0-.451-.17.5.5,0,0,0-.088.028.524.524,0,0,0,.042-.082.43.43,0,0,0-.095-.473l-.1.062-.062-.1a.428.428,0,0,0-.3.376.05.05,0,1,1-.066.026.427.427,0,0,0-.478-.056l.028.116-.116.028a.427.427,0,0,0,.265.4.477.477,0,0,0,.089.03.526.526,0,0,0-.084.043.428.428,0,0,0-.2.438l.118.01-.009.118a.428.428,0,0,0,.464-.128.486.486,0,0,0,.059-.08.435.435,0,0,0,.015.1.429.429,0,0,0,.354.327l.046-.11.11.046a.428.428,0,0,0,.022-.481.05.05,0,1,1,.034-.064Zm-.478-.243v-.008h0l0,0Z" transform="translate(-8.194 -23.32)" fill="#ffb5bb"/>
    <path id="パス_896" data-name="パス 896" d="M257.2,399.829v.657h.657a2.366,2.366,0,0,1-.912,2.5,4.651,4.651,0,0,1-2.906.662,4.723,4.723,0,0,1,.661-2.908A2.36,2.36,0,0,1,257.2,399.829Z" transform="translate(-35.471 -11.628)" fill="#ffb5bb"/>
    <path id="パス_897" data-name="パス 897" d="M223.776,429.187l.335.259.258-.334a1.523,1.523,0,0,1,.915,1.449,2.992,2.992,0,0,1-.807,1.741,3.038,3.038,0,0,1-1.22-1.482A1.521,1.521,0,0,1,223.776,429.187Z" transform="translate(-25.471 -21.155)" fill="#ffb5bb"/>
    <path id="パス_898" data-name="パス 898" d="M200.833,405.769l.216.166.167-.215a.981.981,0,0,1,.589.934,1.927,1.927,0,0,1-.52,1.122,1.959,1.959,0,0,1-.786-.955A.979.979,0,0,1,200.833,405.769Z" transform="translate(-18.095 -13.567)" fill="#ffb5bb"/>
    <path id="パス_899" data-name="パス 899" d="M227.74,405.6l.189-.086-.086-.188a.744.744,0,0,1,.835-.068,1.462,1.462,0,0,1,.571.745,1.488,1.488,0,0,1-.918.193A.744.744,0,0,1,227.74,405.6Z" transform="translate(-26.944 -13.385)" fill="#ffb5bb"/>
    <path id="パス_900" data-name="パス 900" d="M256.949,448.927l.216.167.166-.216a.981.981,0,0,1,.59.934,1.931,1.931,0,0,1-.52,1.122,1.959,1.959,0,0,1-.787-.955A.98.98,0,0,1,256.949,448.927Z" transform="translate(-36.298 -27.567)" fill="#ffb5bb"/>
    <path id="パス_901" data-name="パス 901" d="M202.755,472.82a.839.839,0,0,0,.824-.463l-.177-.151.152-.177a.84.84,0,0,0-.885-.333.975.975,0,0,0-.174.056.884.884,0,0,0,.082-.161.838.838,0,0,0-.185-.926l-.2.121-.122-.2a.839.839,0,0,0-.59.738.929.929,0,0,0,0,.179.907.907,0,0,0-.127-.128.838.838,0,0,0-.938-.11l.053.227-.227.054a.84.84,0,0,0,.52.789.91.91,0,0,0,.176.058,1,1,0,0,0-.166.084.84.84,0,0,0-.4.859l.232.019-.019.232a.84.84,0,0,0,.911-.251.956.956,0,0,0,.115-.156.923.923,0,0,0,.03.191.839.839,0,0,0,.695.641l.09-.215.216.09a.84.84,0,0,0,.043-.945.988.988,0,0,0-.109-.15A.9.9,0,0,0,202.755,472.82Zm-.937-.476v-.016h0l0,0Z" transform="translate(-18.023 -34.609)" fill="#ffb5bb"/>
    <g id="グループ_1376" data-name="グループ 1376" transform="translate(170.514 429.327)">
      <g id="グループ_1375" data-name="グループ 1375" transform="translate(1.699 3.554)">
        <path id="パス_902" data-name="パス 902" d="M186.217,468.959l-.158-.3-.3.158-.07-.066a1.508,1.508,0,0,1-.233-1.684,2.839,2.839,0,0,1,1.386-1.187l.1-.04.061.091a2.8,2.8,0,0,1,.461,1.768,1.5,1.5,0,0,1-1.151,1.249Zm-.044-.667.191.366a1.275,1.275,0,0,0,.834-1.009,2.415,2.415,0,0,0-.361-1.473,2.464,2.464,0,0,0-1.138,1,1.262,1.262,0,0,0,.109,1.3Z" transform="translate(-185.434 -466.003)" fill="#ffb5bb"/>
      </g>
      <path id="パス_903" data-name="パス 903" d="M189.941,461.965h0a1.208,1.208,0,0,1,.556.126l.085.044-.05.337.337.05.018.094a1.507,1.507,0,0,1-.8,1.5,2.142,2.142,0,0,1-1.045.234,3.462,3.462,0,0,1-.775-.088l-.106-.027,0-.109a2.8,2.8,0,0,1,.666-1.7A1.606,1.606,0,0,1,189.941,461.965Zm.346.328a1.018,1.018,0,0,0-.345-.058,1.332,1.332,0,0,0-.923.384,2.422,2.422,0,0,0-.573,1.4,3.353,3.353,0,0,0,.6.056,1.879,1.879,0,0,0,.914-.2,1.261,1.261,0,0,0,.677-1.119l-.408-.061Z" transform="translate(-184.665 -461.183)" fill="#ffb5bb"/>
      <path id="パス_904" data-name="パス 904" d="M189.885,467.862a1.592,1.592,0,0,1-1.086-.437,2.839,2.839,0,0,1-.7-1.686l-.007-.109.105-.03a3.434,3.434,0,0,1,.844-.107,2.058,2.058,0,0,1,.98.215,1.5,1.5,0,0,1,.832,1.481l-.016.095-.337.057.057.337-.084.046A1.224,1.224,0,0,1,189.885,467.862Zm-1.506-2.027a2.464,2.464,0,0,0,.6,1.393,1.321,1.321,0,0,0,.9.364h0a1.036,1.036,0,0,0,.371-.065l-.069-.407.407-.069a1.276,1.276,0,0,0-.7-1.1,1.794,1.794,0,0,0-.852-.183A3.281,3.281,0,0,0,188.379,465.835Z" transform="translate(-184.642 -462.328)" fill="#ffb5bb"/>
      <path id="パス_905" data-name="パス 905" d="M186.124,460.6l.1.012a1.5,1.5,0,0,1,1.177,1.223,2.8,2.8,0,0,1-.423,1.778l-.059.092-.1-.038a2.838,2.838,0,0,1-1.412-1.158,1.508,1.508,0,0,1,.2-1.688l.069-.067.306.152Zm.678,2.77a2.423,2.423,0,0,0,.33-1.481,1.275,1.275,0,0,0-.855-.991l-.184.369-.369-.183a1.261,1.261,0,0,0-.081,1.305A2.456,2.456,0,0,0,186.8,463.367Z" transform="translate(-183.713 -460.743)" fill="#ffb5bb"/>
      <path id="パス_906" data-name="パス 906" d="M184.11,466.09a1.473,1.473,0,0,1-1.306-.726l-.043-.086.239-.244-.244-.239.041-.087a1.474,1.474,0,0,1,1.331-.753,1.735,1.735,0,0,1,.2.011,2.8,2.8,0,0,1,1.56.952l.069.084-.068.086a2.841,2.841,0,0,1-1.537.985A1.676,1.676,0,0,1,184.11,466.09Zm-1.017-.766a1.251,1.251,0,0,0,1.017.5,1.408,1.408,0,0,0,.2-.014,2.458,2.458,0,0,0,1.29-.8,2.424,2.424,0,0,0-1.306-.771,1.47,1.47,0,0,0-.166-.01,1.255,1.255,0,0,0-1.041.516l.295.289Z" transform="translate(-182.919 -461.829)" fill="#ffb5bb"/>
    </g>
    <path id="パス_907" data-name="パス 907" d="M206.121,386.6l.335.259.258-.334a1.521,1.521,0,0,1,.915,1.449,3,3,0,0,1-.807,1.741,3.041,3.041,0,0,1-1.22-1.482A1.52,1.52,0,0,1,206.121,386.6Z" transform="translate(-19.744 -7.339)" fill="#ffb5bb"/>
    <g id="グループ_1378" data-name="グループ 1378" transform="translate(205.397 434.557)">
      <g id="グループ_1377" data-name="グループ 1377" transform="translate(1.381)">
        <path id="パス_908" data-name="パス 908" d="M237.224,468.4l.088.167.167-.087.039.036a.835.835,0,0,1,.13.934,1.575,1.575,0,0,1-.769.659l-.056.022-.034-.05a1.554,1.554,0,0,1-.256-.981.83.83,0,0,1,.639-.692Zm.025.369-.106-.2a.706.706,0,0,0-.463.56,1.345,1.345,0,0,0,.2.818,1.366,1.366,0,0,0,.631-.557.7.7,0,0,0-.06-.724Z" transform="translate(-236.593 -468.484)" fill="#ffb5bb"/>
      </g>
      <path id="パス_909" data-name="パス 909" d="M235.01,472.467h0a.67.67,0,0,1-.309-.07l-.047-.025.027-.188-.188-.028-.01-.052a.837.837,0,0,1,.445-.831,1.185,1.185,0,0,1,.579-.13,1.914,1.914,0,0,1,.431.049l.059.015,0,.061a1.551,1.551,0,0,1-.37.944A.891.891,0,0,1,235.01,472.467Zm-.192-.182a.565.565,0,0,0,.192.032h0a.739.739,0,0,0,.512-.213,1.343,1.343,0,0,0,.318-.779,1.855,1.855,0,0,0-.332-.031,1.039,1.039,0,0,0-.507.111.7.7,0,0,0-.377.621l.227.034Z" transform="translate(-234.55 -469.371)" fill="#ffb5bb"/>
      <path id="パス_910" data-name="パス 910" d="M235.034,469.2a.883.883,0,0,1,.6.242,1.575,1.575,0,0,1,.389.935l0,.061-.058.016a1.9,1.9,0,0,1-.469.06,1.14,1.14,0,0,1-.543-.119.832.832,0,0,1-.461-.822l.009-.053.187-.031-.032-.187.047-.026A.676.676,0,0,1,235.034,469.2Zm.836,1.125a1.367,1.367,0,0,0-.335-.773.733.733,0,0,0-.5-.2.572.572,0,0,0-.206.036l.038.226-.226.038a.708.708,0,0,0,.39.613.994.994,0,0,0,.472.1A1.819,1.819,0,0,0,235.87,470.324Z" transform="translate(-234.555 -468.74)" fill="#ffb5bb"/>
      <path id="パス_911" data-name="パス 911" d="M237.274,473.046l-.053-.007a.829.829,0,0,1-.653-.679,1.552,1.552,0,0,1,.235-.986l.033-.051.057.021a1.575,1.575,0,0,1,.783.642.838.838,0,0,1-.109.936l-.038.037-.17-.084Zm-.376-1.537a1.344,1.344,0,0,0-.183.821.705.705,0,0,0,.474.55l.1-.205.205.1a.7.7,0,0,0,.045-.724A1.363,1.363,0,0,0,236.9,471.509Z" transform="translate(-235.223 -469.435)" fill="#ffb5bb"/>
      <path id="パス_912" data-name="パス 912" d="M238.143,470.245a.815.815,0,0,1,.725.4l.024.048-.132.135.135.133-.023.048a.818.818,0,0,1-.738.418.961.961,0,0,1-.11-.006,1.55,1.55,0,0,1-.865-.528l-.039-.047.038-.047a1.574,1.574,0,0,1,.853-.546A.931.931,0,0,1,238.143,470.245Zm.564.425a.692.692,0,0,0-.564-.275.776.776,0,0,0-.111.008,1.362,1.362,0,0,0-.716.444,1.342,1.342,0,0,0,.725.428.818.818,0,0,0,.093.005.7.7,0,0,0,.577-.286l-.163-.16Z" transform="translate(-235.415 -469.08)" fill="#ffb5bb"/>
    </g>
    <path id="パス_913" data-name="パス 913" d="M251.758,459a1.442,1.442,0,0,0,1.546-.5l-.245-.317.316-.246a1.441,1.441,0,0,0-1.375-.864.17.17,0,1,1-.118-.209,1.441,1.441,0,0,0,.006-1.624l-.377.136-.136-.377a1.442,1.442,0,0,0-1.247,1.04,1.542,1.542,0,0,0-.065.3,1.627,1.627,0,0,0-.171-.258,1.441,1.441,0,0,0-1.542-.508l.012.4-.4.012a1.442,1.442,0,0,0,.6,1.508,1.645,1.645,0,0,0,.275.159,1.62,1.62,0,0,0-.307.084,1.441,1.441,0,0,0-.96,1.31l.385.112-.112.384a1.442,1.442,0,0,0,1.621-.109,1.59,1.59,0,0,0,.247-.224,1.613,1.613,0,0,0-.016.333,1.442,1.442,0,0,0,.949,1.318l.226-.331.331.225a1.44,1.44,0,0,0,.4-1.575,1.63,1.63,0,0,0-.131-.291A1.517,1.517,0,0,0,251.758,459Zm-1.413-1.124.005-.027,0,0h0v0h0l.006.01Z" transform="translate(-33.378 -29.554)" fill="#ffb5bb"/>
    <path id="パス_914" data-name="パス 914" d="M172.94,453.661l.168.13.13-.168a.762.762,0,0,1,.457.725,1.5,1.5,0,0,1-.4.871,1.522,1.522,0,0,1-.611-.741A.762.762,0,0,1,172.94,453.661Z" transform="translate(-9.074 -29.106)" fill="#ffb5bb"/>
    <path id="パス_915" data-name="パス 915" d="M210.488,438.113a1.318,1.318,0,0,0,1.294-.726l-.278-.239.238-.278a1.317,1.317,0,0,0-1.389-.523,1.491,1.491,0,0,0-.274.089,1.444,1.444,0,0,0,.13-.253,1.317,1.317,0,0,0-.291-1.455l-.313.191-.191-.313a1.317,1.317,0,0,0-.926,1.159,1.4,1.4,0,0,0,0,.282,1.44,1.44,0,0,0-.2-.2,1.316,1.316,0,0,0-1.474-.172l.084.356-.356.084a1.317,1.317,0,0,0,.817,1.239,1.43,1.43,0,0,0,.275.092,1.535,1.535,0,0,0-.26.132,1.317,1.317,0,0,0-.62,1.349l.365.03-.03.365a1.318,1.318,0,0,0,1.431-.394,1.48,1.48,0,0,0,.18-.246,1.466,1.466,0,0,0,.047.3,1.319,1.319,0,0,0,1.091,1.007l.141-.338.338.141a1.317,1.317,0,0,0,.068-1.482,1.437,1.437,0,0,0-.171-.236A1.4,1.4,0,0,0,210.488,438.113Zm-1.471-.747c0-.016,0-.026,0-.026h0l0,0,0,0,.007.008Z" transform="translate(-20.066 -22.937)" fill="#ffb5bb"/>
    <path id="パス_916" data-name="パス 916" d="M176.572,424.633a1.673,1.673,0,0,0,1.643-.923l-.353-.3.3-.353a1.672,1.672,0,0,0-1.764-.663,1.93,1.93,0,0,0-.347.111,1.869,1.869,0,0,0,.164-.322,1.671,1.671,0,0,0-.37-1.848l-.4.242-.242-.4a1.672,1.672,0,0,0-1.176,1.472,1.858,1.858,0,0,0,0,.357,1.846,1.846,0,0,0-.254-.255,1.671,1.671,0,0,0-1.871-.219l.107.452-.453.107a1.674,1.674,0,0,0,1.037,1.574.2.2,0,1,1,.02.284,1.672,1.672,0,0,0-.787,1.713l.463.037-.038.464a1.672,1.672,0,0,0,1.817-.5,1.87,1.87,0,0,0,.229-.312,1.845,1.845,0,0,0,.059.382,1.675,1.675,0,0,0,1.386,1.278l.179-.429.429.179a1.674,1.674,0,0,0,.086-1.883,1.869,1.869,0,0,0-.217-.3A1.793,1.793,0,0,0,176.572,424.633Zm-1.868-.949v-.033h0l0,0,0,0,.009.009Z" transform="translate(-8.718 -18.257)" fill="#ffb5bb"/>
    <path id="パス_917" data-name="パス 917" d="M216.837,413.046a.84.84,0,0,0,.824-.463l-.177-.152.151-.177a.838.838,0,0,0-.884-.332.1.1,0,1,1-.092-.105.839.839,0,0,0-.186-.927l-.2.122-.122-.2a.841.841,0,0,0-.59.738.935.935,0,0,0,0,.179.9.9,0,0,0-.127-.127.839.839,0,0,0-.939-.11l.054.227-.227.053a.84.84,0,0,0,.52.789.1.1,0,1,1,.009.143.838.838,0,0,0-.395.859l.232.019-.019.232a.839.839,0,0,0,.911-.251.963.963,0,0,0,.115-.157.93.93,0,0,0,.03.192.839.839,0,0,0,.695.64l.09-.215.216.089a.838.838,0,0,0,.043-.944.917.917,0,0,0-.108-.15A.9.9,0,0,0,216.837,413.046Zm-.937-.476v-.017h0l0,0Z" transform="translate(-22.591 -15.219)" fill="#ffb5bb"/>
    <path id="パス_918" data-name="パス 918" d="M262.274,421.845a1.167,1.167,0,0,0,1.147-.644l-.246-.211.212-.247a1.167,1.167,0,0,0-1.231-.463,1.3,1.3,0,0,0-.243.078,1.319,1.319,0,0,0,.115-.224,1.168,1.168,0,0,0-.258-1.289l-.277.169-.169-.277a1.168,1.168,0,0,0-.821,1.027,1.283,1.283,0,0,0,0,.249,1.249,1.249,0,0,0-.177-.177,1.165,1.165,0,0,0-1.306-.153l.075.316-.315.075a1.167,1.167,0,0,0,.724,1.1,1.293,1.293,0,0,0,.244.082,1.27,1.27,0,0,0-.23.116,1.168,1.168,0,0,0-.549,1.2l.324.026-.026.324a1.168,1.168,0,0,0,1.267-.349,1.256,1.256,0,0,0,.159-.218,1.274,1.274,0,0,0,.042.267,1.168,1.168,0,0,0,.966.891l.125-.3.3.125a1.166,1.166,0,0,0,.06-1.313,1.322,1.322,0,0,0-.151-.209A1.247,1.247,0,0,0,262.274,421.845Zm-1.3-.662v-.022h0v0h0l.007.007Z" transform="translate(-37.01 -17.79)" fill="#ffb5bb"/>
    <path id="パス_919" data-name="パス 919" d="M219.512,439.8l-.143.153.153.143a.753.753,0,0,1-.756.386,1.482,1.482,0,0,1-.823-.477,1.5,1.5,0,0,1,.786-.535A.752.752,0,0,1,219.512,439.8Z" transform="translate(-23.766 -24.511)" fill="#ffb5bb"/>
    <path id="パス_920" data-name="パス 920" d="M206.595,450.88l-.107-.028-.028.107a.4.4,0,0,1-.369-.255.78.78,0,0,1,.016-.5.794.794,0,0,1,.446.231A.4.4,0,0,1,206.595,450.88Z" transform="translate(-19.909 -27.996)" fill="#ffb5bb"/>
    <path id="パス_921" data-name="パス 921" d="M225.284,446.8l-.107.028-.028-.107a.4.4,0,0,0-.369.255.785.785,0,0,0,.016.5.8.8,0,0,0,.446-.231A.4.4,0,0,0,225.284,446.8Z" transform="translate(-25.972 -26.868)" fill="#ffb5bb"/>
    <path id="パス_922" data-name="パス 922" d="M221.25,452.433l.107.028.028-.107a.4.4,0,0,1,.369.255.785.785,0,0,1-.016.5.794.794,0,0,1-.446-.231A.4.4,0,0,1,221.25,452.433Z" transform="translate(-24.823 -28.694)" fill="#ffb5bb"/>
    <path id="パス_923" data-name="パス 923" d="M263.315,440.231a.586.586,0,0,0,.659.014l-.053-.154.154-.053a.586.586,0,0,0-.413-.513.069.069,0,1,1-.018-.1.584.584,0,0,0,.216-.622l-.162,0,0-.163a.585.585,0,0,0-.616.235.645.645,0,0,0-.065.107.7.7,0,0,0-.031-.122.586.586,0,0,0-.525-.4l-.048.155-.155-.048a.585.585,0,0,0,.033.658.678.678,0,0,0,.084.1.686.686,0,0,0-.129-.009.586.586,0,0,0-.541.376l.133.094-.093.133a.585.585,0,0,0,.636.172.679.679,0,0,0,.124-.053.632.632,0,0,0-.05.126.584.584,0,0,0,.191.63l.13-.1.1.13a.585.585,0,0,0,.359-.552.069.069,0,1,1,.084-.051Zm-.395-.617.005-.01h0v0Z" transform="translate(-37.961 -24.19)" fill="#ffb5bb"/>
    <path id="パス_924" data-name="パス 924" d="M189.912,440.281a.421.421,0,0,1-.413-.232l.089-.076-.076-.089a.444.444,0,0,1,.53-.138.473.473,0,0,1-.041-.08.421.421,0,0,1,.093-.465l.1.061.061-.1a.421.421,0,0,1,.3.37.445.445,0,0,1,0,.09.477.477,0,0,1,.064-.064.42.42,0,0,1,.47-.055l-.027.114.114.027a.42.42,0,0,1-.261.4.432.432,0,0,1-.088.03.475.475,0,0,1,.083.042.421.421,0,0,1,.2.43l-.116.01.009.116a.421.421,0,0,1-.457-.126.429.429,0,0,1-.057-.078.506.506,0,0,1-.015.1.42.42,0,0,1-.349.321l-.045-.107-.108.045a.42.42,0,0,1-.022-.473.464.464,0,0,1,.055-.075A.478.478,0,0,1,189.912,440.281Zm.469-.238v-.009h0l0,0Z" transform="translate(-14.539 -24.415)" fill="#ffb5bb"/>
    <path id="パス_925" data-name="パス 925" d="M219.744,394.628l-.014.209-.209-.014a.754.754,0,0,0,.236.815,1.482,1.482,0,0,0,.911.273,1.506,1.506,0,0,0-.147-.939A.756.756,0,0,0,219.744,394.628Z" transform="translate(-24.265 -9.964)" fill="#ffb5bb"/>
    <path id="パス_926" data-name="パス 926" d="M178.676,448.586a.388.388,0,0,0,.38-.213l-.082-.07.07-.082a.387.387,0,0,0-.407-.153.47.47,0,0,0-.08.026.429.429,0,0,0,.038-.074.385.385,0,0,0-.085-.426l-.092.056-.055-.092a.386.386,0,0,0-.272.34.419.419,0,0,0,0,.082.4.4,0,0,0-.059-.059.385.385,0,0,0-.432-.051l.024.1-.1.024a.386.386,0,0,0,.239.363.507.507,0,0,0,.08.027.4.4,0,0,0-.076.039.386.386,0,0,0-.182.4l.107.008-.009.107a.387.387,0,0,0,.42-.115.42.42,0,0,0,.053-.072.436.436,0,0,0,.014.088.387.387,0,0,0,.32.295l.041-.1.1.041a.385.385,0,0,0,.02-.434.517.517,0,0,0-.05-.07A.4.4,0,0,0,178.676,448.586Zm-.431-.22v-.007h0l0,0Z" transform="translate(-10.653 -27.139)" fill="#ffb5bb"/>
    <path id="パス_927" data-name="パス 927" d="M205.84,394.846l-.051.126.126.051a.491.491,0,0,1-.371.409.967.967,0,0,1-.611-.1.982.982,0,0,1,.355-.507A.489.489,0,0,1,205.84,394.846Z" transform="translate(-19.546 -10.009)" fill="#ffb5bb"/>
    <g id="グループ_1381" data-name="グループ 1381" transform="translate(191.379 392.447)">
      <g id="グループ_1380" data-name="グループ 1380">
        <g id="グループ_1379" data-name="グループ 1379" transform="translate(0.471)">
          <path id="パス_928" data-name="パス 928" d="M214.593,406.2l.093.049.049-.093a.38.38,0,0,1,.288.316.743.743,0,0,1-.122.462.756.756,0,0,1-.363-.309A.379.379,0,0,1,214.593,406.2Z" transform="translate(-214.498 -406.155)" fill="#ffb5bb"/>
        </g>
        <path id="パス_929" data-name="パス 929" d="M215.972,407.956l-.1.016.016.1a.38.38,0,0,1-.418-.086.746.746,0,0,1-.173-.446.757.757,0,0,1,.476.036A.38.38,0,0,1,215.972,407.956Z" transform="translate(-214.285 -406.598)" fill="#ffb5bb"/>
        <path id="パス_930" data-name="パス 930" d="M215.875,406.584l-.018.1.1.018a.379.379,0,0,1-.211.371.743.743,0,0,1-.477.027.751.751,0,0,1,.182-.442A.377.377,0,0,1,215.875,406.584Z" transform="translate(-214.279 -406.283)" fill="#ffb5bb"/>
        <path id="パス_931" data-name="パス 931" d="M214.569,408.344l.095-.047.047.094a.379.379,0,0,0,.295-.309.744.744,0,0,0-.112-.465.755.755,0,0,0-.371.3A.38.38,0,0,0,214.569,408.344Z" transform="translate(-214.021 -406.63)" fill="#ffb5bb"/>
        <path id="パス_932" data-name="パス 932" d="M213.8,407.252l.074.075-.075.074a.378.378,0,0,0,.385.184.746.746,0,0,0,.407-.25.758.758,0,0,0-.4-.259A.379.379,0,0,0,213.8,407.252Z" transform="translate(-213.801 -406.452)" fill="#ffb5bb"/>
      </g>
    </g>
    <path id="楕円形_3" data-name="楕円形 3" d="M45.641-.375A46.028,46.028,0,0,1,63.552,88.04a46.027,46.027,0,0,1-35.823-84.8A45.728,45.728,0,0,1,45.641-.375Zm0,91.281A45.278,45.278,0,0,0,63.26,3.932,45.277,45.277,0,0,0,28.021,87.349,44.982,44.982,0,0,0,45.641,90.906Z" transform="translate(148.537 367.755)" fill="#203966"/>
    <path id="楕円形_4" data-name="楕円形 4" d="M49.5-1A50.513,50.513,0,0,1,69.157,96.031,50.513,50.513,0,0,1,29.843,2.969,50.185,50.185,0,0,1,49.5-1Zm0,99A48.513,48.513,0,0,0,68.378,4.811,48.513,48.513,0,0,0,30.622,94.189,48.2,48.2,0,0,0,49.5,98Z" transform="translate(144.677 363.895)" fill="#203966"/>
  </g>
</svg>
